SeanSlab-WideMedium.ufo
<glyph name="exclam" format="1">
  <advance width="277"/>
  <unicode hex="0021"/>
  <outline>
    <contour>
      <point x="177" y="229" type="line"/>
      <point x="189" y="722" type="line"/>
      <point x="89" y="722" type="line"/>
      <point x="100" y="229" type="line"/>
    </contour>
    <contour>
      <point x="197" y="40" type="curve"/>
      <point x="197" y="73"/>
      <point x="172" y="89"/>
      <point x="138" y="89" type="curve"/>
      <point x="104" y="89"/>
      <point x="81" y="71"/>
      <point x="81" y="40" type="curve"/>
      <point x="187" y="40"/>
      <point x="91" y="40"/>
      <point x="197" y="40" type="curve"/>
      <point x="197" y="7"/>
      <point x="172" y="-8"/>
      <point x="138" y="-8" type="curve"/>
      <point x="104" y="-8"/>
      <point x="81" y="8"/>
      <point x="81" y="40" type="curve"/>
      <point x="187" y="40"/>
      <point x="91" y="40"/>
    </contour>
  </outline>
</glyph>
<glyph name="quotedbl" format="1">
  <advance width="491"/>
  <unicode hex="0022"/>
  <outline>
    <contour>
      <point x="178" y="628" type="line"/>
      <point x="185" y="840" type="line"/>
      <point x="77" y="840" type="line"/>
      <point x="84" y="628" type="line"/>
    </contour>
    <contour>
      <point x="407" y="628" type="line"/>
      <point x="414" y="840" type="line"/>
      <point x="306" y="840" type="line"/>
      <point x="313" y="628" type="line"/>
    </contour>
  </outline>
</glyph>
<glyph name="numbersign" format="1">
  <advance width="836"/>
  <unicode hex="0023"/>
  <outline>
    <contour>
      <point x="670" y="230" type="line"/>
      <point x="698" y="302" type="line"/>
      <point x="614" y="302" type="line"/>
      <point x="676" y="457" type="line"/>
      <point x="760" y="457" type="line"/>
      <point x="787" y="528" type="line"/>
      <point x="704" y="528" type="line"/>
      <point x="782" y="722" type="line"/>
      <point x="686" y="722" type="line"/>
      <point x="608" y="528" type="line"/>
      <point x="358" y="528" type="line"/>
      <point x="435" y="722" type="line"/>
      <point x="339" y="722" type="line"/>
      <point x="263" y="528" type="line"/>
      <point x="162" y="528" type="line"/>
      <point x="134" y="457" type="line"/>
      <point x="235" y="457" type="line"/>
      <point x="174" y="302" type="line"/>
      <point x="77" y="302" type="line"/>
      <point x="47" y="230" type="line"/>
      <point x="145" y="230" type="line"/>
      <point x="73" y="46" type="line"/>
      <point x="165" y="46" type="line"/>
      <point x="238" y="230" type="line"/>
      <point x="489" y="230" type="line"/>
      <point x="412" y="39" type="line"/>
      <point x="508" y="39" type="line"/>
      <point x="585" y="230" type="line"/>
    </contour>
    <contour>
      <point x="518" y="302" type="line"/>
      <point x="267" y="302" type="line"/>
      <point x="329" y="457" type="line"/>
      <point x="580" y="457" type="line"/>
    </contour>
  </outline>
</glyph>
<glyph name="dollar" format="1">
  <advance width="700"/>
  <unicode hex="0024"/>
  <outline>
    <contour>
      <point x="138" y="95" type="curve"/>
      <point x="138" y="215"/>
      <point x="138" y="109"/>
      <point x="138" y="229" type="curve"/>
      <point x="64" y="229"/>
      <point x="138" y="229"/>
      <point x="64" y="229" type="curve"/>
      <point x="64" y="109"/>
      <point x="64" y="215"/>
      <point x="64" y="95" type="curve"/>
      <point x="138" y="95"/>
      <point x="64" y="95"/>
    </contour>
    <contour>
      <point x="536" y="634" type="curve"/>
      <point x="536" y="514"/>
      <point x="536" y="619"/>
      <point x="536" y="499" type="curve"/>
      <point x="611" y="499"/>
      <point x="536" y="499"/>
      <point x="611" y="499" type="curve"/>
      <point x="611" y="619"/>
      <point x="611" y="514"/>
      <point x="611" y="634" type="curve"/>
      <point x="536" y="634"/>
      <point x="611" y="634"/>
    </contour>
    <contour>
      <point x="377" y="-41" type="curve"/>
      <point x="377" y="-9"/>
      <point x="377" y="49"/>
      <point x="377" y="81" type="curve"/>
      <point x="281" y="81"/>
      <point x="377" y="81"/>
      <point x="281" y="81" type="curve"/>
      <point x="281" y="49"/>
      <point x="281" y="-9"/>
      <point x="281" y="-41" type="curve"/>
      <point x="377" y="-41"/>
      <point x="281" y="-41"/>
    </contour>
    <contour>
      <point x="392" y="649" type="curve"/>
      <point x="392" y="680"/>
      <point x="392" y="742"/>
      <point x="392" y="773" type="curve"/>
      <point x="296" y="773"/>
      <point x="392" y="773"/>
      <point x="296" y="773" type="curve"/>
      <point x="296" y="742"/>
      <point x="296" y="680"/>
      <point x="296" y="649" type="curve"/>
      <point x="392" y="649"/>
      <point x="296" y="649"/>
    </contour>
    <contour>
      <point x="64" y="95" type="curve"/>
      <point x="138" y="67"/>
      <point x="226" y="44"/>
      <point x="324" y="44" type="curve"/>
      <point x="497" y="44"/>
      <point x="648" y="76"/>
      <point x="648" y="211" type="curve"/>
      <point x="648" y="334"/>
      <point x="511" y="364"/>
      <point x="375" y="407" type="curve"/>
      <point x="274" y="439"/>
      <point x="176" y="455"/>
      <point x="176" y="530" type="curve"/>
      <point x="176" y="598"/>
      <point x="256" y="614"/>
      <point x="348" y="614" type="curve"/>
      <point x="431" y="614"/>
      <point x="489" y="602"/>
      <point x="563" y="573" type="curve"/>
      <point x="611" y="634"/>
      <point x="563" y="573"/>
      <point x="611" y="634" type="curve"/>
      <point x="522" y="668"/>
      <point x="451" y="686"/>
      <point x="353" y="686" type="curve"/>
      <point x="203" y="686"/>
      <point x="80" y="649"/>
      <point x="80" y="530" type="curve"/>
      <point x="80" y="414"/>
      <point x="190" y="382"/>
      <point x="319" y="342" type="curve"/>
      <point x="429" y="308"/>
      <point x="552" y="292"/>
      <point x="552" y="208" type="curve"/>
      <point x="552" y="127"/>
      <point x="448" y="116"/>
      <point x="333" y="116" type="curve"/>
      <point x="251" y="116"/>
      <point x="177" y="137"/>
      <point x="116" y="159" type="curve"/>
      <point x="64" y="94"/>
      <point x="116" y="159"/>
    </contour>
  </outline>
</glyph>
<glyph name="percent" format="1">
  <advance width="1323"/>
  <unicode hex="0025"/>
  <outline>
    <contour>
      <point x="451" y="-60" type="line"/>
      <point x="990" y="728" type="line"/>
      <point x="900" y="728" type="line"/>
      <point x="362" y="-60" type="line"/>
    </contour>
    <contour>
      <point x="133" y="515" type="curve"/>
      <point x="133" y="605"/>
      <point x="188" y="660"/>
      <point x="277" y="660" type="curve"/>
      <point x="368" y="661"/>
      <point x="423" y="605"/>
      <point x="423" y="514" type="curve"/>
      <point x="423" y="424"/>
      <point x="372" y="366"/>
      <point x="283" y="366" type="curve"/>
      <point x="190" y="366"/>
      <point x="133" y="422"/>
      <point x="133" y="515" type="curve"/>
      <point x="99" y="515"/>
      <point x="76" y="515"/>
      <point x="42" y="515" type="curve"/>
      <point x="42" y="375"/>
      <point x="136" y="295"/>
      <point x="278" y="295" type="curve"/>
      <point x="423" y="295"/>
      <point x="518" y="376"/>
      <point x="518" y="518" type="curve"/>
      <point x="518" y="655"/>
      <point x="423" y="731"/>
      <point x="282" y="732" type="curve"/>
      <point x="138" y="732"/>
      <point x="42" y="654"/>
      <point x="42" y="515" type="curve"/>
      <point x="76" y="515"/>
      <point x="99" y="515"/>
    </contour>
    <contour>
      <point x="897" y="152" type="curve"/>
      <point x="897" y="242"/>
      <point x="952" y="298"/>
      <point x="1041" y="298" type="curve"/>
      <point x="1132" y="299"/>
      <point x="1187" y="243"/>
      <point x="1187" y="152" type="curve"/>
      <point x="1187" y="62"/>
      <point x="1136" y="4"/>
      <point x="1047" y="4" type="curve"/>
      <point x="954" y="4"/>
      <point x="897" y="60"/>
      <point x="897" y="152" type="curve"/>
      <point x="863" y="152"/>
      <point x="840" y="152"/>
      <point x="806" y="152" type="curve"/>
      <point x="806" y="13"/>
      <point x="899" y="-67"/>
      <point x="1042" y="-67" type="curve"/>
      <point x="1187" y="-67"/>
      <point x="1282" y="14"/>
      <point x="1282" y="155" type="curve"/>
      <point x="1282" y="293"/>
      <point x="1187" y="369"/>
      <point x="1045" y="370" type="curve"/>
      <point x="902" y="370"/>
      <point x="806" y="292"/>
      <point x="806" y="152" type="curve"/>
      <point x="840" y="152"/>
      <point x="863" y="152"/>
    </contour>
  </outline>
</glyph>
<glyph name="ampersand" format="1">
  <advance width="850"/>
  <unicode hex="0026"/>
  <outline>
    <contour>
      <point x="824" y="49" type="line"/>
      <point x="692" y="150"/>
      <point x="549" y="261"/>
      <point x="415" y="365" type="curve"/>
      <point x="340" y="426"/>
      <point x="244" y="463"/>
      <point x="244" y="561" type="curve"/>
      <point x="244" y="621"/>
      <point x="292" y="655"/>
      <point x="357" y="655" type="curve"/>
      <point x="430" y="655"/>
      <point x="490" y="629"/>
      <point x="490" y="563" type="curve"/>
      <point x="489" y="469"/>
      <point x="400" y="444"/>
      <point x="309" y="406" type="curve"/>
      <point x="185" y="353"/>
      <point x="63" y="319"/>
      <point x="63" y="190" type="curve"/>
      <point x="63" y="50"/>
      <point x="194" y="-5"/>
      <point x="350" y="-5" type="curve"/>
      <point x="567" y="-5"/>
      <point x="713" y="113"/>
      <point x="798" y="314" type="curve"/>
      <point x="716" y="333"/>
      <point x="798" y="314"/>
      <point x="716" y="333" type="curve"/>
      <point x="646" y="168"/>
      <point x="530" y="67"/>
      <point x="355" y="67" type="curve"/>
      <point x="249" y="67"/>
      <point x="158" y="97"/>
      <point x="158" y="190" type="curve"/>
      <point x="158" y="288"/>
      <point x="254" y="308"/>
      <point x="348" y="348" type="curve"/>
      <point x="468" y="400"/>
      <point x="584" y="438"/>
      <point x="585" y="563" type="curve"/>
      <point x="585" y="676"/>
      <point x="485" y="727"/>
      <point x="361" y="727" type="curve"/>
      <point x="242" y="727"/>
      <point x="149" y="671"/>
      <point x="149" y="561" type="curve"/>
      <point x="149" y="444"/>
      <point x="257" y="393"/>
      <point x="349" y="322" type="curve"/>
      <point x="482" y="218"/>
      <point x="644" y="93"/>
      <point x="775" y="-9" type="curve"/>
    </contour>
  </outline>
</glyph>
<glyph name="quotesingle" format="1">
  <advance width="261"/>
  <unicode hex="0027"/>
  <outline>
    <contour>
      <point x="178" y="628" type="line"/>
      <point x="185" y="840" type="line"/>
      <point x="77" y="840" type="line"/>
      <point x="84" y="628" type="line"/>
    </contour>
  </outline>
</glyph>
<glyph name="parenleft" format="1">
  <advance width="443"/>
  <unicode hex="0028"/>
  <outline>
    <contour>
      <point x="406" y="-243" type="line" smooth="yes"/>
      <point x="434" y="-218" type="line"/>
      <point x="246" y="-70"/>
      <point x="147" y="86"/>
      <point x="147" y="326" type="curve"/>
      <point x="147" y="566"/>
      <point x="246" y="721"/>
      <point x="433" y="872" type="curve"/>
      <point x="405" y="896" type="line" smooth="yes"/>
      <point x="376" y="919" type="line"/>
      <point x="168" y="756"/>
      <point x="52" y="590"/>
      <point x="52" y="326" type="curve"/>
      <point x="52" y="61"/>
      <point x="169" y="-104"/>
      <point x="377" y="-268" type="curve"/>
    </contour>
  </outline>
</glyph>
<glyph name="asterisk" format="1">
  <advance width="666"/>
  <unicode hex="002A"/>
  <outline>
    <contour>
      <point x="365" y="620" type="line"/>
      <point x="370" y="833" type="line"/>
      <point x="290" y="833" type="line"/>
      <point x="295" y="620" type="line"/>
    </contour>
    <contour>
      <point x="395" y="555" type="line"/>
      <point x="597" y="620" type="line"/>
      <point x="570" y="695" type="line"/>
      <point x="371" y="620" type="line"/>
    </contour>
    <contour>
      <point x="341" y="506" type="line"/>
      <point x="469" y="336" type="line"/>
      <point x="530" y="387" type="line"/>
      <point x="395" y="550" type="line"/>
    </contour>
    <contour>
      <point x="279" y="545" type="line"/>
      <point x="143" y="382" type="line"/>
      <point x="205" y="332" type="line"/>
      <point x="333" y="501" type="line"/>
    </contour>
    <contour>
      <point x="295" y="613" type="line"/>
      <point x="96" y="688" type="line"/>
      <point x="69" y="613" type="line"/>
      <point x="271" y="548" type="line"/>
    </contour>
  </outline>
</glyph>
<glyph name="plus" format="1">
  <advance width="726"/>
  <unicode hex="002B"/>
  <outline>
    <contour>
      <point x="51" y="272" type="curve"/>
      <point x="674" y="272" type="line"/>
      <point x="674" y="351"/>
      <point x="674" y="272"/>
      <point x="674" y="351" type="curve"/>
      <point x="51" y="351" type="line"/>
      <point x="51" y="272"/>
      <point x="51" y="351"/>
    </contour>
    <contour>
      <point x="408" y="20" type="curve"/>
      <point x="408" y="587" type="line"/>
      <point x="313" y="587"/>
      <point x="413" y="587"/>
      <point x="318" y="587" type="curve"/>
      <point x="318" y="20" type="line"/>
      <point x="413" y="20"/>
      <point x="313" y="20"/>
    </contour>
  </outline>
</glyph>
<glyph name="comma" format="1">
  <advance width="283"/>
  <unicode hex="002C"/>
  <outline>
    <contour>
      <point x="60" y="-121" type="line"/>
      <point x="139" y="-109"/>
      <point x="197" y="-54"/>
      <point x="197" y="30" type="curve"/>
      <point x="197" y="83"/>
      <point x="173" y="125"/>
      <point x="128" y="125" type="curve"/>
      <point x="94" y="125"/>
      <point x="70" y="109"/>
      <point x="70" y="77" type="curve"/>
      <point x="70" y="45"/>
      <point x="94" y="28"/>
      <point x="129" y="26" type="curve"/>
      <point x="128" y="-10"/>
      <point x="112" y="-51"/>
      <point x="53" y="-69" type="curve"/>
    </contour>
  </outline>
</glyph>
<glyph name="hyphen" format="1">
  <advance width="534"/>
  <unicode hex="002D"/>
  <outline>
    <contour>
      <point x="83" y="239" type="curve"/>
      <point x="205" y="239"/>
      <point x="328" y="239"/>
      <point x="451" y="239" type="curve"/>
      <point x="451" y="318"/>
      <point x="451" y="239"/>
      <point x="451" y="318" type="curve"/>
      <point x="328" y="318"/>
      <point x="205" y="318"/>
      <point x="83" y="318" type="curve"/>
      <point x="83" y="239"/>
      <point x="83" y="318"/>
    </contour>
  </outline>
</glyph>
<glyph name="period" format="1">
  <advance width="271"/>
  <unicode hex="002E"/>
  <outline>
    <contour>
      <point x="194" y="40" type="curve"/>
      <point x="194" y="73"/>
      <point x="168" y="89"/>
      <point x="134" y="89" type="curve"/>
      <point x="100" y="89"/>
      <point x="77" y="71"/>
      <point x="77" y="40" type="curve"/>
      <point x="77" y="8"/>
      <point x="100" y="-8"/>
      <point x="134" y="-8" type="curve"/>
      <point x="169" y="-8"/>
      <point x="194" y="7"/>
    </contour>
  </outline>
</glyph>
<glyph name="slash" format="1">
  <advance width="702"/>
  <unicode hex="002F"/>
  <outline>
    <contour>
      <point x="130" y="-36" type="curve"/>
      <point x="309" y="245"/>
      <point x="489" y="527"/>
      <point x="668" y="808" type="curve"/>
      <point x="572" y="808"/>
      <point x="668" y="808"/>
      <point x="572" y="808" type="curve"/>
      <point x="393" y="527"/>
      <point x="214" y="245"/>
      <point x="34" y="-36" type="curve"/>
      <point x="130" y="-36"/>
      <point x="34" y="-36"/>
    </contour>
  </outline>
</glyph>
<glyph name="zero" format="1">
  <advance width="902"/>
  <unicode hex="0030"/>
  <outline>
    <contour>
      <point x="453" y="-5" type="curve"/>
      <point x="690" y="-5"/>
      <point x="836" y="129"/>
      <point x="836" y="363" type="curve"/>
      <point x="836" y="594"/>
      <point x="691" y="727"/>
      <point x="457" y="727" type="curve"/>
      <point x="217" y="727"/>
      <point x="65" y="595"/>
      <point x="65" y="360" type="curve"/>
      <point x="65" y="127"/>
      <point x="215" y="-5"/>
    </contour>
    <contour>
      <point x="449" y="651" type="curve"/>
      <point x="629" y="651"/>
      <point x="738" y="544"/>
      <point x="738" y="363" type="curve"/>
      <point x="738" y="181"/>
      <point x="634" y="72"/>
      <point x="457" y="72" type="curve"/>
      <point x="274" y="72"/>
      <point x="163" y="177"/>
      <point x="163" y="360" type="curve"/>
      <point x="163" y="542"/>
      <point x="268" y="651"/>
    </contour>
  </outline>
</glyph>
<glyph name="one" format="1">
  <advance width="542"/>
  <unicode hex="0031"/>
  <outline>
    <contour>
      <point x="150" y="0" type="line"/>
      <point x="504" y="0" type="line"/>
      <point x="504" y="72" type="line"/>
      <point x="372" y="72" type="line"/>
      <point x="372" y="722" type="line"/>
      <point x="277" y="722" type="line"/>
      <point x="155" y="642" type="line" smooth="yes"/>
      <point x="33" y="561" type="line"/>
      <point x="55" y="529" type="line" smooth="yes"/>
      <point x="76" y="496" type="line"/>
      <point x="212" y="585" type="line" smooth="yes"/>
      <point x="277" y="627" type="line"/>
      <point x="277" y="72" type="line"/>
      <point x="150" y="72" type="line"/>
    </contour>
  </outline>
</glyph>
<glyph name="two" format="1">
  <advance width="742"/>
  <unicode hex="0032"/>
  <outline>
    <contour>
      <point x="671" y="72" type="curve"/>
      <point x="671" y="191"/>
      <point x="671" y="71"/>
      <point x="671" y="190" type="curve"/>
      <point x="596" y="190"/>
      <point x="671" y="190"/>
      <point x="596" y="190" type="curve"/>
      <point x="596" y="71"/>
      <point x="596" y="191"/>
      <point x="596" y="72" type="curve"/>
      <point x="671" y="72"/>
      <point x="596" y="72"/>
    </contour>
    <contour>
      <point x="53" y="0" type="curve"/>
      <point x="285" y="0"/>
      <point x="480" y="0"/>
      <point x="671" y="0" type="curve"/>
      <point x="671" y="72"/>
      <point x="671" y="0"/>
      <point x="671" y="72" type="curve"/>
      <point x="465" y="72"/>
      <point x="259" y="72"/>
      <point x="53" y="72" type="curve"/>
      <point x="53" y="0"/>
      <point x="53" y="72"/>
    </contour>
    <contour>
      <point x="134" y="531" type="curve"/>
      <point x="200" y="610"/>
      <point x="262" y="651"/>
      <point x="356" y="651" type="curve"/>
      <point x="460" y="651"/>
      <point x="537" y="612"/>
      <point x="537" y="513" type="curve"/>
      <point x="537" y="398"/>
      <point x="442" y="336"/>
      <point x="336" y="266" type="curve"/>
      <point x="241" y="201"/>
      <point x="147" y="137"/>
      <point x="53" y="72" type="curve"/>
      <point x="58" y="0"/>
      <point x="53" y="72"/>
      <point x="58" y="0" type="curve"/>
      <point x="200" y="69"/>
      <point x="296" y="140"/>
      <point x="396" y="209" type="curve"/>
      <point x="524" y="292"/>
      <point x="626" y="363"/>
      <point x="626" y="516" type="curve"/>
      <point x="626" y="664"/>
      <point x="517" y="727"/>
      <point x="361" y="727" type="curve"/>
      <point x="234" y="727"/>
      <point x="138" y="678"/>
      <point x="70" y="576" type="curve"/>
      <point x="134" y="531"/>
      <point x="70" y="576"/>
    </contour>
  </outline>
</glyph>
<glyph name="three" format="1">
  <advance width="673"/>
  <unicode hex="0033"/>
  <outline>
    <contour>
      <point x="610" y="211" type="curve"/>
      <point x="610" y="303"/>
      <point x="540" y="356"/>
      <point x="430" y="383" type="curve"/>
      <point x="514" y="411"/>
      <point x="568" y="460"/>
      <point x="568" y="541" type="curve"/>
      <point x="568" y="680"/>
      <point x="451" y="727"/>
      <point x="298" y="727" type="curve"/>
      <point x="198" y="727"/>
      <point x="108" y="688"/>
      <point x="58" y="642" type="curve"/>
      <point x="83" y="614" type="line" smooth="yes"/>
      <point x="107" y="586" type="line"/>
      <point x="151" y="622"/>
      <point x="220" y="650"/>
      <point x="291" y="650" type="curve"/>
      <point x="395" y="650"/>
      <point x="476" y="630"/>
      <point x="476" y="538" type="curve"/>
      <point x="476" y="443"/>
      <point x="335" y="414"/>
      <point x="190" y="414" type="curve"/>
      <point x="190" y="345" type="line"/>
      <point x="352" y="345"/>
      <point x="518" y="316"/>
      <point x="518" y="208" type="curve"/>
      <point x="518" y="91"/>
      <point x="408" y="72"/>
      <point x="298" y="72" type="curve"/>
      <point x="233" y="72"/>
      <point x="169" y="87"/>
      <point x="96" y="118" type="curve"/>
      <point x="75" y="87" type="line" smooth="yes"/>
      <point x="54" y="55" type="line"/>
      <point x="121" y="18"/>
      <point x="199" y="-5"/>
      <point x="295" y="-5" type="curve"/>
      <point x="474" y="-5"/>
      <point x="610" y="42"/>
    </contour>
  </outline>
</glyph>
<glyph name="four" format="1">
  <advance width="769"/>
  <unicode hex="0034"/>
  <outline>
    <contour>
      <point x="315" y="0" type="line"/>
      <point x="628" y="0" type="line"/>
      <point x="628" y="72" type="line"/>
      <point x="521" y="72" type="line"/>
      <point x="521" y="242" type="line"/>
      <point x="723" y="242" type="line"/>
      <point x="723" y="322" type="line"/>
      <point x="521" y="322" type="line"/>
      <point x="521" y="708" type="line"/>
      <point x="426" y="708" type="line"/>
      <point x="36" y="322" type="line"/>
      <point x="36" y="242" type="line"/>
      <point x="426" y="242" type="line"/>
      <point x="426" y="72" type="line"/>
      <point x="315" y="72" type="line"/>
    </contour>
    <contour>
      <point x="426" y="322" type="line"/>
      <point x="144" y="322" type="line"/>
      <point x="426" y="602" type="line"/>
    </contour>
  </outline>
</glyph>
<glyph name="six" format="1">
  <advance width="736"/>
  <unicode hex="0036"/>
  <outline>
    <contour>
      <point x="671" y="216" type="curve"/>
      <point x="671" y="368"/>
      <point x="552" y="433"/>
      <point x="391" y="433" type="curve"/>
      <point x="303" y="433"/>
      <point x="228" y="407"/>
      <point x="169" y="363" type="curve"/>
      <point x="226" y="540"/>
      <point x="428" y="607"/>
      <point x="659" y="660" type="curve"/>
      <point x="649" y="696" type="line" smooth="yes"/>
      <point x="638" y="732" type="line"/>
      <point x="335" y="669"/>
      <point x="60" y="557"/>
      <point x="60" y="248" type="curve"/>
      <point x="60" y="74"/>
      <point x="194" y="-9"/>
      <point x="381" y="-9" type="curve"/>
      <point x="550" y="-9"/>
      <point x="671" y="61"/>
    </contour>
    <contour>
      <point x="152" y="249" type="curve"/>
      <point x="205" y="326"/>
      <point x="284" y="357"/>
      <point x="384" y="357" type="curve"/>
      <point x="494" y="357"/>
      <point x="575" y="317"/>
      <point x="575" y="215" type="curve"/>
      <point x="575" y="116"/>
      <point x="493" y="76"/>
      <point x="386" y="76" type="curve"/>
      <point x="252" y="76"/>
      <point x="154" y="130"/>
    </contour>
  </outline>
</glyph>
<glyph name="seven" format="1">
  <advance width="683"/>
  <unicode hex="0037"/>
  <outline>
    <contour>
      <point x="130" y="533" type="curve"/>
      <point x="130" y="651" type="curve"/>
      <point x="55" y="651" type="curve"/>
      <point x="55" y="533" type="curve"/>
    </contour>
    <contour>
      <point x="55" y="650" type="curve"/>
      <point x="662" y="650" type="curve"/>
      <point x="662" y="722" type="curve"/>
      <point x="55" y="722" type="curve"/>
    </contour>
    <contour>
      <point x="604" y="722" type="curve"/>
      <point x="96" y="0" type="curve"/>
      <point x="207" y="0" type="curve"/>
      <point x="662" y="650" type="curve"/>
    </contour>
  </outline>
</glyph>
<glyph name="eight" format="1">
  <advance width="714"/>
  <unicode hex="0038"/>
  <outline>
    <contour>
      <point x="90" y="547" type="curve"/>
      <point x="90" y="419"/>
      <point x="203" y="398"/>
      <point x="330" y="353" type="curve"/>
      <point x="445" y="310"/>
      <point x="552" y="295"/>
      <point x="552" y="184" type="curve"/>
      <point x="552" y="92"/>
      <point x="466" y="69"/>
      <point x="356" y="69" type="curve"/>
      <point x="246" y="69"/>
      <point x="162" y="92"/>
      <point x="162" y="184" type="curve"/>
      <point x="162" y="297"/>
      <point x="272" y="310"/>
      <point x="389" y="353" type="curve"/>
      <point x="512" y="401"/>
      <point x="623" y="419"/>
      <point x="623" y="546" type="curve"/>
      <point x="623" y="685"/>
      <point x="513" y="727"/>
      <point x="356" y="727" type="curve"/>
      <point x="204" y="727"/>
      <point x="90" y="682"/>
      <point x="90" y="547" type="curve"/>
      <point x="186" y="547"/>
      <point x="90" y="547"/>
      <point x="186" y="547" type="curve"/>
      <point x="186" y="628"/>
      <point x="258" y="653"/>
      <point x="352" y="653" type="curve"/>
      <point x="453" y="653"/>
      <point x="528" y="631"/>
      <point x="528" y="546" type="curve"/>
      <point x="528" y="448"/>
      <point x="430" y="440"/>
      <point x="328" y="403" type="curve"/>
      <point x="188" y="351"/>
      <point x="66" y="326"/>
      <point x="66" y="184" type="curve"/>
      <point x="66" y="39"/>
      <point x="188" y="-5"/>
      <point x="352" y="-5" type="curve"/>
      <point x="520" y="-5"/>
      <point x="648" y="35"/>
      <point x="648" y="184" type="curve"/>
      <point x="648" y="324"/>
      <point x="526" y="352"/>
      <point x="389" y="403" type="curve"/>
      <point x="286" y="442"/>
      <point x="186" y="450"/>
      <point x="186" y="547" type="curve"/>
      <point x="90" y="547"/>
      <point x="186" y="547"/>
    </contour>
  </outline>
</glyph>
<glyph name="nine" format="1">
  <advance width="737"/>
  <unicode hex="0039"/>
  <outline>
    <contour>
      <point x="676" y="474" type="curve"/>
      <point x="676" y="648"/>
      <point x="543" y="731"/>
      <point x="356" y="731" type="curve"/>
      <point x="187" y="731"/>
      <point x="66" y="661"/>
      <point x="66" y="506" type="curve"/>
      <point x="66" y="354"/>
      <point x="188" y="289"/>
      <point x="354" y="289" type="curve"/>
      <point x="443" y="289"/>
      <point x="514" y="312"/>
      <point x="568" y="359" type="curve"/>
      <point x="512" y="181"/>
      <point x="315" y="109"/>
      <point x="80" y="66" type="curve"/>
      <point x="89" y="34"/>
      <point x="90" y="29"/>
      <point x="90" y="28" type="curve" smooth="yes"/>
      <point x="90" y="27"/>
      <point x="91" y="22"/>
      <point x="100" y="-10" type="curve"/>
      <point x="419" y="38"/>
      <point x="676" y="165"/>
    </contour>
    <contour>
      <point x="161" y="510" type="curve"/>
      <point x="161" y="608"/>
      <point x="244" y="646"/>
      <point x="351" y="646" type="curve"/>
      <point x="486" y="646"/>
      <point x="584" y="593"/>
      <point x="584" y="470" type="curve"/>
      <point x="532" y="395"/>
      <point x="461" y="365"/>
      <point x="362" y="365" type="curve"/>
      <point x="247" y="365"/>
      <point x="161" y="405"/>
    </contour>
  </outline>
</glyph>
<glyph name="colon" format="1">
  <advance width="283"/>
  <unicode hex="003A"/>
  <outline>
    <contour>
      <point x="200" y="224" type="curve"/>
      <point x="200" y="257"/>
      <point x="175" y="273"/>
      <point x="140" y="273" type="curve"/>
      <point x="107" y="273"/>
      <point x="84" y="255"/>
      <point x="84" y="224" type="curve"/>
      <point x="190" y="224"/>
      <point x="94" y="224"/>
      <point x="200" y="224" type="curve"/>
      <point x="200" y="191"/>
      <point x="175" y="176"/>
      <point x="140" y="176" type="curve"/>
      <point x="106" y="176"/>
      <point x="84" y="192"/>
      <point x="84" y="224" type="curve"/>
      <point x="190" y="224"/>
      <point x="94" y="224"/>
    </contour>
    <contour>
      <point x="199" y="216" type="curve"/>
      <point x="199" y="249"/>
      <point x="174" y="265"/>
      <point x="140" y="265" type="curve"/>
      <point x="106" y="265"/>
      <point x="83" y="247"/>
      <point x="83" y="216" type="curve"/>
      <point x="189" y="216"/>
      <point x="93" y="216"/>
      <point x="199" y="216" type="curve"/>
      <point x="199" y="183"/>
      <point x="174" y="168"/>
      <point x="140" y="168" type="curve"/>
      <point x="106" y="168"/>
      <point x="83" y="184"/>
      <point x="83" y="216" type="curve"/>
      <point x="189" y="216"/>
      <point x="93" y="216"/>
    </contour>
  </outline>
</glyph>
<glyph name="semicolon" format="1">
  <advance width="312"/>
  <unicode hex="003B"/>
  <outline>
    <contour>
      <point x="79" y="-130" type="line"/>
      <point x="170" y="-130"/>
      <point x="224" y="-66"/>
      <point x="224" y="15" type="curve"/>
      <point x="224" y="72"/>
      <point x="199" y="118"/>
      <point x="154" y="118" type="curve"/>
      <point x="120" y="118"/>
      <point x="96" y="102"/>
      <point x="96" y="70" type="curve"/>
      <point x="96" y="38"/>
      <point x="119" y="21"/>
      <point x="155" y="19" type="curve"/>
      <point x="154" y="-18"/>
      <point x="145" y="-71"/>
      <point x="79" y="-76" type="curve"/>
    </contour>
    <contour>
      <point x="210" y="400" type="curve"/>
      <point x="210" y="432"/>
      <point x="185" y="448"/>
      <point x="151" y="448" type="curve"/>
      <point x="117" y="448"/>
      <point x="94" y="431"/>
      <point x="94" y="400" type="curve"/>
      <point x="200" y="400"/>
      <point x="104" y="400"/>
      <point x="210" y="400" type="curve"/>
      <point x="210" y="367"/>
      <point x="185" y="352"/>
      <point x="151" y="352" type="curve"/>
      <point x="117" y="352"/>
      <point x="94" y="368"/>
      <point x="94" y="400" type="curve"/>
      <point x="200" y="400"/>
      <point x="104" y="400"/>
    </contour>
  </outline>
</glyph>
<glyph name="less" format="1">
  <advance width="891"/>
  <unicode hex="003C"/>
  <outline>
    <contour>
      <point x="825" y="-4" type="curve"/>
      <point x="825" y="76" type="line"/>
      <point x="159" y="301" type="line"/>
      <point x="377" y="377"/>
      <point x="595" y="454"/>
      <point x="812" y="530" type="curve"/>
      <point x="812" y="610" type="line"/>
      <point x="556" y="520"/>
      <point x="299" y="430"/>
      <point x="42" y="340" type="curve"/>
      <point x="42" y="260" type="line"/>
      <point x="304" y="172"/>
      <point x="564" y="84"/>
    </contour>
  </outline>
</glyph>
<glyph name="equal" format="1">
  <advance width="969"/>
  <unicode hex="003D"/>
  <outline>
    <contour>
      <point x="882" y="402" type="line"/>
      <point x="882" y="477" type="line"/>
      <point x="87" y="477" type="line"/>
      <point x="87" y="402" type="line"/>
    </contour>
    <contour>
      <point x="882" y="180" type="line"/>
      <point x="882" y="255" type="line"/>
      <point x="87" y="255" type="line"/>
      <point x="87" y="180" type="line"/>
    </contour>
  </outline>
</glyph>
<glyph name="greater" format="1">
  <advance width="891"/>
  <unicode hex="003E"/>
  <outline>
    <contour>
      <point x="79" y="-4" type="curve"/>
      <point x="335" y="86"/>
      <point x="592" y="176"/>
      <point x="849" y="266" type="curve"/>
      <point x="849" y="346"/>
      <point x="849" y="266"/>
      <point x="849" y="346" type="curve"/>
      <point x="592" y="256"/>
      <point x="335" y="166"/>
      <point x="79" y="76" type="curve"/>
      <point x="79" y="-4"/>
      <point x="79" y="76"/>
    </contour>
    <contour>
      <point x="66" y="530" type="curve"/>
      <point x="327" y="442"/>
      <point x="588" y="354"/>
      <point x="849" y="266" type="curve"/>
      <point x="849" y="346"/>
      <point x="849" y="266"/>
      <point x="849" y="346" type="curve"/>
      <point x="588" y="434"/>
      <point x="327" y="522"/>
      <point x="66" y="610" type="curve"/>
      <point x="66" y="530"/>
      <point x="66" y="610"/>
    </contour>
  </outline>
</glyph>
<glyph name="question" format="1">
  <advance width="614"/>
  <unicode hex="003F"/>
  <outline>
    <contour>
      <point x="313" y="221" type="line"/>
      <point x="313" y="294" type="line"/>
      <point x="454" y="314"/>
      <point x="555" y="388"/>
      <point x="555" y="519" type="curve"/>
      <point x="555" y="664"/>
      <point x="436" y="735"/>
      <point x="281" y="735" type="curve"/>
      <point x="188" y="735"/>
      <point x="113" y="704"/>
      <point x="51" y="649" type="curve"/>
      <point x="101" y="593" type="line"/>
      <point x="141" y="629"/>
      <point x="205" y="660"/>
      <point x="276" y="660" type="curve"/>
      <point x="381" y="660"/>
      <point x="463" y="617"/>
      <point x="463" y="519" type="curve"/>
      <point x="463" y="410"/>
      <point x="360" y="360"/>
      <point x="227" y="360" type="curve"/>
      <point x="218" y="360" type="line"/>
      <point x="218" y="221" type="line"/>
    </contour>
    <contour>
      <point x="323" y="17" type="curve"/>
      <point x="323" y="49"/>
      <point x="299" y="64"/>
      <point x="266" y="64" type="curve"/>
      <point x="233" y="64"/>
      <point x="211" y="47"/>
      <point x="211" y="17" type="curve"/>
      <point x="211" y="-13"/>
      <point x="232" y="-29"/>
      <point x="265" y="-29" type="curve"/>
      <point x="299" y="-29"/>
      <point x="323" y="-15"/>
    </contour>
  </outline>
</glyph>
<glyph name="at" format="1">
  <advance width="1038"/>
  <unicode hex="0040"/>
  <outline>
    <contour>
      <point x="758" y="-94" type="curve"/>
      <point x="742" y="-64" type="line" smooth="yes"/>
      <point x="726" y="-33" type="line"/>
      <point x="656" y="-59"/>
      <point x="607" y="-66"/>
      <point x="536" y="-66" type="curve"/>
      <point x="311" y="-66"/>
      <point x="149" y="12"/>
      <point x="149" y="215" type="curve"/>
      <point x="149" y="414"/>
      <point x="311" y="489"/>
      <point x="530" y="489" type="curve"/>
      <point x="737" y="489"/>
      <point x="885" y="408"/>
      <point x="885" y="218" type="curve"/>
      <point x="885" y="153"/>
      <point x="869" y="103"/>
      <point x="813" y="103" type="curve"/>
      <point x="754" y="103"/>
      <point x="730" y="153"/>
      <point x="730" y="220" type="curve"/>
      <point x="730" y="342"/>
      <point x="644" y="405"/>
      <point x="517" y="405" type="curve"/>
      <point x="377" y="405"/>
      <point x="283" y="347"/>
      <point x="283" y="218" type="curve"/>
      <point x="283" y="89"/>
      <point x="371" y="23"/>
      <point x="505" y="23" type="curve"/>
      <point x="580" y="23"/>
      <point x="636" y="50"/>
      <point x="672" y="100" type="curve"/>
      <point x="699" y="59"/>
      <point x="743" y="35"/>
      <point x="805" y="35" type="curve"/>
      <point x="917" y="35"/>
      <point x="976" y="107"/>
      <point x="976" y="222" type="curve"/>
      <point x="976" y="460"/>
      <point x="792" y="564"/>
      <point x="535" y="564" type="curve"/>
      <point x="258" y="564"/>
      <point x="59" y="464"/>
      <point x="59" y="212" type="curve"/>
      <point x="59" y="-38"/>
      <point x="256" y="-139"/>
      <point x="531" y="-139" type="curve"/>
      <point x="621" y="-139"/>
      <point x="689" y="-124"/>
    </contour>
    <contour>
      <point x="374" y="222" type="curve"/>
      <point x="374" y="298"/>
      <point x="429" y="333"/>
      <point x="508" y="333" type="curve"/>
      <point x="590" y="333"/>
      <point x="643" y="295"/>
      <point x="643" y="217" type="curve"/>
      <point x="643" y="207"/>
      <point x="643" y="198"/>
      <point x="644" y="189" type="curve"/>
      <point x="621" y="130"/>
      <point x="583" y="95"/>
      <point x="518" y="95" type="curve"/>
      <point x="431" y="95"/>
      <point x="374" y="138"/>
    </contour>
  </outline>
</glyph>
<glyph name="B" format="1">
  <advance width="833"/>
  <unicode hex="0042"/>
  <outline>
    <contour>
      <point x="60" y="0" type="line"/>
      <point x="478" y="0" type="line"/>
      <point x="650" y="0"/>
      <point x="775" y="60"/>
      <point x="775" y="216" type="curve"/>
      <point x="775" y="318"/>
      <point x="711" y="377"/>
      <point x="624" y="409" type="curve"/>
      <point x="678" y="435"/>
      <point x="716" y="476"/>
      <point x="716" y="541" type="curve"/>
      <point x="716" y="667"/>
      <point x="616" y="722"/>
      <point x="480" y="722" type="curve"/>
      <point x="61" y="722" type="line"/>
      <point x="61" y="650" type="line"/>
      <point x="171" y="650" type="line"/>
      <point x="171" y="72" type="line"/>
      <point x="60" y="72" type="line"/>
    </contour>
    <contour>
      <point x="479" y="650" type="line"/>
      <point x="559" y="650"/>
      <point x="620" y="617"/>
      <point x="620" y="541" type="curve"/>
      <point x="620" y="462"/>
      <point x="532" y="443"/>
      <point x="445" y="443" type="curve"/>
      <point x="271" y="443" type="line"/>
      <point x="271" y="650" type="line"/>
    </contour>
    <contour>
      <point x="445" y="370" type="line"/>
      <point x="572" y="370"/>
      <point x="679" y="333"/>
      <point x="679" y="216" type="curve"/>
      <point x="679" y="111"/>
      <point x="594" y="72"/>
      <point x="477" y="72" type="curve"/>
      <point x="271" y="72" type="line"/>
      <point x="271" y="370" type="line"/>
    </contour>
  </outline>
</glyph>
<glyph name="C" format="1">
  <advance width="869"/>
  <unicode hex="0043"/>
  <outline>
    <contour>
      <point x="798" y="123" type="line" smooth="yes"/>
      <point x="778" y="153" type="line"/>
      <point x="675" y="93"/>
      <point x="594" y="72"/>
      <point x="479" y="72" type="curve"/>
      <point x="287" y="72"/>
      <point x="159" y="164"/>
      <point x="159" y="348" type="curve"/>
      <point x="159" y="546"/>
      <point x="295" y="652"/>
      <point x="500" y="652" type="curve"/>
      <point x="584" y="652"/>
      <point x="660" y="637"/>
      <point x="731" y="607" type="curve"/>
      <point x="731" y="511" type="line"/>
      <point x="806" y="511" type="line"/>
      <point x="806" y="654" type="line"/>
      <point x="713" y="696"/>
      <point x="615" y="727"/>
      <point x="505" y="727" type="curve"/>
      <point x="241" y="727"/>
      <point x="63" y="598"/>
      <point x="63" y="344" type="curve"/>
      <point x="63" y="110"/>
      <point x="229" y="-5"/>
      <point x="475" y="-5" type="curve"/>
      <point x="619" y="-5"/>
      <point x="709" y="24"/>
      <point x="818" y="92" type="curve"/>
    </contour>
    <contour>
      <point x="494" y="801" type="move" name="top"/>
    </contour>
    <contour>
      <point x="493" y="7" type="move" name="bottom"/>
    </contour>
  </outline>
</glyph>
<glyph name="D" format="1">
  <advance width="969"/>
  <unicode hex="0044"/>
  <outline>
    <contour>
      <point x="223" y="72" type="curve"/>
      <point x="60" y="72"/>
      <point x="224" y="72"/>
      <point x="61" y="72" type="curve"/>
      <point x="61" y="0"/>
      <point x="61" y="72"/>
      <point x="61" y="0" type="curve"/>
      <point x="115" y="0"/>
      <point x="169" y="0"/>
      <point x="223" y="0" type="curve"/>
      <point x="223" y="72"/>
      <point x="223" y="0"/>
    </contour>
    <contour>
      <point x="223" y="722" type="curve"/>
      <point x="169" y="722"/>
      <point x="115" y="722"/>
      <point x="61" y="722" type="curve"/>
      <point x="61" y="650"/>
      <point x="61" y="722"/>
      <point x="61" y="650" type="curve"/>
      <point x="224" y="650"/>
      <point x="60" y="650"/>
      <point x="223" y="650" type="curve"/>
      <point x="223" y="722"/>
      <point x="223" y="650"/>
    </contour>
    <contour>
      <point x="173" y="722" type="curve"/>
      <point x="173" y="481"/>
      <point x="173" y="241"/>
      <point x="173" y="0" type="curve"/>
      <point x="269" y="0"/>
      <point x="173" y="0"/>
      <point x="269" y="0" type="curve"/>
      <point x="269" y="241"/>
      <point x="269" y="481"/>
      <point x="269" y="722" type="curve"/>
      <point x="173" y="722"/>
      <point x="269" y="722"/>
    </contour>
    <contour>
      <point x="223" y="0" type="curve"/>
      <point x="306" y="0"/>
      <point x="389" y="0"/>
      <point x="472" y="0" type="curve"/>
      <point x="739" y="0"/>
      <point x="907" y="103"/>
      <point x="907" y="352" type="curve"/>
      <point x="907" y="612"/>
      <point x="736" y="722"/>
      <point x="461" y="722" type="curve"/>
      <point x="381" y="722"/>
      <point x="303" y="722"/>
      <point x="223" y="722" type="curve"/>
      <point x="223" y="650"/>
      <point x="223" y="721"/>
      <point x="223" y="650" type="curve"/>
      <point x="301" y="650"/>
      <point x="378" y="650"/>
      <point x="455" y="650" type="curve"/>
      <point x="677" y="650"/>
      <point x="812" y="559"/>
      <point x="812" y="350" type="curve"/>
      <point x="812" y="156"/>
      <point x="685" y="72"/>
      <point x="480" y="72" type="curve"/>
      <point x="394" y="72"/>
      <point x="309" y="72"/>
      <point x="223" y="72" type="curve"/>
      <point x="223" y="1"/>
      <point x="223" y="72"/>
    </contour>
    <contour>
      <point x="447" y="801" type="move" name="top"/>
    </contour>
  </outline>
</glyph>
<glyph name="E" format="1">
  <advance width="811"/>
  <unicode hex="0045"/>
  <outline>
    <contour>
      <point x="61" y="0" type="line"/>
      <point x="763" y="0" type="line"/>
      <point x="763" y="155" type="line"/>
      <point x="689" y="155" type="line"/>
      <point x="689" y="72" type="line"/>
      <point x="269" y="72" type="line"/>
      <point x="269" y="337" type="line"/>
      <point x="641" y="337" type="line"/>
      <point x="641" y="409" type="line"/>
      <point x="269" y="409" type="line"/>
      <point x="269" y="650" type="line"/>
      <point x="646" y="650" type="line"/>
      <point x="646" y="567" type="line"/>
      <point x="721" y="567" type="line"/>
      <point x="721" y="722" type="line"/>
      <point x="61" y="722" type="line"/>
      <point x="61" y="650" type="line"/>
      <point x="173" y="650" type="line"/>
      <point x="173" y="72" type="line"/>
      <point x="61" y="72" type="line"/>
    </contour>
    <contour>
      <point x="417" y="801" type="move" name="top"/>
    </contour>
    <contour>
      <point x="717" y="10" type="move" name="bottom"/>
    </contour>
  </outline>
</glyph>
<glyph name="F" format="1">
  <advance width="767"/>
  <unicode hex="0046"/>
  <outline>
    <contour>
      <point x="222" y="0" type="curve"/>
      <point x="276" y="0"/>
      <point x="222" y="0"/>
      <point x="385" y="0" type="curve"/>
      <point x="385" y="72"/>
      <point x="385" y="0"/>
      <point x="385" y="72" type="curve"/>
      <point x="222" y="72"/>
      <point x="385" y="72"/>
      <point x="222" y="72" type="curve"/>
      <point x="222" y="0"/>
      <point x="222" y="72"/>
    </contour>
    <contour>
      <point x="222" y="722" type="curve"/>
      <point x="168" y="722"/>
      <point x="114" y="722"/>
      <point x="60" y="722" type="curve"/>
      <point x="60" y="650"/>
      <point x="60" y="722"/>
      <point x="60" y="650" type="curve"/>
      <point x="223" y="650"/>
      <point x="59" y="650"/>
      <point x="222" y="650" type="curve"/>
      <point x="222" y="722"/>
      <point x="222" y="650"/>
    </contour>
    <contour>
      <point x="222" y="72" type="curve"/>
      <point x="59" y="72"/>
      <point x="223" y="72"/>
      <point x="60" y="72" type="curve"/>
      <point x="60" y="0"/>
      <point x="60" y="72"/>
      <point x="60" y="0" type="curve"/>
      <point x="114" y="0"/>
      <point x="168" y="0"/>
      <point x="222" y="0" type="curve"/>
      <point x="222" y="72"/>
      <point x="222" y="0"/>
    </contour>
    <contour>
      <point x="651" y="686" type="curve"/>
      <point x="651" y="566"/>
      <point x="651" y="687"/>
      <point x="651" y="567" type="curve"/>
      <point x="726" y="567"/>
      <point x="651" y="567"/>
      <point x="726" y="567" type="curve"/>
      <point x="726" y="687"/>
      <point x="726" y="566"/>
      <point x="726" y="686" type="curve"/>
      <point x="651" y="686"/>
      <point x="726" y="686"/>
    </contour>
    <contour>
      <point x="227" y="337" type="curve"/>
      <point x="363" y="337"/>
      <point x="499" y="337"/>
      <point x="634" y="337" type="curve"/>
      <point x="634" y="409"/>
      <point x="634" y="337"/>
      <point x="634" y="409" type="curve"/>
      <point x="499" y="409"/>
      <point x="363" y="409"/>
      <point x="227" y="409" type="curve"/>
      <point x="227" y="337"/>
      <point x="227" y="409"/>
    </contour>
    <contour>
      <point x="270" y="0" type="curve"/>
      <point x="270" y="722" type="line"/>
      <point x="174" y="722"/>
      <point x="270" y="722"/>
      <point x="174" y="722" type="curve"/>
      <point x="174" y="481"/>
      <point x="174" y="241"/>
      <point x="174" y="0" type="curve"/>
      <point x="270" y="0"/>
      <point x="174" y="0"/>
    </contour>
    <contour>
      <point x="208" y="650" type="curve"/>
      <point x="381" y="650"/>
      <point x="553" y="650"/>
      <point x="726" y="650" type="curve"/>
      <point x="726" y="722"/>
      <point x="726" y="650"/>
      <point x="726" y="722" type="curve"/>
      <point x="553" y="722"/>
      <point x="381" y="722"/>
      <point x="208" y="722" type="curve"/>
      <point x="208" y="650"/>
      <point x="208" y="722"/>
    </contour>
  </outline>
</glyph>
<glyph name="G" format="1">
  <advance width="971"/>
  <unicode hex="0047"/>
  <outline>
    <contour>
      <point x="802" y="644" type="curve"/>
      <point x="802" y="523"/>
      <point x="802" y="625"/>
      <point x="802" y="504" type="curve"/>
      <point x="876" y="504"/>
      <point x="802" y="504"/>
      <point x="876" y="504" type="curve"/>
      <point x="876" y="625"/>
      <point x="876" y="523"/>
      <point x="876" y="644" type="curve"/>
      <point x="802" y="644"/>
      <point x="876" y="644"/>
    </contour>
    <contour>
      <point x="871" y="348" type="curve"/>
      <point x="779" y="348"/>
      <point x="686" y="348"/>
      <point x="593" y="348" type="curve"/>
      <point x="593" y="276"/>
      <point x="593" y="348"/>
      <point x="593" y="276" type="curve"/>
      <point x="686" y="276"/>
      <point x="779" y="276"/>
      <point x="871" y="276" type="curve"/>
      <point x="871" y="348"/>
      <point x="871" y="276"/>
    </contour>
    <contour>
      <point x="898" y="78" type="curve"/>
      <point x="898" y="168"/>
      <point x="898" y="258"/>
      <point x="898" y="348" type="curve"/>
      <point x="811" y="348"/>
      <point x="898" y="348"/>
      <point x="811" y="348" type="curve"/>
      <point x="811" y="258"/>
      <point x="811" y="168"/>
      <point x="811" y="78" type="curve"/>
      <point x="898" y="78"/>
      <point x="811" y="78"/>
    </contour>
    <contour>
      <point x="876" y="644" type="curve"/>
      <point x="754" y="703"/>
      <point x="647" y="727"/>
      <point x="511" y="727" type="curve"/>
      <point x="246" y="727"/>
      <point x="62" y="612"/>
      <point x="62" y="362" type="curve"/>
      <point x="62" y="107"/>
      <point x="253" y="-5"/>
      <point x="525" y="-5" type="curve"/>
      <point x="671" y="-5"/>
      <point x="765" y="21"/>
      <point x="898" y="78" type="curve"/>
      <point x="850" y="132"/>
      <point x="898" y="78"/>
      <point x="850" y="132" type="curve"/>
      <point x="736" y="84"/>
      <point x="649" y="71"/>
      <point x="525" y="71" type="curve"/>
      <point x="308" y="71"/>
      <point x="158" y="164"/>
      <point x="158" y="369" type="curve"/>
      <point x="158" y="563"/>
      <point x="304" y="652"/>
      <point x="511" y="652" type="curve"/>
      <point x="629" y="652"/>
      <point x="722" y="633"/>
      <point x="829" y="583" type="curve"/>
      <point x="876" y="644"/>
      <point x="829" y="583"/>
    </contour>
    <contour>
      <point x="512" y="801" type="move" name="top"/>
    </contour>
    <contour>
      <point x="556" y="6" type="move" name="bottom"/>
    </contour>
  </outline>
</glyph>
<glyph name="H" format="1">
  <advance width="1051"/>
  <unicode hex="0048"/>
  <outline>
    <contour>
      <point x="845" y="650" type="curve"/>
      <point x="1023" y="650"/>
      <point x="830" y="650"/>
      <point x="1008" y="650" type="curve"/>
      <point x="1008" y="722"/>
      <point x="1008" y="650"/>
      <point x="1008" y="722" type="curve"/>
      <point x="948" y="722"/>
      <point x="904" y="722"/>
      <point x="845" y="722" type="curve"/>
      <point x="845" y="650"/>
      <point x="845" y="722"/>
    </contour>
    <contour>
      <point x="845" y="0" type="curve"/>
      <point x="904" y="0"/>
      <point x="948" y="0"/>
      <point x="1008" y="0" type="curve"/>
      <point x="1008" y="72"/>
      <point x="1008" y="0"/>
      <point x="1008" y="72" type="curve"/>
      <point x="830" y="72"/>
      <point x="1023" y="72"/>
      <point x="845" y="72" type="curve"/>
      <point x="845" y="0"/>
      <point x="845" y="72"/>
    </contour>
    <contour>
      <point x="845" y="72" type="curve"/>
      <point x="668" y="72"/>
      <point x="861" y="72"/>
      <point x="683" y="72" type="curve"/>
      <point x="683" y="0"/>
      <point x="683" y="72"/>
      <point x="683" y="0" type="curve"/>
      <point x="742" y="0"/>
      <point x="786" y="0"/>
      <point x="845" y="0" type="curve"/>
      <point x="845" y="72"/>
      <point x="845" y="0"/>
    </contour>
    <contour>
      <point x="845" y="722" type="curve"/>
      <point x="786" y="722"/>
      <point x="742" y="722"/>
      <point x="683" y="722" type="curve"/>
      <point x="683" y="650"/>
      <point x="683" y="722"/>
      <point x="683" y="650" type="curve"/>
      <point x="861" y="650"/>
      <point x="668" y="650"/>
      <point x="845" y="650" type="curve"/>
      <point x="845" y="722"/>
      <point x="845" y="650"/>
    </contour>
    <contour>
      <point x="206" y="650" type="curve"/>
      <point x="384" y="650"/>
      <point x="191" y="650"/>
      <point x="369" y="650" type="curve"/>
      <point x="369" y="722"/>
      <point x="369" y="650"/>
      <point x="369" y="722" type="curve"/>
      <point x="310" y="722"/>
      <point x="266" y="722"/>
      <point x="206" y="722" type="curve"/>
      <point x="206" y="650"/>
      <point x="206" y="722"/>
    </contour>
    <contour>
      <point x="206" y="722" type="curve"/>
      <point x="148" y="722"/>
      <point x="103" y="722"/>
      <point x="44" y="722" type="curve"/>
      <point x="44" y="650"/>
      <point x="44" y="722"/>
      <point x="44" y="650" type="curve"/>
      <point x="222" y="650"/>
      <point x="29" y="650"/>
      <point x="206" y="650" type="curve"/>
      <point x="206" y="722"/>
      <point x="206" y="650"/>
    </contour>
    <contour>
      <point x="206" y="0" type="curve"/>
      <point x="266" y="0"/>
      <point x="191" y="0"/>
      <point x="369" y="0" type="curve"/>
      <point x="369" y="72"/>
      <point x="369" y="0"/>
      <point x="369" y="72" type="curve"/>
      <point x="191" y="72"/>
      <point x="384" y="72"/>
      <point x="206" y="72" type="curve"/>
      <point x="206" y="0"/>
      <point x="206" y="72"/>
    </contour>
    <contour>
      <point x="206" y="72" type="curve"/>
      <point x="29" y="72"/>
      <point x="222" y="72"/>
      <point x="44" y="72" type="curve"/>
      <point x="44" y="0"/>
      <point x="44" y="72"/>
      <point x="44" y="0" type="curve"/>
      <point x="103" y="0"/>
      <point x="148" y="0"/>
      <point x="206" y="0" type="curve"/>
      <point x="206" y="72"/>
      <point x="206" y="0"/>
    </contour>
    <contour>
      <point x="255" y="0" type="curve"/>
      <point x="255" y="722" type="line"/>
      <point x="159" y="722"/>
      <point x="255" y="722"/>
      <point x="159" y="722" type="curve"/>
      <point x="159" y="481"/>
      <point x="159" y="241"/>
      <point x="159" y="0" type="curve"/>
      <point x="255" y="0"/>
      <point x="159" y="0"/>
    </contour>
    <contour>
      <point x="841" y="399" type="curve"/>
      <point x="630" y="399"/>
      <point x="418" y="399"/>
      <point x="206" y="399" type="curve"/>
      <point x="206" y="327"/>
      <point x="206" y="399"/>
      <point x="206" y="327" type="curve"/>
      <point x="418" y="327"/>
      <point x="630" y="327"/>
      <point x="841" y="327" type="curve"/>
      <point x="841" y="399"/>
      <point x="841" y="327"/>
    </contour>
    <contour>
      <point x="892" y="27" type="curve"/>
      <point x="892" y="249"/>
      <point x="892" y="473"/>
      <point x="892" y="695" type="curve"/>
      <point x="797" y="695"/>
      <point x="892" y="695"/>
      <point x="797" y="695" type="curve"/>
      <point x="797" y="27" type="line"/>
      <point x="892" y="27"/>
      <point x="797" y="27"/>
    </contour>
  </outline>
</glyph>
<glyph name="I" format="1">
  <advance width="413"/>
  <unicode hex="0049"/>
  <outline>
    <contour>
      <point x="207" y="722" type="curve"/>
      <point x="148" y="722"/>
      <point x="104" y="722"/>
      <point x="45" y="722" type="curve"/>
      <point x="45" y="650"/>
      <point x="45" y="722"/>
      <point x="45" y="650" type="curve"/>
      <point x="223" y="650"/>
      <point x="30" y="650"/>
      <point x="207" y="650" type="curve"/>
      <point x="207" y="722"/>
      <point x="207" y="650"/>
    </contour>
    <contour>
      <point x="207" y="650" type="curve"/>
      <point x="385" y="650"/>
      <point x="192" y="650"/>
      <point x="370" y="650" type="curve"/>
      <point x="370" y="722"/>
      <point x="370" y="650"/>
      <point x="370" y="722" type="curve"/>
      <point x="310" y="722"/>
      <point x="266" y="722"/>
      <point x="207" y="722" type="curve"/>
      <point x="207" y="650"/>
      <point x="207" y="722"/>
    </contour>
    <contour>
      <point x="207" y="0" type="curve"/>
      <point x="266" y="0"/>
      <point x="310" y="0"/>
      <point x="370" y="0" type="curve"/>
      <point x="370" y="72"/>
      <point x="370" y="0"/>
      <point x="370" y="72" type="curve"/>
      <point x="192" y="72"/>
      <point x="385" y="72"/>
      <point x="207" y="72" type="curve"/>
      <point x="207" y="0"/>
      <point x="207" y="72"/>
    </contour>
    <contour>
      <point x="207" y="72" type="curve"/>
      <point x="30" y="72"/>
      <point x="223" y="72"/>
      <point x="45" y="72" type="curve"/>
      <point x="45" y="0"/>
      <point x="45" y="72"/>
      <point x="45" y="0" type="curve"/>
      <point x="104" y="0"/>
      <point x="148" y="0"/>
      <point x="207" y="0" type="curve"/>
      <point x="207" y="72"/>
      <point x="207" y="0"/>
    </contour>
    <contour>
      <point x="254" y="0" type="curve"/>
      <point x="254" y="241"/>
      <point x="254" y="481"/>
      <point x="254" y="722" type="curve"/>
      <point x="158" y="722"/>
      <point x="254" y="722"/>
      <point x="158" y="722" type="curve"/>
      <point x="158" y="481"/>
      <point x="158" y="241"/>
      <point x="158" y="0" type="curve"/>
      <point x="254" y="0"/>
      <point x="158" y="0"/>
    </contour>
    <contour>
      <point x="206" y="801" type="move" name="top"/>
    </contour>
    <contour>
      <point x="253" y="0" type="move" name="bottom"/>
    </contour>
  </outline>
</glyph>
<glyph name="J" format="1">
  <advance width="577"/>
  <unicode hex="004A"/>
  <outline>
    <contour>
      <point x="396" y="722" type="curve"/>
      <point x="339" y="722"/>
      <point x="296" y="722"/>
      <point x="238" y="722" type="curve"/>
      <point x="238" y="650"/>
      <point x="238" y="722"/>
      <point x="238" y="650" type="curve"/>
      <point x="411" y="650"/>
      <point x="223" y="650"/>
      <point x="396" y="650" type="curve"/>
      <point x="396" y="722"/>
      <point x="396" y="650"/>
    </contour>
    <contour>
      <point x="396" y="650" type="curve"/>
      <point x="566" y="650"/>
      <point x="381" y="650"/>
      <point x="550" y="650" type="curve"/>
      <point x="550" y="722"/>
      <point x="550" y="650"/>
      <point x="550" y="722" type="curve"/>
      <point x="494" y="722"/>
      <point x="452" y="722"/>
      <point x="396" y="722" type="curve"/>
      <point x="396" y="650"/>
      <point x="396" y="722"/>
    </contour>
    <contour>
      <point x="13" y="44" type="curve"/>
      <point x="52" y="22"/>
      <point x="108" y="-3"/>
      <point x="176" y="-3" type="curve"/>
      <point x="339" y="-3"/>
      <point x="443" y="74"/>
      <point x="443" y="234" type="curve"/>
      <point x="443" y="396"/>
      <point x="443" y="559"/>
      <point x="443" y="722" type="curve"/>
      <point x="347" y="722"/>
      <point x="442" y="722"/>
      <point x="347" y="722" type="curve"/>
      <point x="347" y="559"/>
      <point x="347" y="396"/>
      <point x="347" y="234" type="curve"/>
      <point x="347" y="129"/>
      <point x="283" y="69"/>
      <point x="176" y="69" type="curve"/>
      <point x="128" y="69"/>
      <point x="96" y="83"/>
      <point x="56" y="101" type="curve"/>
      <point x="13" y="44"/>
      <point x="56" y="100"/>
    </contour>
  </outline>
</glyph>
<glyph name="K" format="1">
  <advance width="885"/>
  <unicode hex="004B"/>
  <outline>
    <contour>
      <point x="44" y="0" type="line"/>
      <point x="367" y="0" type="line"/>
      <point x="367" y="72" type="line"/>
      <point x="254" y="72" type="line"/>
      <point x="254" y="353" type="line"/>
      <point x="692" y="0" type="line"/>
      <point x="704" y="0"/>
      <point x="714" y="0"/>
      <point x="722" y="1" type="curve"/>
      <point x="722" y="0" type="line"/>
      <point x="865" y="0" type="line"/>
      <point x="865" y="72" type="line"/>
      <point x="740" y="72" type="line"/>
      <point x="344" y="380" type="line"/>
      <point x="701" y="650" type="line"/>
      <point x="825" y="650" type="line"/>
      <point x="825" y="722" type="line"/>
      <point x="474" y="722" type="line"/>
      <point x="474" y="650" type="line"/>
      <point x="571" y="650" type="line"/>
      <point x="254" y="406" type="line"/>
      <point x="254" y="650" type="line"/>
      <point x="361" y="650" type="line"/>
      <point x="361" y="722" type="line"/>
      <point x="44" y="722" type="line"/>
      <point x="44" y="650" type="line"/>
      <point x="158" y="650" type="line"/>
      <point x="158" y="72" type="line"/>
      <point x="44" y="72" type="line"/>
    </contour>
    <contour>
      <point x="499" y="0" type="move" name="bottom"/>
    </contour>
  </outline>
</glyph>
<glyph name="L" format="1">
  <advance width="769"/>
  <unicode hex="004C"/>
  <outline>
    <contour>
      <point x="44" y="0" type="line"/>
      <point x="739" y="0" type="line"/>
      <point x="739" y="155" type="line"/>
      <point x="664" y="155" type="line"/>
      <point x="664" y="72" type="line"/>
      <point x="255" y="72" type="line"/>
      <point x="255" y="650" type="line"/>
      <point x="368" y="650" type="line"/>
      <point x="368" y="722" type="line"/>
      <point x="44" y="722" type="line"/>
      <point x="44" y="650" type="line"/>
      <point x="159" y="650" type="line"/>
      <point x="159" y="72" type="line"/>
      <point x="44" y="72" type="line"/>
    </contour>
    <contour>
      <point x="207" y="801" type="move" name="top"/>
    </contour>
    <contour>
      <point x="434" y="2" type="move" name="bottom"/>
    </contour>
  </outline>
</glyph>
<glyph name="M" format="1">
  <advance width="1232"/>
  <unicode hex="004D"/>
  <outline>
    <contour>
      <point x="1047" y="0" type="curve"/>
      <point x="1106" y="0"/>
      <point x="1150" y="0"/>
      <point x="1208" y="0" type="curve"/>
      <point x="1208" y="72"/>
      <point x="1208" y="0"/>
      <point x="1208" y="72" type="curve"/>
      <point x="1032" y="72"/>
      <point x="1224" y="72"/>
      <point x="1047" y="72" type="curve"/>
      <point x="1047" y="0"/>
      <point x="1047" y="72"/>
    </contour>
    <contour>
      <point x="1047" y="72" type="curve"/>
      <point x="871" y="72"/>
      <point x="1062" y="72"/>
      <point x="886" y="72" type="curve"/>
      <point x="886" y="0"/>
      <point x="886" y="72"/>
      <point x="886" y="0" type="curve"/>
      <point x="945" y="0"/>
      <point x="988" y="0"/>
      <point x="1047" y="0" type="curve"/>
      <point x="1047" y="72"/>
      <point x="1047" y="0"/>
    </contour>
    <contour>
      <point x="186" y="72" type="curve"/>
      <point x="9" y="72"/>
      <point x="202" y="72"/>
      <point x="25" y="72" type="curve"/>
      <point x="25" y="0"/>
      <point x="25" y="72"/>
      <point x="25" y="0" type="curve"/>
      <point x="84" y="0"/>
      <point x="127" y="0"/>
      <point x="186" y="0" type="curve"/>
      <point x="186" y="72"/>
      <point x="186" y="0"/>
    </contour>
    <contour>
      <point x="256" y="722" type="curve"/>
      <point x="197" y="722"/>
      <point x="153" y="722"/>
      <point x="95" y="722" type="curve"/>
      <point x="95" y="650"/>
      <point x="95" y="722"/>
      <point x="95" y="650" type="curve"/>
      <point x="272" y="650"/>
      <point x="79" y="650"/>
      <point x="256" y="650" type="curve"/>
      <point x="256" y="722"/>
      <point x="256" y="650"/>
    </contour>
    <contour>
      <point x="975" y="650" type="curve"/>
      <point x="1152" y="650"/>
      <point x="960" y="650"/>
      <point x="1137" y="650" type="curve"/>
      <point x="1137" y="722"/>
      <point x="1137" y="650"/>
      <point x="1137" y="722" type="curve"/>
      <point x="1078" y="722"/>
      <point x="1034" y="722"/>
      <point x="975" y="722" type="curve"/>
      <point x="975" y="650"/>
      <point x="975" y="722"/>
    </contour>
    <contour>
      <point x="186" y="0" type="curve"/>
      <point x="245" y="0"/>
      <point x="171" y="0"/>
      <point x="348" y="0" type="curve"/>
      <point x="348" y="72"/>
      <point x="348" y="0"/>
      <point x="348" y="72" type="curve"/>
      <point x="171" y="72"/>
      <point x="363" y="72"/>
      <point x="186" y="72" type="curve"/>
      <point x="186" y="0"/>
      <point x="186" y="72"/>
    </contour>
    <contour>
      <point x="1100" y="0" type="curve"/>
      <point x="1073" y="241"/>
      <point x="1044" y="481"/>
      <point x="1018" y="722" type="curve"/>
      <point x="931" y="722"/>
      <point x="1018" y="722"/>
      <point x="931" y="722" type="curve"/>
      <point x="956" y="481"/>
      <point x="978" y="241"/>
      <point x="1004" y="0" type="curve"/>
      <point x="1100" y="0"/>
      <point x="1004" y="0"/>
    </contour>
    <contour>
      <point x="228" y="0" type="curve"/>
      <point x="252" y="241"/>
      <point x="275" y="481"/>
      <point x="300" y="722" type="curve"/>
      <point x="207" y="722"/>
      <point x="300" y="722"/>
      <point x="207" y="722" type="curve"/>
      <point x="183" y="481"/>
      <point x="158" y="241"/>
      <point x="133" y="0" type="curve"/>
      <point x="228" y="0"/>
      <point x="133" y="0"/>
    </contour>
    <contour>
      <point x="659" y="0" type="curve"/>
      <point x="541" y="241"/>
      <point x="423" y="481"/>
      <point x="304" y="722" type="curve"/>
      <point x="211" y="722"/>
      <point x="303" y="722"/>
      <point x="210" y="722" type="curve"/>
      <point x="328" y="481"/>
      <point x="446" y="241"/>
      <point x="564" y="0" type="curve"/>
      <point x="658" y="0"/>
      <point x="565" y="0"/>
    </contour>
    <contour>
      <point x="670" y="0" type="curve"/>
      <point x="786" y="241"/>
      <point x="902" y="481"/>
      <point x="1018" y="722" type="curve"/>
      <point x="925" y="722"/>
      <point x="1017" y="722"/>
      <point x="924" y="722" type="curve"/>
      <point x="807" y="481"/>
      <point x="690" y="241"/>
      <point x="573" y="0" type="curve"/>
      <point x="669" y="0"/>
      <point x="574" y="0"/>
    </contour>
  </outline>
</glyph>
<glyph name="N" format="1">
  <advance width="1080"/>
  <unicode hex="004E"/>
  <outline>
    <contour>
      <point x="208" y="722" type="curve"/>
      <point x="149" y="722"/>
      <point x="105" y="722"/>
      <point x="45" y="722" type="curve"/>
      <point x="45" y="650"/>
      <point x="45" y="722"/>
      <point x="45" y="650" type="curve"/>
      <point x="223" y="650"/>
      <point x="30" y="650"/>
      <point x="208" y="650" type="curve"/>
      <point x="208" y="722"/>
      <point x="208" y="650"/>
    </contour>
    <contour>
      <point x="885" y="650" type="curve"/>
      <point x="1062" y="650"/>
      <point x="870" y="650"/>
      <point x="1047" y="650" type="curve"/>
      <point x="1047" y="722"/>
      <point x="1047" y="650"/>
      <point x="1047" y="722" type="curve"/>
      <point x="988" y="722"/>
      <point x="944" y="722"/>
      <point x="885" y="722" type="curve"/>
      <point x="885" y="650"/>
      <point x="885" y="722"/>
    </contour>
    <contour>
      <point x="895" y="722" type="curve"/>
      <point x="836" y="722"/>
      <point x="792" y="722"/>
      <point x="733" y="722" type="curve"/>
      <point x="733" y="650"/>
      <point x="733" y="722"/>
      <point x="733" y="650" type="curve"/>
      <point x="910" y="650"/>
      <point x="718" y="650"/>
      <point x="895" y="650" type="curve"/>
      <point x="895" y="722"/>
      <point x="895" y="650"/>
    </contour>
    <contour>
      <point x="207" y="72" type="curve"/>
      <point x="29" y="72"/>
      <point x="222" y="72"/>
      <point x="45" y="72" type="curve"/>
      <point x="44" y="0"/>
      <point x="45" y="72"/>
      <point x="44" y="0" type="curve"/>
      <point x="104" y="0"/>
      <point x="147" y="0"/>
      <point x="207" y="0" type="curve"/>
      <point x="207" y="72"/>
      <point x="207" y="0"/>
    </contour>
    <contour>
      <point x="207" y="0" type="curve"/>
      <point x="266" y="0"/>
      <point x="191" y="0"/>
      <point x="368" y="0" type="curve"/>
      <point x="368" y="72"/>
      <point x="368" y="0"/>
      <point x="368" y="72" type="curve"/>
      <point x="191" y="72"/>
      <point x="384" y="72"/>
      <point x="207" y="72" type="curve"/>
      <point x="207" y="0"/>
      <point x="207" y="72"/>
    </contour>
    <contour>
      <point x="939" y="0" type="curve"/>
      <point x="714" y="240"/>
      <point x="492" y="482"/>
      <point x="268" y="722" type="curve"/>
      <point x="152" y="722"/>
      <point x="266" y="722"/>
      <point x="150" y="722" type="curve"/>
      <point x="374" y="482"/>
      <point x="597" y="240"/>
      <point x="821" y="0" type="curve"/>
      <point x="937" y="0"/>
      <point x="823" y="0"/>
    </contour>
    <contour>
      <point x="846" y="722" type="curve"/>
      <point x="846" y="481"/>
      <point x="846" y="241"/>
      <point x="846" y="0" type="curve"/>
      <point x="941" y="0"/>
      <point x="846" y="0"/>
      <point x="941" y="0" type="curve"/>
      <point x="941" y="241"/>
      <point x="941" y="481"/>
      <point x="941" y="722" type="curve"/>
      <point x="846" y="722"/>
      <point x="941" y="722"/>
    </contour>
    <contour>
      <point x="254" y="0" type="curve"/>
      <point x="254" y="241"/>
      <point x="254" y="481"/>
      <point x="254" y="722" type="curve"/>
      <point x="158" y="722"/>
      <point x="254" y="722"/>
      <point x="158" y="722" type="curve"/>
      <point x="158" y="481"/>
      <point x="158" y="241"/>
      <point x="158" y="0" type="curve"/>
      <point x="254" y="0"/>
      <point x="158" y="0"/>
    </contour>
    <contour>
      <point x="542" y="801" type="move" name="top"/>
    </contour>
    <contour>
      <point x="556" y="0" type="move" name="bottom"/>
    </contour>
  </outline>
</glyph>
<glyph name="O" format="1">
  <advance width="944"/>
  <unicode hex="004F"/>
  <outline>
    <contour>
      <point x="160" y="360" type="curve"/>
      <point x="160" y="542"/>
      <point x="280" y="651"/>
      <point x="468" y="651" type="curve"/>
      <point x="658" y="651"/>
      <point x="785" y="546"/>
      <point x="785" y="363" type="curve"/>
      <point x="785" y="181"/>
      <point x="664" y="72"/>
      <point x="475" y="72" type="curve"/>
      <point x="283" y="72"/>
      <point x="160" y="177"/>
      <point x="160" y="360" type="curve"/>
      <point x="64" y="360"/>
      <point x="160" y="360"/>
      <point x="64" y="360" type="curve"/>
      <point x="64" y="126"/>
      <point x="228" y="-5"/>
      <point x="471" y="-5" type="curve"/>
      <point x="716" y="-5"/>
      <point x="880" y="127"/>
      <point x="880" y="363" type="curve"/>
      <point x="880" y="595"/>
      <point x="717" y="727"/>
      <point x="475" y="727" type="curve"/>
      <point x="229" y="727"/>
      <point x="64" y="595"/>
      <point x="64" y="360" type="curve"/>
      <point x="160" y="360"/>
      <point x="64" y="360"/>
    </contour>
    <contour>
      <point x="474" y="801" type="move" name="top"/>
    </contour>
  </outline>
</glyph>
<glyph name="P" format="1">
  <advance width="776"/>
  <unicode hex="0050"/>
  <outline>
    <contour>
      <point x="270" y="359" type="curve"/>
      <point x="270" y="650" type="line"/>
      <point x="380" y="650" type="line"/>
      <point x="519" y="650"/>
      <point x="633" y="608"/>
      <point x="633" y="488" type="curve"/>
      <point x="633" y="378"/>
      <point x="540" y="332"/>
      <point x="424" y="332" type="curve"/>
      <point x="366" y="332"/>
      <point x="321" y="342"/>
    </contour>
    <contour>
      <point x="61" y="0" type="line"/>
      <point x="384" y="0" type="line"/>
      <point x="384" y="72" type="line"/>
      <point x="270" y="72" type="line"/>
      <point x="270" y="285" type="line"/>
      <point x="322" y="270"/>
      <point x="377" y="260"/>
      <point x="431" y="260" type="curve"/>
      <point x="604" y="263"/>
      <point x="728" y="328"/>
      <point x="728" y="487" type="curve"/>
      <point x="728" y="653"/>
      <point x="578" y="722"/>
      <point x="393" y="722" type="curve"/>
      <point x="61" y="722" type="line"/>
      <point x="61" y="650" type="line"/>
      <point x="174" y="650" type="line"/>
      <point x="174" y="72" type="line"/>
      <point x="61" y="72" type="line"/>
    </contour>
  </outline>
</glyph>
<glyph name="Q" format="1">
  <advance width="985"/>
  <unicode hex="0051"/>
  <outline>
    <contour>
      <point x="459" y="-5" type="curve"/>
      <point x="601" y="-183"/>
      <point x="755" y="-224"/>
      <point x="979" y="-224" type="curve"/>
      <point x="979" y="-148" type="line"/>
      <point x="806" y="-148"/>
      <point x="681" y="-121"/>
      <point x="566" y="2" type="curve"/>
      <point x="757" y="33"/>
      <point x="882" y="161"/>
      <point x="882" y="365" type="curve"/>
      <point x="882" y="599"/>
      <point x="717" y="730"/>
      <point x="477" y="730" type="curve"/>
      <point x="233" y="730"/>
      <point x="63" y="596"/>
      <point x="63" y="360" type="curve"/>
      <point x="63" y="130"/>
      <point x="226" y="0"/>
    </contour>
    <contour>
      <point x="472" y="649" type="curve"/>
      <point x="660" y="649"/>
      <point x="786" y="545"/>
      <point x="786" y="361" type="curve"/>
      <point x="786" y="179"/>
      <point x="662" y="71"/>
      <point x="477" y="71" type="curve"/>
      <point x="287" y="71"/>
      <point x="159" y="176"/>
      <point x="159" y="360" type="curve"/>
      <point x="159" y="542"/>
      <point x="286" y="649"/>
    </contour>
  </outline>
</glyph>
<glyph name="R" format="1">
  <advance width="918"/>
  <unicode hex="0052"/>
  <outline>
    <contour>
      <point x="439" y="650" type="line"/>
      <point x="560" y="650"/>
      <point x="653" y="626"/>
      <point x="653" y="520" type="curve"/>
      <point x="653" y="417"/>
      <point x="564" y="388"/>
      <point x="448" y="388" type="curve"/>
      <point x="271" y="388" type="line"/>
      <point x="271" y="650" type="line"/>
    </contour>
    <contour>
      <point x="383" y="72" type="line"/>
      <point x="271" y="72" type="line"/>
      <point x="271" y="316" type="line"/>
      <point x="457" y="316" type="line"/>
      <point x="534" y="226"/>
      <point x="676" y="58"/>
      <point x="727" y="0" type="curve"/>
      <point x="900" y="0" type="line"/>
      <point x="900" y="72" type="line"/>
      <point x="780" y="72" type="line"/>
      <point x="716" y="148"/>
      <point x="618" y="264"/>
      <point x="564" y="327" type="curve"/>
      <point x="675" y="349"/>
      <point x="749" y="408"/>
      <point x="749" y="527" type="curve"/>
      <point x="749" y="676"/>
      <point x="623" y="722"/>
      <point x="456" y="722" type="curve"/>
      <point x="59" y="722" type="line"/>
      <point x="59" y="650" type="line"/>
      <point x="175" y="650" type="line"/>
      <point x="175" y="72" type="line"/>
      <point x="59" y="72" type="line"/>
      <point x="59" y="0" type="line"/>
      <point x="383" y="0" type="line"/>
    </contour>
    <contour>
      <point x="406" y="801" type="move" name="top"/>
    </contour>
    <contour>
      <point x="494" y="-1" type="move" name="bottom"/>
    </contour>
  </outline>
</glyph>
<glyph name="T" format="1">
  <advance width="858"/>
  <unicode hex="0054"/>
  <outline>
    <contour>
      <point x="266" y="0" type="line"/>
      <point x="590" y="0" type="line"/>
      <point x="590" y="72" type="line"/>
      <point x="477" y="72" type="line"/>
      <point x="477" y="645" type="line"/>
      <point x="746" y="645" type="line"/>
      <point x="746" y="566" type="line"/>
      <point x="821" y="566" type="line"/>
      <point x="821" y="722" type="line"/>
      <point x="37" y="722" type="line"/>
      <point x="37" y="566" type="line"/>
      <point x="112" y="566" type="line"/>
      <point x="112" y="645" type="line"/>
      <point x="382" y="645" type="line"/>
      <point x="382" y="72" type="line"/>
      <point x="266" y="72" type="line"/>
    </contour>
    <contour>
      <point x="426" y="801" type="move" name="top"/>
    </contour>
    <contour>
      <point x="457" y="-1" type="move" name="bottom"/>
    </contour>
  </outline>
</glyph>
<glyph name="V" format="1">
  <advance width="984"/>
  <unicode hex="0056"/>
  <outline>
    <contour>
      <point x="538" y="0" type="line"/>
      <point x="643" y="217"/>
      <point x="749" y="433"/>
      <point x="854" y="650" type="curve"/>
      <point x="972" y="650" type="line"/>
      <point x="972" y="722" type="line"/>
      <point x="637" y="722" type="line"/>
      <point x="637" y="650" type="line"/>
      <point x="756" y="650" type="line"/>
      <point x="666" y="464"/>
      <point x="575" y="278"/>
      <point x="485" y="92" type="curve"/>
      <point x="394" y="278"/>
      <point x="302" y="464"/>
      <point x="211" y="650" type="curve"/>
      <point x="327" y="650" type="line"/>
      <point x="327" y="722" type="line"/>
      <point x="-7" y="722" type="line"/>
      <point x="-7" y="650" type="line"/>
      <point x="111" y="650" type="line"/>
      <point x="218" y="433"/>
      <point x="326" y="217"/>
      <point x="432" y="0" type="curve"/>
    </contour>
  </outline>
</glyph>
<glyph name="W" format="1">
  <advance width="1247"/>
  <unicode hex="0057"/>
  <outline>
    <contour>
      <point x="417" y="0" type="line"/>
      <point x="487" y="202"/>
      <point x="556" y="403"/>
      <point x="627" y="605" type="curve"/>
      <point x="689" y="403"/>
      <point x="750" y="202"/>
      <point x="813" y="0" type="curve"/>
      <point x="910" y="0" type="line"/>
      <point x="982" y="217"/>
      <point x="1053" y="433"/>
      <point x="1124" y="650" type="curve"/>
      <point x="1237" y="650" type="line"/>
      <point x="1237" y="722" type="line"/>
      <point x="920" y="722" type="line"/>
      <point x="920" y="650" type="line"/>
      <point x="1030" y="650" type="line"/>
      <point x="973" y="471"/>
      <point x="918" y="293"/>
      <point x="862" y="115" type="curve"/>
      <point x="802" y="317"/>
      <point x="742" y="519"/>
      <point x="679" y="722" type="curve"/>
      <point x="576" y="722" type="line"/>
      <point x="509" y="519"/>
      <point x="440" y="317"/>
      <point x="372" y="114" type="curve"/>
      <point x="318" y="293"/>
      <point x="264" y="471"/>
      <point x="209" y="650" type="curve"/>
      <point x="321" y="650" type="line"/>
      <point x="321" y="722" type="line"/>
      <point x="4" y="722" type="line"/>
      <point x="4" y="650" type="line"/>
      <point x="115" y="650" type="line"/>
      <point x="183" y="433"/>
      <point x="252" y="217"/>
      <point x="321" y="0" type="curve"/>
    </contour>
  </outline>
</glyph>
<glyph name="X" format="1">
  <advance width="917"/>
  <unicode hex="0058"/>
  <outline>
    <contour>
      <point x="176" y="0" type="curve"/>
      <point x="235" y="0"/>
      <point x="176" y="0"/>
      <point x="352" y="0" type="curve"/>
      <point x="352" y="72"/>
      <point x="352" y="0"/>
      <point x="352" y="72" type="curve"/>
      <point x="176" y="72"/>
      <point x="352" y="72"/>
      <point x="176" y="72" type="curve"/>
      <point x="176" y="0"/>
      <point x="176" y="72"/>
    </contour>
    <contour>
      <point x="175" y="72" type="curve"/>
      <point x="9" y="72"/>
      <point x="175" y="72"/>
      <point x="9" y="72" type="curve"/>
      <point x="9" y="0"/>
      <point x="9" y="72"/>
      <point x="9" y="0" type="curve"/>
      <point x="65" y="0"/>
      <point x="120" y="0"/>
      <point x="175" y="0" type="curve"/>
      <point x="175" y="72"/>
      <point x="175" y="0"/>
    </contour>
    <contour>
      <point x="738" y="0" type="curve"/>
      <point x="793" y="0"/>
      <point x="849" y="0"/>
      <point x="904" y="0" type="curve"/>
      <point x="904" y="72"/>
      <point x="904" y="0"/>
      <point x="904" y="72" type="curve"/>
      <point x="737" y="72"/>
      <point x="904" y="72"/>
      <point x="738" y="72" type="curve"/>
      <point x="738" y="0"/>
      <point x="738" y="72"/>
    </contour>
    <contour>
      <point x="737" y="72" type="curve"/>
      <point x="560" y="72"/>
      <point x="737" y="72"/>
      <point x="561" y="72" type="curve"/>
      <point x="561" y="0"/>
      <point x="561" y="72"/>
      <point x="561" y="0" type="curve"/>
      <point x="619" y="0"/>
      <point x="678" y="0"/>
      <point x="737" y="0" type="curve"/>
      <point x="737" y="72"/>
      <point x="737" y="0"/>
    </contour>
    <contour>
      <point x="704" y="650" type="curve"/>
      <point x="871" y="650"/>
      <point x="704" y="650"/>
      <point x="870" y="650" type="curve"/>
      <point x="870" y="722"/>
      <point x="870" y="650"/>
      <point x="870" y="722" type="curve"/>
      <point x="815" y="722"/>
      <point x="759" y="722"/>
      <point x="704" y="722" type="curve"/>
      <point x="704" y="650"/>
      <point x="704" y="722"/>
    </contour>
    <contour>
      <point x="705" y="722" type="curve"/>
      <point x="646" y="722"/>
      <point x="587" y="722"/>
      <point x="528" y="722" type="curve"/>
      <point x="528" y="650"/>
      <point x="528" y="722"/>
      <point x="528" y="650" type="curve"/>
      <point x="705" y="650"/>
      <point x="528" y="650"/>
      <point x="705" y="650" type="curve"/>
      <point x="705" y="722"/>
      <point x="705" y="650"/>
    </contour>
    <contour>
      <point x="218" y="722" type="curve"/>
      <point x="163" y="722"/>
      <point x="107" y="722"/>
      <point x="52" y="722" type="curve"/>
      <point x="52" y="650"/>
      <point x="52" y="722"/>
      <point x="52" y="650" type="curve"/>
      <point x="218" y="650"/>
      <point x="51" y="650"/>
      <point x="218" y="650" type="curve"/>
      <point x="218" y="722"/>
      <point x="218" y="650"/>
    </contour>
    <contour>
      <point x="217" y="650" type="curve"/>
      <point x="394" y="650"/>
      <point x="216" y="650"/>
      <point x="393" y="650" type="curve"/>
      <point x="393" y="722"/>
      <point x="393" y="650"/>
      <point x="393" y="722" type="curve"/>
      <point x="335" y="722"/>
      <point x="276" y="722"/>
      <point x="217" y="722" type="curve"/>
      <point x="217" y="650"/>
      <point x="217" y="722"/>
    </contour>
    <contour>
      <point x="705" y="722" type="curve"/>
      <point x="501" y="489"/>
      <point x="295" y="258"/>
      <point x="92" y="24" type="curve"/>
      <point x="189" y="24"/>
      <point x="92" y="0"/>
      <point x="189" y="0" type="curve"/>
      <point x="391" y="233"/>
      <point x="592" y="468"/>
      <point x="795" y="701" type="curve"/>
      <point x="705" y="701"/>
      <point x="795" y="722"/>
    </contour>
    <contour>
      <point x="129" y="701" type="curve"/>
      <point x="331" y="468"/>
      <point x="529" y="233"/>
      <point x="730" y="0" type="curve"/>
      <point x="827" y="0"/>
      <point x="730" y="16"/>
      <point x="827" y="16" type="curve"/>
      <point x="624" y="252"/>
      <point x="420" y="486"/>
      <point x="217" y="722" type="curve"/>
      <point x="129" y="722"/>
      <point x="217" y="701"/>
    </contour>
  </outline>
</glyph>
<glyph name="Y" format="1">
  <advance width="824"/>
  <unicode hex="0059"/>
  <outline>
    <contour>
      <point x="238" y="0" type="line"/>
      <point x="563" y="0" type="line"/>
      <point x="563" y="72" type="line"/>
      <point x="453" y="72" type="line"/>
      <point x="453" y="341" type="line"/>
      <point x="535" y="441"/>
      <point x="619" y="546"/>
      <point x="704" y="650" type="curve"/>
      <point x="812" y="650" type="line"/>
      <point x="812" y="722" type="line"/>
      <point x="660" y="722" type="line"/>
      <point x="660" y="717" type="line"/>
      <point x="659" y="716" type="line"/>
      <point x="659" y="722" type="line"/>
      <point x="498" y="722" type="line"/>
      <point x="498" y="650" type="line"/>
      <point x="606" y="650" type="line"/>
      <point x="538" y="566"/>
      <point x="470" y="482"/>
      <point x="402" y="399" type="curve"/>
      <point x="338" y="483"/>
      <point x="273" y="566"/>
      <point x="209" y="650" type="curve"/>
      <point x="319" y="650" type="line"/>
      <point x="319" y="722" type="line"/>
      <point x="157" y="722" type="line"/>
      <point x="157" y="718" type="line"/>
      <point x="156" y="719" type="line"/>
      <point x="156" y="722" type="line"/>
      <point x="5" y="722" type="line"/>
      <point x="5" y="650" type="line"/>
      <point x="111" y="650" type="line"/>
      <point x="190" y="548"/>
      <point x="269" y="445"/>
      <point x="348" y="342" type="curve"/>
      <point x="348" y="72" type="line"/>
      <point x="238" y="72" type="line"/>
    </contour>
    <contour>
      <point x="404" y="801" type="move" name="top"/>
    </contour>
  </outline>
</glyph>
<glyph name="bracketleft" format="1">
  <advance width="364"/>
  <unicode hex="005B"/>
  <outline>
    <contour>
      <point x="316" y="-118" type="line"/>
      <point x="316" y="-38" type="line"/>
      <point x="179" y="-38" type="line"/>
      <point x="179" y="691" type="line"/>
      <point x="316" y="691" type="line"/>
      <point x="316" y="770" type="line"/>
      <point x="83" y="770" type="line"/>
      <point x="83" y="-118" type="line"/>
    </contour>
  </outline>
</glyph>
<glyph name="backslash" format="1">
  <advance width="667"/>
  <unicode hex="005C"/>
  <outline>
    <contour>
      <point x="631" y="-68" type="curve"/>
      <point x="466" y="236"/>
      <point x="301" y="540"/>
      <point x="136" y="844" type="curve"/>
      <point x="36" y="844"/>
      <point x="136" y="844"/>
      <point x="36" y="844" type="curve"/>
      <point x="201" y="540"/>
      <point x="366" y="236"/>
      <point x="531" y="-68" type="curve"/>
      <point x="631" y="-68"/>
      <point x="531" y="-68"/>
    </contour>
  </outline>
</glyph>
<glyph name="bracketright" format="1">
  <advance width="364"/>
  <unicode hex="005D"/>
  <outline>
    <contour>
      <point x="280" y="-118" type="line"/>
      <point x="280" y="770" type="line"/>
      <point x="48" y="770" type="line"/>
      <point x="48" y="691" type="line"/>
      <point x="184" y="691" type="line"/>
      <point x="184" y="-38" type="line"/>
      <point x="48" y="-38" type="line"/>
      <point x="48" y="-118" type="line"/>
    </contour>
  </outline>
</glyph>
<glyph name="asciicircum" format="1">
  <advance width="664"/>
  <unicode hex="005E"/>
  <outline>
    <contour>
      <point x="602" y="459" type="line"/>
      <point x="529" y="563"/>
      <point x="452" y="673"/>
      <point x="379" y="778" type="curve"/>
      <point x="283" y="778" type="line"/>
      <point x="209" y="671"/>
      <point x="136" y="565"/>
      <point x="63" y="459" type="curve"/>
      <point x="159" y="459" type="line"/>
      <point x="216" y="542"/>
      <point x="274" y="625"/>
      <point x="332" y="709" type="curve"/>
      <point x="389" y="625"/>
      <point x="449" y="540"/>
      <point x="506" y="459" type="curve"/>
    </contour>
  </outline>
</glyph>
<glyph name="underscore" format="1">
  <advance width="862"/>
  <unicode hex="005F"/>
  <outline>
    <contour>
      <point x="0" y="-195" type="curve"/>
      <point x="288" y="-195"/>
      <point x="576" y="-195"/>
      <point x="862" y="-195" type="curve"/>
      <point x="862" y="-123"/>
      <point x="862" y="-195"/>
      <point x="862" y="-123" type="curve"/>
      <point x="576" y="-123"/>
      <point x="288" y="-123"/>
      <point x="0" y="-123" type="curve"/>
      <point x="0" y="-195"/>
      <point x="0" y="-123"/>
    </contour>
  </outline>
</glyph>
<glyph name="grave" format="1">
  <advance width="452"/>
  <unicode hex="0060"/>
  <outline>
    <contour>
      <point x="347" y="562" type="line"/>
      <point x="189" y="728" type="line"/>
      <point x="62" y="728" type="line"/>
      <point x="248" y="562" type="line"/>
    </contour>
    <contour>
      <point x="290" y="563" type="move" name="_top"/>
    </contour>
  </outline>
</glyph>
<glyph name="b" format="1">
  <advance width="815"/>
  <unicode hex="0062"/>
  <outline>
    <contour>
      <point x="187" y="800" type="curve"/>
      <point x="128" y="800"/>
      <point x="83" y="800"/>
      <point x="24" y="800" type="curve"/>
      <point x="24" y="762"/>
      <point x="24" y="766"/>
      <point x="24" y="728" type="curve"/>
      <point x="139" y="728"/>
      <point x="72" y="728"/>
      <point x="187" y="728" type="curve"/>
      <point x="187" y="766"/>
      <point x="187" y="762"/>
    </contour>
    <contour>
      <point x="204" y="355" type="curve"/>
      <point x="262" y="415"/>
      <point x="342" y="463"/>
      <point x="449" y="463" type="curve"/>
      <point x="576" y="463"/>
      <point x="663" y="390"/>
      <point x="663" y="263" type="curve"/>
      <point x="664" y="141"/>
      <point x="575" y="69"/>
      <point x="449" y="70" type="curve"/>
      <point x="350" y="70"/>
      <point x="275" y="104"/>
      <point x="213" y="163" type="curve"/>
      <point x="184" y="142"/>
      <point x="184" y="143"/>
      <point x="155" y="122" type="curve"/>
      <point x="245" y="40"/>
      <point x="334" y="-5"/>
      <point x="465" y="-5" type="curve"/>
      <point x="640" y="-5"/>
      <point x="760" y="91"/>
      <point x="759" y="264" type="curve"/>
      <point x="759" y="440"/>
      <point x="640" y="538"/>
      <point x="464" y="538" type="curve"/>
      <point x="333" y="538"/>
      <point x="239" y="485"/>
      <point x="162" y="407" type="curve"/>
      <point x="185" y="382"/>
      <point x="181" y="380"/>
    </contour>
    <contour>
      <point x="232" y="0" type="curve"/>
      <point x="232" y="287"/>
      <point x="232" y="513"/>
      <point x="232" y="800" type="curve"/>
      <point x="184" y="800"/>
      <point x="185" y="800"/>
      <point x="136" y="800" type="curve"/>
      <point x="136" y="513"/>
      <point x="136" y="287"/>
      <point x="136" y="0" type="curve"/>
      <point x="185" y="0"/>
      <point x="184" y="0"/>
    </contour>
    <contour>
      <point x="187" y="72" type="curve"/>
      <point x="72" y="72"/>
      <point x="139" y="72"/>
      <point x="24" y="72" type="curve"/>
      <point x="24" y="34"/>
      <point x="24" y="38"/>
      <point x="24" y="0" type="curve"/>
      <point x="83" y="0"/>
      <point x="128" y="0"/>
      <point x="187" y="0" type="curve"/>
      <point x="187" y="38"/>
      <point x="187" y="34"/>
    </contour>
  </outline>
</glyph>
<glyph name="c" format="1">
  <advance width="669"/>
  <unicode hex="0063"/>
  <outline>
    <contour>
      <point x="561" y="134" type="line"/>
      <point x="512" y="92"/>
      <point x="450" y="70"/>
      <point x="386" y="70" type="curve"/>
      <point x="246" y="70"/>
      <point x="151" y="130"/>
      <point x="151" y="267" type="curve"/>
      <point x="151" y="403"/>
      <point x="244" y="463"/>
      <point x="383" y="463" type="curve"/>
      <point x="436" y="463"/>
      <point x="489" y="452"/>
      <point x="535" y="430" type="curve"/>
      <point x="535" y="330" type="line"/>
      <point x="610" y="330" type="line"/>
      <point x="610" y="471" type="line"/>
      <point x="545" y="511"/>
      <point x="465" y="538"/>
      <point x="386" y="538" type="curve"/>
      <point x="189" y="538"/>
      <point x="55" y="456"/>
      <point x="55" y="267" type="curve"/>
      <point x="55" y="79"/>
      <point x="186" y="-5"/>
      <point x="382" y="-5" type="curve"/>
      <point x="471" y="-5"/>
      <point x="557" y="23"/>
      <point x="615" y="76" type="curve"/>
    </contour>
    <contour>
      <point x="371" y="639" type="move" name="top"/>
    </contour>
    <contour>
      <point x="385" y="5" type="move" name="bottom"/>
    </contour>
  </outline>
</glyph>
<glyph name="d" format="1">
  <advance width="813"/>
  <unicode hex="0064"/>
  <outline>
    <contour>
      <point x="151" y="267" type="curve"/>
      <point x="151" y="399"/>
      <point x="248" y="466"/>
      <point x="376" y="466" type="curve"/>
      <point x="450" y="466"/>
      <point x="522" y="440"/>
      <point x="576" y="396" type="curve"/>
      <point x="576" y="157" type="line"/>
      <point x="519" y="95"/>
      <point x="456" y="67"/>
      <point x="374" y="67" type="curve"/>
      <point x="246" y="67"/>
      <point x="151" y="134"/>
    </contour>
    <contour>
      <point x="576" y="0" type="line"/>
      <point x="789" y="0" type="line"/>
      <point x="789" y="72" type="line"/>
      <point x="676" y="72" type="line"/>
      <point x="676" y="800" type="line"/>
      <point x="463" y="800" type="line"/>
      <point x="463" y="728" type="line"/>
      <point x="576" y="728" type="line"/>
      <point x="576" y="477" type="line"/>
      <point x="512" y="517"/>
      <point x="439" y="538"/>
      <point x="361" y="538" type="curve"/>
      <point x="183" y="538"/>
      <point x="55" y="444"/>
      <point x="55" y="263" type="curve"/>
      <point x="55" y="82"/>
      <point x="184" y="-5"/>
      <point x="363" y="-5" type="curve"/>
      <point x="450" y="-5"/>
      <point x="519" y="20"/>
      <point x="576" y="66" type="curve"/>
    </contour>
  </outline>
</glyph>
<glyph name="f" format="1">
  <advance width="599"/>
  <unicode hex="0066"/>
  <outline>
    <contour>
      <point x="506" y="768" type="curve"/>
      <point x="506" y="637"/>
      <point x="506" y="769"/>
      <point x="506" y="637" type="curve"/>
      <point x="580" y="637"/>
      <point x="506" y="637"/>
      <point x="580" y="637" type="curve"/>
      <point x="580" y="769"/>
      <point x="580" y="637"/>
      <point x="580" y="768" type="curve"/>
      <point x="506" y="768"/>
      <point x="580" y="768"/>
    </contour>
    <contour>
      <point x="258" y="-1" type="curve"/>
      <point x="317" y="-1"/>
      <point x="361" y="0"/>
      <point x="420" y="0" type="curve"/>
      <point x="420" y="72"/>
      <point x="420" y="0"/>
      <point x="420" y="72" type="curve"/>
      <point x="243" y="72"/>
      <point x="435" y="72"/>
      <point x="258" y="72" type="curve"/>
      <point x="258" y="-1"/>
      <point x="258" y="72"/>
    </contour>
    <contour>
      <point x="258" y="72" type="curve"/>
      <point x="81" y="72"/>
      <point x="273" y="72"/>
      <point x="96" y="72" type="curve"/>
      <point x="96" y="0"/>
      <point x="96" y="72"/>
      <point x="96" y="0" type="curve"/>
      <point x="155" y="0"/>
      <point x="199" y="-1"/>
      <point x="258" y="-1" type="curve"/>
      <point x="258" y="72"/>
      <point x="258" y="-1"/>
    </contour>
    <contour>
      <point x="34" y="461" type="curve"/>
      <point x="546" y="461" type="line"/>
      <point x="546" y="533"/>
      <point x="546" y="461"/>
      <point x="546" y="533" type="curve"/>
      <point x="34" y="533" type="line"/>
      <point x="34" y="461"/>
      <point x="34" y="533"/>
    </contour>
    <contour>
      <point x="306" y="0" type="curve"/>
      <point x="306" y="620" type="line"/>
      <point x="306" y="692"/>
      <point x="356" y="733"/>
      <point x="431" y="733" type="curve"/>
      <point x="469" y="733"/>
      <point x="507" y="724"/>
      <point x="541" y="711" type="curve"/>
      <point x="580" y="768"/>
      <point x="541" y="711"/>
      <point x="580" y="768" type="curve"/>
      <point x="533" y="787"/>
      <point x="482" y="803"/>
      <point x="431" y="803" type="curve"/>
      <point x="303" y="803"/>
      <point x="209" y="741"/>
      <point x="210" y="620" type="curve"/>
      <point x="210" y="0" type="line"/>
      <point x="306" y="0"/>
      <point x="210" y="0"/>
    </contour>
  </outline>
</glyph>
<glyph name="h" format="1">
  <advance width="806"/>
  <unicode hex="0068"/>
  <outline>
    <contour>
      <point x="639" y="-1" type="curve"/>
      <point x="698" y="-1"/>
      <point x="742" y="0"/>
      <point x="801" y="0" type="curve"/>
      <point x="801" y="72"/>
      <point x="801" y="0"/>
      <point x="801" y="72" type="curve"/>
      <point x="624" y="72"/>
      <point x="816" y="72"/>
      <point x="639" y="72" type="curve"/>
      <point x="639" y="-1"/>
      <point x="639" y="72"/>
    </contour>
    <contour>
      <point x="170" y="-1" type="curve"/>
      <point x="225" y="-1"/>
      <point x="156" y="-1"/>
      <point x="319" y="0" type="curve"/>
      <point x="319" y="72"/>
      <point x="319" y="0"/>
      <point x="319" y="72" type="curve"/>
      <point x="156" y="72"/>
      <point x="334" y="72"/>
      <point x="170" y="72" type="curve"/>
      <point x="170" y="-1"/>
      <point x="170" y="72"/>
    </contour>
    <contour>
      <point x="170" y="799" type="curve"/>
      <point x="111" y="799"/>
      <point x="67" y="800"/>
      <point x="8" y="800" type="curve"/>
      <point x="8" y="728"/>
      <point x="8" y="800"/>
      <point x="8" y="728" type="curve"/>
      <point x="185" y="728"/>
      <point x="-7" y="728"/>
      <point x="170" y="728" type="curve"/>
      <point x="170" y="799"/>
      <point x="170" y="728"/>
    </contour>
    <contour>
      <point x="170" y="72" type="curve"/>
      <point x="-7" y="72"/>
      <point x="185" y="72"/>
      <point x="8" y="72" type="curve"/>
      <point x="8" y="0"/>
      <point x="8" y="72"/>
      <point x="8" y="0" type="curve"/>
      <point x="67" y="0"/>
      <point x="111" y="-1"/>
      <point x="170" y="-1" type="curve"/>
      <point x="170" y="72"/>
      <point x="170" y="-1"/>
    </contour>
    <contour>
      <point x="197" y="309" type="curve"/>
      <point x="238" y="407"/>
      <point x="331" y="466"/>
      <point x="430" y="466" type="curve"/>
      <point x="530" y="466"/>
      <point x="592" y="412"/>
      <point x="592" y="315" type="curve"/>
      <point x="592" y="209"/>
      <point x="592" y="108"/>
      <point x="592" y="0" type="curve"/>
      <point x="688" y="0"/>
      <point x="592" y="0"/>
      <point x="688" y="0" type="curve"/>
      <point x="688" y="110"/>
      <point x="688" y="220"/>
      <point x="688" y="330" type="curve"/>
      <point x="688" y="473"/>
      <point x="595" y="538"/>
      <point x="445" y="538" type="curve"/>
      <point x="318" y="538"/>
      <point x="203" y="469"/>
      <point x="150" y="343" type="curve"/>
      <point x="198" y="307"/>
      <point x="149" y="345"/>
    </contour>
    <contour>
      <point x="218" y="0" type="curve"/>
      <point x="218" y="267"/>
      <point x="218" y="533"/>
      <point x="218" y="800" type="curve"/>
      <point x="122" y="800"/>
      <point x="218" y="800"/>
      <point x="122" y="800" type="curve"/>
      <point x="122" y="533"/>
      <point x="122" y="267"/>
      <point x="122" y="0" type="curve"/>
      <point x="218" y="0"/>
      <point x="122" y="0"/>
    </contour>
  </outline>
</glyph>
<glyph name="i" format="1">
  <advance width="368"/>
  <unicode hex="0069"/>
  <outline>
    <contour>
      <point x="253" y="685" type="curve"/>
      <point x="253" y="717"/>
      <point x="228" y="733"/>
      <point x="194" y="733" type="curve"/>
      <point x="160" y="733"/>
      <point x="137" y="716"/>
      <point x="137" y="685" type="curve"/>
      <point x="137" y="653"/>
      <point x="160" y="637"/>
      <point x="194" y="637" type="curve"/>
      <point x="228" y="637"/>
      <point x="253" y="652"/>
    </contour>
    <contour>
      <point x="33" y="0" type="line"/>
      <point x="350" y="0" type="line"/>
      <point x="350" y="72" type="line"/>
      <point x="247" y="72" type="line"/>
      <point x="247" y="533" type="line"/>
      <point x="34" y="533" type="line"/>
      <point x="34" y="497" type="line" smooth="yes"/>
      <point x="33" y="461" type="line"/>
      <point x="146" y="461" type="line"/>
      <point x="146" y="72" type="line"/>
      <point x="34" y="72" type="line"/>
      <point x="34" y="36" type="line" smooth="yes"/>
    </contour>
    <contour>
      <point x="194" y="638" type="move" name="top"/>
    </contour>
    <contour>
      <point x="240" y="7" type="move" name="bottom"/>
    </contour>
  </outline>
</glyph>
<glyph name="j" format="1">
  <advance width="367"/>
  <unicode hex="006A"/>
  <outline>
    <contour>
      <point x="219" y="533" type="curve"/>
      <point x="160" y="533"/>
      <point x="101" y="533"/>
      <point x="42" y="533" type="curve"/>
      <point x="42" y="461"/>
      <point x="42" y="533"/>
      <point x="42" y="461" type="curve"/>
      <point x="219" y="461"/>
      <point x="42" y="461"/>
      <point x="219" y="461" type="curve"/>
      <point x="219" y="533"/>
      <point x="219" y="461"/>
    </contour>
    <contour>
      <point x="-8" y="-302" type="curve"/>
      <point x="4" y="-302"/>
      <point x="18" y="-305"/>
      <point x="33" y="-305" type="curve"/>
      <point x="162" y="-305"/>
      <point x="268" y="-250"/>
      <point x="268" y="-129" type="curve"/>
      <point x="268" y="91"/>
      <point x="268" y="312"/>
      <point x="268" y="534" type="curve"/>
      <point x="172" y="534"/>
      <point x="268" y="534"/>
      <point x="172" y="534" type="curve"/>
      <point x="172" y="312"/>
      <point x="172" y="91"/>
      <point x="172" y="-129" type="curve"/>
      <point x="172" y="-200"/>
      <point x="112" y="-235"/>
      <point x="37" y="-235" type="curve"/>
      <point x="26" y="-235"/>
      <point x="13" y="-233"/>
      <point x="6" y="-232" type="curve"/>
      <point x="-7" y="-301"/>
      <point x="6" y="-233"/>
    </contour>
    <contour>
      <point x="280" y="684" type="curve"/>
      <point x="280" y="716"/>
      <point x="255" y="732"/>
      <point x="220" y="732" type="curve"/>
      <point x="187" y="732"/>
      <point x="164" y="715"/>
      <point x="164" y="684" type="curve"/>
      <point x="270" y="684"/>
      <point x="174" y="684"/>
      <point x="280" y="684" type="curve"/>
      <point x="280" y="651"/>
      <point x="255" y="636"/>
      <point x="220" y="636" type="curve"/>
      <point x="186" y="636"/>
      <point x="164" y="652"/>
      <point x="164" y="684" type="curve"/>
      <point x="270" y="684"/>
      <point x="174" y="684"/>
    </contour>
  </outline>
</glyph>
<glyph name="k" format="1">
  <advance width="741"/>
  <unicode hex="006B"/>
  <outline>
    <contour>
      <point x="169" y="72" type="curve"/>
      <point x="-7" y="72"/>
      <point x="184" y="72"/>
      <point x="8" y="72" type="curve"/>
      <point x="8" y="0"/>
      <point x="8" y="72"/>
      <point x="8" y="0" type="curve"/>
      <point x="66" y="0"/>
      <point x="110" y="-1"/>
      <point x="169" y="-1" type="curve"/>
      <point x="169" y="72"/>
      <point x="169" y="-1"/>
    </contour>
    <contour>
      <point x="555" y="0" type="curve"/>
      <point x="618" y="0"/>
      <point x="657" y="0"/>
      <point x="718" y="0" type="curve"/>
      <point x="718" y="72"/>
      <point x="718" y="0"/>
      <point x="718" y="72" type="curve"/>
      <point x="531" y="72"/>
      <point x="743" y="72"/>
      <point x="556" y="72" type="curve"/>
      <point x="556" y="0"/>
      <point x="555" y="72"/>
    </contour>
    <contour>
      <point x="543" y="461" type="curve"/>
      <point x="705" y="461"/>
      <point x="519" y="461"/>
      <point x="680" y="461" type="curve"/>
      <point x="680" y="533"/>
      <point x="680" y="461"/>
      <point x="680" y="533" type="curve"/>
      <point x="626" y="533"/>
      <point x="597" y="533"/>
      <point x="543" y="533" type="curve"/>
      <point x="543" y="461"/>
      <point x="543" y="533"/>
    </contour>
    <contour>
      <point x="169" y="-1" type="curve"/>
      <point x="218" y="-1"/>
      <point x="169" y="-1"/>
      <point x="313" y="0" type="curve"/>
      <point x="313" y="72"/>
      <point x="313" y="0"/>
      <point x="313" y="72" type="curve"/>
      <point x="169" y="72"/>
      <point x="314" y="72"/>
      <point x="169" y="72" type="curve"/>
      <point x="169" y="-1"/>
      <point x="169" y="72"/>
    </contour>
    <contour>
      <point x="554" y="533" type="curve"/>
      <point x="482" y="533"/>
      <point x="416" y="533"/>
      <point x="344" y="533" type="curve"/>
      <point x="344" y="461"/>
      <point x="344" y="533"/>
      <point x="344" y="461" type="curve"/>
      <point x="559" y="461"/>
      <point x="339" y="461"/>
      <point x="554" y="461" type="curve"/>
      <point x="554" y="533"/>
      <point x="554" y="461"/>
    </contour>
    <contour>
      <point x="172" y="799" type="curve"/>
      <point x="113" y="799"/>
      <point x="69" y="800"/>
      <point x="9" y="800" type="curve"/>
      <point x="9" y="728"/>
      <point x="9" y="800"/>
      <point x="9" y="728" type="curve"/>
      <point x="187" y="728"/>
      <point x="-5" y="728"/>
      <point x="172" y="728" type="curve"/>
      <point x="172" y="799"/>
      <point x="172" y="728"/>
    </contour>
    <contour>
      <point x="218" y="0" type="curve"/>
      <point x="218" y="800" type="line"/>
      <point x="123" y="800"/>
      <point x="218" y="800"/>
      <point x="123" y="800" type="curve"/>
      <point x="123" y="533"/>
      <point x="123" y="267"/>
      <point x="123" y="0" type="curve"/>
      <point x="218" y="0"/>
      <point x="123" y="0"/>
    </contour>
    <contour>
      <point x="518" y="533" type="curve"/>
      <point x="190" y="275" type="line"/>
      <point x="312" y="275"/>
      <point x="190" y="275"/>
      <point x="312" y="275" type="curve"/>
      <point x="623" y="509" type="line"/>
      <point x="488" y="509"/>
      <point x="652" y="533"/>
    </contour>
    <contour>
      <point x="649" y="32" type="curve"/>
      <point x="311" y="275" type="line"/>
      <point x="190" y="275"/>
      <point x="311" y="275"/>
      <point x="190" y="275" type="curve"/>
      <point x="548" y="0" type="line"/>
      <point x="685" y="0"/>
      <point x="513" y="32"/>
    </contour>
    <contour>
      <point x="425" y="-4" type="move" name="bottom"/>
    </contour>
  </outline>
</glyph>
<glyph name="l" format="1">
  <advance width="386"/>
  <unicode hex="006C"/>
  <outline>
    <contour>
      <point x="193" y="72" type="curve"/>
      <point x="16" y="72"/>
      <point x="193" y="72"/>
      <point x="16" y="72" type="curve"/>
      <point x="16" y="0"/>
      <point x="16" y="72"/>
      <point x="16" y="0" type="curve"/>
      <point x="76" y="0"/>
      <point x="134" y="0"/>
      <point x="193" y="0" type="curve"/>
      <point x="193" y="72"/>
      <point x="193" y="-1"/>
    </contour>
    <contour>
      <point x="196" y="800" type="curve"/>
      <point x="137" y="800"/>
      <point x="78" y="800"/>
      <point x="19" y="800" type="curve"/>
      <point x="19" y="728"/>
      <point x="19" y="800"/>
      <point x="19" y="728" type="curve"/>
      <point x="196" y="728"/>
      <point x="19" y="728"/>
      <point x="196" y="728" type="curve"/>
      <point x="196" y="799"/>
      <point x="196" y="728"/>
    </contour>
    <contour>
      <point x="193" y="0" type="curve"/>
      <point x="253" y="0"/>
      <point x="312" y="0"/>
      <point x="371" y="0" type="curve"/>
      <point x="371" y="72"/>
      <point x="371" y="0"/>
      <point x="371" y="72" type="curve"/>
      <point x="193" y="72"/>
      <point x="371" y="72"/>
      <point x="193" y="72" type="curve"/>
      <point x="193" y="-1"/>
      <point x="193" y="72"/>
    </contour>
    <contour>
      <point x="240" y="0" type="curve"/>
      <point x="240" y="267"/>
      <point x="240" y="533"/>
      <point x="240" y="800" type="curve"/>
      <point x="145" y="800"/>
      <point x="240" y="800"/>
      <point x="145" y="800" type="curve"/>
      <point x="145" y="533"/>
      <point x="145" y="267"/>
      <point x="145" y="0" type="curve"/>
      <point x="240" y="0"/>
      <point x="145" y="0"/>
    </contour>
    <contour>
      <point x="193" y="894" type="move" name="top"/>
    </contour>
    <contour>
      <point x="229" y="4" type="move" name="bottom"/>
    </contour>
  </outline>
</glyph>
<glyph name="m" format="1">
  <advance width="1225"/>
  <unicode hex="006D"/>
  <outline>
    <contour>
      <point x="347" y="72" type="line"/>
      <point x="259" y="72" type="line"/>
      <point x="259" y="346" type="line"/>
      <point x="304" y="419"/>
      <point x="362" y="463"/>
      <point x="442" y="463" type="curve"/>
      <point x="538" y="463"/>
      <point x="582" y="419"/>
      <point x="582" y="322" type="curve"/>
      <point x="582" y="0" type="line"/>
      <point x="767" y="0" type="line"/>
      <point x="767" y="72" type="line"/>
      <point x="678" y="72" type="line"/>
      <point x="678" y="343" type="line"/>
      <point x="723" y="417"/>
      <point x="782" y="463"/>
      <point x="862" y="463" type="curve"/>
      <point x="958" y="463"/>
      <point x="1002" y="419"/>
      <point x="1002" y="322" type="curve"/>
      <point x="1002" y="0" type="line"/>
      <point x="1199" y="0" type="line"/>
      <point x="1199" y="72" type="line"/>
      <point x="1098" y="72" type="line"/>
      <point x="1098" y="330" type="line"/>
      <point x="1098" y="474"/>
      <point x="1029" y="538"/>
      <point x="883" y="538" type="curve"/>
      <point x="790" y="538"/>
      <point x="719" y="499"/>
      <point x="663" y="428" type="curve"/>
      <point x="636" y="504"/>
      <point x="571" y="538"/>
      <point x="465" y="538" type="curve"/>
      <point x="377" y="538"/>
      <point x="313" y="506"/>
      <point x="259" y="445" type="curve"/>
      <point x="259" y="533" type="line"/>
      <point x="49" y="533" type="line"/>
      <point x="49" y="461" type="line"/>
      <point x="163" y="461" type="line"/>
      <point x="163" y="72" type="line"/>
      <point x="49" y="72" type="line"/>
      <point x="49" y="0" type="line"/>
      <point x="347" y="0" type="line"/>
    </contour>
  </outline>
</glyph>
<glyph name="n" format="1">
  <advance width="831"/>
  <unicode hex="006E"/>
  <outline>
    <contour>
      <point x="33" y="0" type="line"/>
      <point x="344" y="0" type="line"/>
      <point x="344" y="72" type="line"/>
      <point x="243" y="72" type="line"/>
      <point x="243" y="342" type="line"/>
      <point x="288" y="418"/>
      <point x="361" y="463"/>
      <point x="451" y="463" type="curve"/>
      <point x="550" y="463"/>
      <point x="617" y="417"/>
      <point x="617" y="322" type="curve"/>
      <point x="617" y="0" type="line"/>
      <point x="826" y="0" type="line"/>
      <point x="826" y="72" type="line"/>
      <point x="713" y="72" type="line"/>
      <point x="713" y="330" type="line"/>
      <point x="713" y="471"/>
      <point x="621" y="538"/>
      <point x="473" y="538" type="curve"/>
      <point x="380" y="538"/>
      <point x="300" y="505"/>
      <point x="243" y="444" type="curve"/>
      <point x="243" y="533" type="line"/>
      <point x="33" y="533" type="line"/>
      <point x="33" y="461" type="line"/>
      <point x="147" y="461" type="line"/>
      <point x="147" y="72" type="line"/>
      <point x="33" y="72" type="line"/>
    </contour>
    <contour>
      <point x="440" y="638" type="move" name="top"/>
    </contour>
    <contour>
      <point x="455" y="17" type="move" name="bottom"/>
    </contour>
  </outline>
</glyph>
<glyph name="o" format="1">
  <advance width="741"/>
  <unicode hex="006F"/>
  <outline>
    <contour>
      <point x="151" y="268" type="curve"/>
      <point x="151" y="394"/>
      <point x="234" y="466"/>
      <point x="365" y="466" type="curve"/>
      <point x="502" y="466"/>
      <point x="590" y="394"/>
      <point x="590" y="266" type="curve"/>
      <point x="590" y="136"/>
      <point x="504" y="67"/>
      <point x="373" y="67" type="curve"/>
      <point x="238" y="67"/>
      <point x="151" y="137"/>
      <point x="151" y="268" type="curve"/>
      <point x="62" y="268"/>
      <point x="144" y="268"/>
      <point x="55" y="268" type="curve"/>
      <point x="55" y="87"/>
      <point x="182" y="-5"/>
      <point x="368" y="-5" type="curve"/>
      <point x="558" y="-5"/>
      <point x="686" y="84"/>
      <point x="686" y="266" type="curve"/>
      <point x="686" y="443"/>
      <point x="560" y="538"/>
      <point x="369" y="538" type="curve"/>
      <point x="181" y="538"/>
      <point x="55" y="442"/>
      <point x="55" y="268" type="curve"/>
      <point x="144" y="268"/>
      <point x="62" y="268"/>
    </contour>
    <contour>
      <point x="368" y="639" type="move" name="top"/>
    </contour>
  </outline>
</glyph>
<glyph name="p" format="1">
  <advance width="802"/>
  <unicode hex="0070"/>
  <outline>
    <contour>
      <point x="173" y="-228" type="curve"/>
      <point x="-8" y="-228"/>
      <point x="188" y="-228"/>
      <point x="7" y="-228" type="curve"/>
      <point x="7" y="-300"/>
      <point x="7" y="-228"/>
      <point x="7" y="-300" type="curve"/>
      <point x="67" y="-300"/>
      <point x="113" y="-300"/>
      <point x="173" y="-300" type="curve"/>
      <point x="173" y="-228"/>
      <point x="173" y="-300"/>
    </contour>
    <contour>
      <point x="173" y="-300" type="curve"/>
      <point x="229" y="-300"/>
      <point x="271" y="-300"/>
      <point x="327" y="-300" type="curve"/>
      <point x="327" y="-228"/>
      <point x="327" y="-300"/>
      <point x="327" y="-228" type="curve"/>
      <point x="158" y="-228"/>
      <point x="342" y="-228"/>
      <point x="173" y="-228" type="curve"/>
      <point x="173" y="-300"/>
      <point x="173" y="-228"/>
    </contour>
    <contour>
      <point x="174" y="533" type="curve"/>
      <point x="114" y="533"/>
      <point x="68" y="533"/>
      <point x="8" y="533" type="curve"/>
      <point x="8" y="461"/>
      <point x="8" y="533"/>
      <point x="8" y="461" type="curve"/>
      <point x="189" y="461"/>
      <point x="-7" y="461"/>
      <point x="174" y="461" type="curve"/>
      <point x="174" y="533"/>
      <point x="174" y="461"/>
    </contour>
    <contour>
      <point x="190" y="347" type="curve"/>
      <point x="250" y="421"/>
      <point x="335" y="468"/>
      <point x="444" y="468" type="curve"/>
      <point x="568" y="468"/>
      <point x="652" y="393"/>
      <point x="652" y="269" type="curve"/>
      <point x="655" y="142"/>
      <point x="568" y="66"/>
      <point x="441" y="67" type="curve"/>
      <point x="343" y="67"/>
      <point x="268" y="101"/>
      <point x="192" y="161" type="curve"/>
      <point x="165" y="142"/>
      <point x="172" y="132"/>
      <point x="146" y="113" type="curve"/>
      <point x="231" y="37"/>
      <point x="328" y="-5"/>
      <point x="451" y="-5" type="curve"/>
      <point x="628" y="-5"/>
      <point x="748" y="99"/>
      <point x="747" y="273" type="curve"/>
      <point x="747" y="439"/>
      <point x="630" y="539"/>
      <point x="459" y="539" type="curve"/>
      <point x="326" y="539"/>
      <point x="224" y="487"/>
      <point x="152" y="398" type="curve"/>
      <point x="174" y="372"/>
      <point x="168" y="373"/>
    </contour>
    <contour>
      <point x="221" y="-300" type="curve"/>
      <point x="221" y="-22"/>
      <point x="221" y="255"/>
      <point x="221" y="533" type="curve"/>
      <point x="126" y="533"/>
      <point x="221" y="533"/>
      <point x="126" y="533" type="curve"/>
      <point x="126" y="255"/>
      <point x="126" y="-22"/>
      <point x="126" y="-300" type="curve"/>
      <point x="221" y="-300"/>
      <point x="126" y="-300"/>
    </contour>
  </outline>
</glyph>
<glyph name="q" format="1">
  <advance width="814"/>
  <unicode hex="0071"/>
  <outline>
    <contour>
      <point x="474" y="-300" type="line"/>
      <point x="786" y="-300" type="line"/>
      <point x="786" y="-228" type="line"/>
      <point x="685" y="-228" type="line"/>
      <point x="685" y="461" type="line"/>
      <point x="786" y="461" type="line"/>
      <point x="786" y="533" type="line"/>
      <point x="584" y="533" type="line"/>
      <point x="584" y="467" type="line"/>
      <point x="516" y="512"/>
      <point x="440" y="538"/>
      <point x="351" y="538" type="curve"/>
      <point x="174" y="538"/>
      <point x="55" y="437"/>
      <point x="55" y="263" type="curve"/>
      <point x="55" y="90"/>
      <point x="179" y="-5"/>
      <point x="356" y="-5" type="curve"/>
      <point x="444" y="-5"/>
      <point x="517" y="22"/>
      <point x="584" y="67" type="curve"/>
      <point x="584" y="-228" type="line"/>
      <point x="474" y="-228" type="line"/>
    </contour>
    <contour>
      <point x="151" y="267" type="curve"/>
      <point x="151" y="393"/>
      <point x="238" y="466"/>
      <point x="365" y="466" type="curve"/>
      <point x="449" y="466"/>
      <point x="523" y="436"/>
      <point x="584" y="387" type="curve"/>
      <point x="584" y="149" type="line"/>
      <point x="524" y="94"/>
      <point x="452" y="67"/>
      <point x="368" y="67" type="curve"/>
      <point x="240" y="67"/>
      <point x="151" y="140"/>
    </contour>
  </outline>
</glyph>
<glyph name="r" format="1">
  <advance width="551"/>
  <unicode hex="0072"/>
  <outline>
    <contour>
      <point x="49" y="0" type="line"/>
      <point x="364" y="0" type="line"/>
      <point x="364" y="72" type="line"/>
      <point x="259" y="72" type="line"/>
      <point x="259" y="342" type="line"/>
      <point x="323" y="428"/>
      <point x="413" y="454"/>
      <point x="525" y="454" type="curve"/>
      <point x="525" y="538" type="line"/>
      <point x="416" y="538"/>
      <point x="326" y="505"/>
      <point x="259" y="435" type="curve"/>
      <point x="259" y="533" type="line"/>
      <point x="48" y="533" type="line"/>
      <point x="48" y="461" type="line"/>
      <point x="163" y="461" type="line"/>
      <point x="163" y="72" type="line"/>
      <point x="49" y="72" type="line"/>
    </contour>
    <contour>
      <point x="253" y="639" type="move" name="top"/>
    </contour>
    <contour>
      <point x="233" y="14" type="move" name="bottom"/>
    </contour>
  </outline>
</glyph>
<glyph name="t" format="1">
  <advance width="519"/>
  <unicode hex="0074"/>
  <outline>
    <contour>
      <point x="481" y="60" type="line" smooth="yes"/>
      <point x="468" y="92" type="line"/>
      <point x="430" y="76"/>
      <point x="402" y="69"/>
      <point x="361" y="69" type="curve"/>
      <point x="297" y="69"/>
      <point x="260" y="97"/>
      <point x="260" y="162" type="curve"/>
      <point x="260" y="461" type="line"/>
      <point x="487" y="461" type="line"/>
      <point x="487" y="533" type="line"/>
      <point x="260" y="533" type="line"/>
      <point x="260" y="683" type="line"/>
      <point x="242" y="673"/>
      <point x="182" y="642"/>
      <point x="164" y="631" type="curve"/>
      <point x="164" y="533" type="line"/>
      <point x="18" y="533" type="line"/>
      <point x="18" y="461" type="line"/>
      <point x="164" y="461" type="line"/>
      <point x="164" y="158" type="line"/>
      <point x="164" y="45"/>
      <point x="237" y="-6"/>
      <point x="352" y="-6" type="curve"/>
      <point x="411" y="-6"/>
      <point x="450" y="9"/>
      <point x="494" y="27" type="curve"/>
    </contour>
    <contour>
      <point x="368" y="2" type="move" name="bottom"/>
    </contour>
  </outline>
</glyph>
<glyph name="u" format="1">
  <advance width="818"/>
  <unicode hex="0075"/>
  <outline>
    <contour>
      <point x="592" y="0" type="line"/>
      <point x="789" y="0" type="line"/>
      <point x="789" y="72" type="line"/>
      <point x="687" y="72" type="line"/>
      <point x="687" y="533" type="line"/>
      <point x="477" y="533" type="line"/>
      <point x="477" y="461" type="line"/>
      <point x="592" y="461" type="line"/>
      <point x="592" y="176" type="line"/>
      <point x="546" y="110"/>
      <point x="478" y="67"/>
      <point x="395" y="67" type="curve"/>
      <point x="294" y="67"/>
      <point x="226" y="111"/>
      <point x="226" y="205" type="curve"/>
      <point x="226" y="533" type="line"/>
      <point x="16" y="533" type="line"/>
      <point x="16" y="461" type="line"/>
      <point x="130" y="461" type="line"/>
      <point x="130" y="201" type="line"/>
      <point x="130" y="62"/>
      <point x="231" y="-5"/>
      <point x="380" y="-5" type="curve"/>
      <point x="464" y="-5"/>
      <point x="536" y="27"/>
      <point x="592" y="82" type="curve"/>
    </contour>
    <contour>
      <point x="389" y="639" type="move" name="top"/>
    </contour>
    <contour>
      <point x="666" y="9" type="move" name="bottom"/>
    </contour>
  </outline>
</glyph>
<glyph name="v" format="1">
  <advance width="815"/>
  <unicode hex="0076"/>
  <outline>
    <contour>
      <point x="160" y="533" type="curve"/>
      <point x="111" y="533"/>
      <point x="62" y="533"/>
      <point x="14" y="533" type="curve"/>
      <point x="14" y="461"/>
      <point x="14" y="533"/>
      <point x="14" y="461" type="curve"/>
      <point x="160" y="461"/>
      <point x="13" y="461"/>
      <point x="160" y="461" type="curve"/>
      <point x="160" y="533"/>
      <point x="160" y="461"/>
    </contour>
    <contour>
      <point x="160" y="461" type="curve"/>
      <point x="321" y="461"/>
      <point x="159" y="461"/>
      <point x="321" y="461" type="curve"/>
      <point x="321" y="533"/>
      <point x="321" y="461"/>
      <point x="321" y="533" type="curve"/>
      <point x="267" y="533"/>
      <point x="213" y="533"/>
      <point x="160" y="533" type="curve"/>
      <point x="160" y="461"/>
      <point x="160" y="533"/>
    </contour>
    <contour>
      <point x="658" y="533" type="curve"/>
      <point x="605" y="533"/>
      <point x="551" y="533"/>
      <point x="497" y="533" type="curve"/>
      <point x="497" y="461"/>
      <point x="497" y="533"/>
      <point x="497" y="461" type="curve"/>
      <point x="659" y="461"/>
      <point x="496" y="461"/>
      <point x="658" y="461" type="curve"/>
      <point x="658" y="533"/>
      <point x="658" y="461"/>
    </contour>
    <contour>
      <point x="658" y="461" type="curve"/>
      <point x="809" y="461"/>
      <point x="658" y="461"/>
      <point x="809" y="461" type="curve"/>
      <point x="809" y="533"/>
      <point x="809" y="461"/>
      <point x="809" y="533" type="curve"/>
      <point x="759" y="533"/>
      <point x="709" y="533"/>
      <point x="658" y="533" type="curve"/>
      <point x="658" y="461"/>
      <point x="658" y="533"/>
    </contour>
    <contour>
      <point x="89" y="533" type="curve"/>
      <point x="176" y="355"/>
      <point x="264" y="178"/>
      <point x="351" y="0" type="curve"/>
      <point x="447" y="0"/>
      <point x="351" y="0"/>
      <point x="447" y="0" type="curve"/>
      <point x="360" y="178"/>
      <point x="274" y="355"/>
      <point x="187" y="533" type="curve"/>
      <point x="89" y="533"/>
      <point x="187" y="533"/>
    </contour>
    <contour>
      <point x="633" y="533" type="curve"/>
      <point x="358" y="0" type="line"/>
      <point x="454" y="0"/>
      <point x="358" y="0"/>
      <point x="454" y="0" type="curve"/>
      <point x="546" y="178"/>
      <point x="638" y="355"/>
      <point x="730" y="533" type="curve"/>
      <point x="633" y="533"/>
      <point x="730" y="533"/>
    </contour>
  </outline>
</glyph>
<glyph name="w" format="1">
  <advance width="1232"/>
  <unicode hex="0077"/>
  <outline>
    <contour>
      <point x="413" y="0" type="line"/>
      <point x="483" y="145"/>
      <point x="553" y="290"/>
      <point x="623" y="435" type="curve"/>
      <point x="685" y="290"/>
      <point x="748" y="145"/>
      <point x="811" y="0" type="curve"/>
      <point x="906" y="0" type="line"/>
      <point x="975" y="154"/>
      <point x="1044" y="307"/>
      <point x="1114" y="461" type="curve"/>
      <point x="1223" y="461" type="line"/>
      <point x="1223" y="533" type="line"/>
      <point x="911" y="533" type="line"/>
      <point x="911" y="461" type="line"/>
      <point x="1017" y="461" type="line"/>
      <point x="965" y="342"/>
      <point x="912" y="224"/>
      <point x="860" y="106" type="curve"/>
      <point x="799" y="248"/>
      <point x="737" y="390"/>
      <point x="676" y="533" type="curve"/>
      <point x="573" y="533" type="line"/>
      <point x="505" y="389"/>
      <point x="437" y="246"/>
      <point x="368" y="102" type="curve"/>
      <point x="317" y="222"/>
      <point x="267" y="341"/>
      <point x="216" y="461" type="curve"/>
      <point x="323" y="461" type="line"/>
      <point x="323" y="533" type="line"/>
      <point x="11" y="533" type="line"/>
      <point x="11" y="461" type="line"/>
      <point x="120" y="461" type="line"/>
      <point x="186" y="307"/>
      <point x="252" y="154"/>
      <point x="318" y="0" type="curve"/>
    </contour>
  </outline>
</glyph>
<glyph name="x" format="1">
  <advance width="805"/>
  <unicode hex="0078"/>
  <outline>
    <contour>
      <point x="146" y="72" type="curve"/>
      <point x="-18" y="72"/>
      <point x="174" y="72"/>
      <point x="11" y="72" type="curve"/>
      <point x="11" y="0"/>
      <point x="11" y="72"/>
      <point x="11" y="0" type="curve"/>
      <point x="65" y="0"/>
      <point x="91" y="0"/>
      <point x="146" y="0" type="curve"/>
      <point x="146" y="72"/>
      <point x="146" y="0"/>
    </contour>
    <contour>
      <point x="655" y="72" type="curve"/>
      <point x="458" y="72"/>
      <point x="666" y="72"/>
      <point x="469" y="72" type="curve"/>
      <point x="469" y="0"/>
      <point x="469" y="72"/>
      <point x="469" y="0" type="curve"/>
      <point x="534" y="0"/>
      <point x="589" y="0"/>
      <point x="655" y="0" type="curve"/>
      <point x="655" y="72"/>
      <point x="655" y="0"/>
    </contour>
    <contour>
      <point x="654" y="0" type="curve"/>
      <point x="707" y="0"/>
      <point x="744" y="0"/>
      <point x="797" y="0" type="curve"/>
      <point x="797" y="72"/>
      <point x="797" y="0"/>
      <point x="797" y="72" type="curve"/>
      <point x="637" y="72"/>
      <point x="813" y="72"/>
      <point x="654" y="72" type="curve"/>
      <point x="654" y="0"/>
      <point x="654" y="72"/>
    </contour>
    <contour>
      <point x="145" y="0" type="curve"/>
      <point x="210" y="0"/>
      <point x="138" y="0"/>
      <point x="335" y="0" type="curve"/>
      <point x="335" y="72"/>
      <point x="335" y="0"/>
      <point x="335" y="72" type="curve"/>
      <point x="138" y="72"/>
      <point x="342" y="72"/>
      <point x="145" y="72" type="curve"/>
      <point x="145" y="0"/>
      <point x="145" y="72"/>
    </contour>
    <contour>
      <point x="634" y="461" type="curve"/>
      <point x="798" y="461"/>
      <point x="615" y="461"/>
      <point x="780" y="461" type="curve"/>
      <point x="780" y="533"/>
      <point x="780" y="461"/>
      <point x="780" y="533" type="curve"/>
      <point x="725" y="533"/>
      <point x="688" y="533"/>
      <point x="634" y="533" type="curve"/>
      <point x="634" y="461"/>
      <point x="634" y="533"/>
    </contour>
    <contour>
      <point x="182" y="533" type="curve"/>
      <point x="127" y="533"/>
      <point x="91" y="533"/>
      <point x="36" y="533" type="curve"/>
      <point x="36" y="461"/>
      <point x="36" y="533"/>
      <point x="36" y="461" type="curve"/>
      <point x="201" y="461"/>
      <point x="18" y="461"/>
      <point x="182" y="461" type="curve"/>
      <point x="182" y="533"/>
      <point x="182" y="461"/>
    </contour>
    <contour>
      <point x="166" y="461" type="curve"/>
      <point x="357" y="461"/>
      <point x="156" y="461"/>
      <point x="347" y="461" type="curve"/>
      <point x="347" y="533"/>
      <point x="347" y="461"/>
      <point x="347" y="533" type="curve"/>
      <point x="283" y="533"/>
      <point x="230" y="533"/>
      <point x="166" y="533" type="curve"/>
      <point x="166" y="461"/>
      <point x="166" y="533"/>
    </contour>
    <contour>
      <point x="635" y="533" type="curve"/>
      <point x="576" y="533"/>
      <point x="524" y="533"/>
      <point x="465" y="533" type="curve"/>
      <point x="465" y="461"/>
      <point x="465" y="533"/>
      <point x="465" y="461" type="curve"/>
      <point x="642" y="461"/>
      <point x="458" y="461"/>
      <point x="635" y="461" type="curve"/>
      <point x="635" y="533"/>
      <point x="635" y="461"/>
    </contour>
    <contour>
      <point x="718" y="28" type="curve"/>
      <point x="634" y="111"/>
      <point x="270" y="450"/>
      <point x="187" y="533" type="curve"/>
      <point x="86" y="533"/>
      <point x="210" y="504"/>
      <point x="109" y="504" type="curve"/>
      <point x="192" y="421"/>
      <point x="548" y="85"/>
      <point x="630" y="2" type="curve"/>
      <point x="740" y="2"/>
      <point x="608" y="28"/>
    </contour>
    <contour>
      <point x="635" y="533" type="curve"/>
      <point x="551" y="450"/>
      <point x="169" y="111"/>
      <point x="85" y="28" type="curve"/>
      <point x="197" y="28"/>
      <point x="58" y="0"/>
      <point x="171" y="0" type="curve"/>
      <point x="255" y="83"/>
      <point x="619" y="416"/>
      <point x="703" y="500" type="curve"/>
      <point x="603" y="500"/>
      <point x="736" y="533"/>
    </contour>
  </outline>
</glyph>
<glyph name="y" format="1">
  <advance width="868"/>
  <unicode hex="0079"/>
  <outline>
    <contour>
      <point x="128" y="-300" type="line"/>
      <point x="304" y="-300" type="line"/>
      <point x="375" y="-185"/>
      <point x="622" y="260"/>
      <point x="740" y="461" type="curve"/>
      <point x="859" y="461" type="line"/>
      <point x="859" y="533" type="line"/>
      <point x="528" y="533" type="line"/>
      <point x="528" y="461" type="line"/>
      <point x="641" y="461" type="line"/>
      <point x="586" y="367"/>
      <point x="503" y="219"/>
      <point x="422" y="77" type="curve"/>
      <point x="368" y="184"/>
      <point x="284" y="356"/>
      <point x="231" y="461" type="curve"/>
      <point x="345" y="461" type="line"/>
      <point x="345" y="533" type="line"/>
      <point x="14" y="533" type="line"/>
      <point x="14" y="461" type="line"/>
      <point x="133" y="461" type="line"/>
      <point x="205" y="324"/>
      <point x="332" y="70"/>
      <point x="375" y="-6" type="curve"/>
      <point x="327" y="-91"/>
      <point x="282" y="-170"/>
      <point x="248" y="-228" type="curve"/>
      <point x="128" y="-228" type="line"/>
    </contour>
    <contour>
      <point x="432" y="638" type="move" name="top"/>
    </contour>
  </outline>
</glyph>
<glyph name="braceleft" format="1">
  <advance width="386"/>
  <unicode hex="007B"/>
  <outline>
    <contour>
      <point x="333" y="-43" type="curve"/>
      <point x="270" y="-43"/>
      <point x="230" y="-11"/>
      <point x="230" y="49" type="curve"/>
      <point x="230" y="103"/>
      <point x="230" y="157"/>
      <point x="230" y="212" type="curve"/>
      <point x="230" y="318"/>
      <point x="152" y="378"/>
      <point x="41" y="378" type="curve"/>
      <point x="41" y="303"/>
      <point x="41" y="378"/>
      <point x="41" y="303" type="curve"/>
      <point x="100" y="303"/>
      <point x="143" y="276"/>
      <point x="143" y="219" type="curve"/>
      <point x="143" y="163"/>
      <point x="143" y="108"/>
      <point x="143" y="52" type="curve"/>
      <point x="143" y="-56"/>
      <point x="220" y="-115"/>
      <point x="333" y="-115" type="curve"/>
      <point x="333" y="-43"/>
      <point x="333" y="-115"/>
    </contour>
    <contour>
      <point x="333" y="794" type="curve"/>
      <point x="219" y="794"/>
      <point x="142" y="738"/>
      <point x="142" y="629" type="curve"/>
      <point x="142" y="573"/>
      <point x="142" y="515"/>
      <point x="142" y="458" type="curve"/>
      <point x="142" y="402"/>
      <point x="100" y="378"/>
      <point x="41" y="378" type="curve"/>
      <point x="41" y="303"/>
      <point x="41" y="378"/>
      <point x="41" y="303" type="curve"/>
      <point x="152" y="303"/>
      <point x="229" y="361"/>
      <point x="229" y="469" type="curve"/>
      <point x="229" y="522"/>
      <point x="229" y="576"/>
      <point x="229" y="629" type="curve"/>
      <point x="229" y="689"/>
      <point x="270" y="722"/>
      <point x="333" y="722" type="curve"/>
      <point x="333" y="794"/>
      <point x="333" y="722"/>
    </contour>
  </outline>
</glyph>
<glyph name="braceright" format="1">
  <advance width="386"/>
  <unicode hex="007D"/>
  <outline>
    <contour>
      <point x="53" y="-115" type="line"/>
      <point x="166" y="-115"/>
      <point x="243" y="-56"/>
      <point x="243" y="52" type="curve"/>
      <point x="243" y="219" type="line"/>
      <point x="243" y="275"/>
      <point x="285" y="302"/>
      <point x="345" y="302" type="curve"/>
      <point x="345" y="378" type="line"/>
      <point x="285" y="378"/>
      <point x="242" y="402"/>
      <point x="242" y="458" type="curve"/>
      <point x="242" y="629" type="line"/>
      <point x="242" y="737"/>
      <point x="166" y="794"/>
      <point x="53" y="794" type="curve"/>
      <point x="53" y="722" type="line"/>
      <point x="116" y="722"/>
      <point x="155" y="689"/>
      <point x="155" y="629" type="curve"/>
      <point x="155" y="469" type="line"/>
      <point x="155" y="411"/>
      <point x="177" y="368"/>
      <point x="214" y="340" type="curve"/>
      <point x="178" y="311"/>
      <point x="156" y="268"/>
      <point x="156" y="212" type="curve"/>
      <point x="156" y="49" type="line"/>
      <point x="156" y="-11"/>
      <point x="115" y="-43"/>
      <point x="53" y="-43" type="curve"/>
    </contour>
  </outline>
</glyph>
<glyph name="asciitilde" format="1">
  <advance width="831"/>
  <unicode hex="007E"/>
  <outline>
    <contour>
      <point x="679" y="364" type="curve"/>
      <point x="657" y="315"/>
      <point x="631" y="276"/>
      <point x="574" y="276" type="curve"/>
      <point x="520" y="276"/>
      <point x="485" y="287"/>
      <point x="439" y="316" type="curve"/>
      <point x="380" y="353"/>
      <point x="338" y="372"/>
      <point x="269" y="372" type="curve"/>
      <point x="168" y="372"/>
      <point x="112" y="330"/>
      <point x="78" y="239" type="curve"/>
      <point x="110" y="224"/>
      <point x="115" y="222"/>
      <point x="147" y="208" type="curve"/>
      <point x="167" y="264"/>
      <point x="200" y="300"/>
      <point x="264" y="300" type="curve"/>
      <point x="311" y="300"/>
      <point x="340" y="290"/>
      <point x="379" y="264" type="curve"/>
      <point x="444" y="225"/>
      <point x="489" y="205"/>
      <point x="566" y="204" type="curve"/>
      <point x="663" y="204"/>
      <point x="714" y="248"/>
      <point x="753" y="332" type="curve"/>
      <point x="719" y="347"/>
      <point x="714" y="350"/>
    </contour>
  </outline>
</glyph>
<glyph name="exclamdown" format="1">
  <advance width="270"/>
  <unicode hex="00A1"/>
  <outline>
    <contour>
      <point x="192" y="498" type="curve"/>
      <point x="192" y="529"/>
      <point x="170" y="546"/>
      <point x="136" y="546" type="curve"/>
      <point x="101" y="546"/>
      <point x="76" y="531"/>
      <point x="76" y="498" type="curve"/>
      <point x="76" y="465"/>
      <point x="101" y="449"/>
      <point x="135" y="449" type="curve"/>
      <point x="169" y="449"/>
      <point x="192" y="467"/>
    </contour>
    <contour>
      <point x="97" y="309" type="line"/>
      <point x="84" y="-184" type="line"/>
      <point x="185" y="-184" type="line"/>
      <point x="173" y="309" type="line"/>
    </contour>
  </outline>
</glyph>
<glyph name="cent" format="1">
  <advance width="805"/>
  <unicode hex="00A2"/>
  <outline>
    <contour>
      <point x="717" y="172" type="line" smooth="yes"/>
      <point x="691" y="203" type="line"/>
      <point x="597" y="147"/>
      <point x="527" y="124"/>
      <point x="426" y="124" type="curve"/>
      <point x="263" y="124"/>
      <point x="154" y="212"/>
      <point x="154" y="368" type="curve"/>
      <point x="154" y="529"/>
      <point x="278" y="608"/>
      <point x="449" y="608" type="curve"/>
      <point x="531" y="608"/>
      <point x="592" y="596"/>
      <point x="668" y="563" type="curve"/>
      <point x="668" y="474" type="line"/>
      <point x="743" y="474" type="line"/>
      <point x="743" y="614" type="line"/>
      <point x="657" y="658"/>
      <point x="587" y="678"/>
      <point x="497" y="682" type="curve"/>
      <point x="497" y="778" type="line"/>
      <point x="402" y="778" type="line"/>
      <point x="402" y="681" type="line"/>
      <point x="200" y="665"/>
      <point x="58" y="561"/>
      <point x="58" y="364" type="curve"/>
      <point x="58" y="174"/>
      <point x="185" y="64"/>
      <point x="376" y="50" type="curve"/>
      <point x="376" y="-53" type="line"/>
      <point x="471" y="-53" type="line"/>
      <point x="471" y="51" type="line"/>
      <point x="571" y="58"/>
      <point x="650" y="85"/>
      <point x="743" y="140" type="curve"/>
    </contour>
  </outline>
</glyph>
<glyph name="sterling" format="1">
  <advance width="640"/>
  <unicode hex="00A3"/>
  <outline>
    <contour>
      <point x="562" y="72" type="curve"/>
      <point x="392" y="72"/>
      <point x="222" y="72"/>
      <point x="53" y="72" type="curve"/>
      <point x="53" y="0"/>
      <point x="53" y="72"/>
      <point x="53" y="0" type="curve"/>
      <point x="222" y="0"/>
      <point x="392" y="0"/>
      <point x="562" y="0" type="curve"/>
      <point x="562" y="72"/>
      <point x="562" y="0"/>
    </contour>
    <contour>
      <point x="502" y="412" type="curve"/>
      <point x="367" y="412"/>
      <point x="231" y="412"/>
      <point x="97" y="412" type="curve"/>
      <point x="97" y="340"/>
      <point x="97" y="412"/>
      <point x="97" y="340" type="curve"/>
      <point x="231" y="340"/>
      <point x="367" y="340"/>
      <point x="502" y="340" type="curve"/>
      <point x="502" y="412"/>
      <point x="502" y="340"/>
    </contour>
    <contour>
      <point x="589" y="667" type="curve"/>
      <point x="528" y="707"/>
      <point x="478" y="721"/>
      <point x="407" y="721" type="curve"/>
      <point x="226" y="721"/>
      <point x="130" y="563"/>
      <point x="184" y="369" type="curve"/>
      <point x="227" y="210"/>
      <point x="181" y="72"/>
      <point x="53" y="72" type="curve"/>
      <point x="53" y="0"/>
      <point x="53" y="72"/>
      <point x="53" y="0" type="curve"/>
      <point x="248" y="0"/>
      <point x="335" y="175"/>
      <point x="278" y="383" type="curve"/>
      <point x="239" y="528"/>
      <point x="290" y="653"/>
      <point x="402" y="653" type="curve"/>
      <point x="458" y="653"/>
      <point x="495" y="641"/>
      <point x="544" y="613" type="curve"/>
      <point x="589" y="667"/>
      <point x="544" y="613"/>
    </contour>
  </outline>
</glyph>
<glyph name="currency" format="1">
  <advance width="759"/>
  <unicode hex="00A4"/>
  <outline>
    <contour>
      <point x="242" y="314" type="curve"/>
      <point x="242" y="387"/>
      <point x="300" y="425"/>
      <point x="379" y="425" type="curve"/>
      <point x="461" y="425"/>
      <point x="518" y="388"/>
      <point x="518" y="313" type="curve"/>
      <point x="518" y="239"/>
      <point x="464" y="197"/>
      <point x="387" y="197" type="curve"/>
      <point x="302" y="197"/>
      <point x="242" y="235"/>
      <point x="242" y="314" type="curve"/>
      <point x="146" y="314"/>
      <point x="242" y="314"/>
      <point x="147" y="314" type="curve"/>
      <point x="147" y="186"/>
      <point x="247" y="125"/>
      <point x="384" y="125" type="curve"/>
      <point x="517" y="125"/>
      <point x="613" y="191"/>
      <point x="613" y="316" type="curve"/>
      <point x="613" y="437"/>
      <point x="517" y="497"/>
      <point x="388" y="497" type="curve"/>
      <point x="250" y="497"/>
      <point x="147" y="440"/>
      <point x="147" y="314" type="curve"/>
      <point x="242" y="314"/>
      <point x="146" y="314"/>
    </contour>
    <contour>
      <point x="540" y="347" type="line"/>
      <point x="695" y="492" type="line"/>
      <point x="619" y="569" type="line"/>
      <point x="473" y="414" type="line"/>
    </contour>
    <contour>
      <point x="473" y="213" type="line"/>
      <point x="619" y="58" type="line"/>
      <point x="695" y="134" type="line"/>
      <point x="540" y="280" type="line"/>
    </contour>
    <contour>
      <point x="218" y="281" type="line"/>
      <point x="63" y="136" type="line"/>
      <point x="139" y="59" type="line"/>
      <point x="285" y="215" type="line"/>
    </contour>
    <contour>
      <point x="285" y="415" type="line"/>
      <point x="140" y="570" type="line"/>
      <point x="64" y="493" type="line"/>
      <point x="219" y="348" type="line"/>
    </contour>
  </outline>
</glyph>
<glyph name="yen" format="1">
  <advance width="927"/>
  <unicode hex="00A5"/>
  <outline>
    <contour>
      <point x="743" y="413" type="curve"/>
      <point x="654" y="413"/>
      <point x="565" y="413"/>
      <point x="476" y="413" type="curve"/>
      <point x="476" y="334"/>
      <point x="476" y="413"/>
      <point x="476" y="334" type="curve"/>
      <point x="565" y="334"/>
      <point x="654" y="334"/>
      <point x="743" y="334" type="curve"/>
      <point x="743" y="413"/>
      <point x="743" y="334"/>
    </contour>
    <contour>
      <point x="439" y="413" type="curve"/>
      <point x="353" y="413"/>
      <point x="265" y="413"/>
      <point x="178" y="413" type="curve"/>
      <point x="178" y="334"/>
      <point x="178" y="413"/>
      <point x="178" y="334" type="curve"/>
      <point x="265" y="334"/>
      <point x="353" y="334"/>
      <point x="439" y="334" type="curve"/>
      <point x="439" y="413"/>
      <point x="439" y="334"/>
    </contour>
    <contour>
      <point x="743" y="268" type="curve"/>
      <point x="555" y="268"/>
      <point x="366" y="268"/>
      <point x="178" y="268" type="curve"/>
      <point x="178" y="189"/>
      <point x="178" y="268"/>
      <point x="178" y="189" type="curve"/>
      <point x="366" y="189"/>
      <point x="555" y="189"/>
      <point x="743" y="189" type="curve"/>
      <point x="743" y="268"/>
      <point x="743" y="189"/>
    </contour>
    <contour>
      <point x="456" y="72" type="curve"/>
      <point x="280" y="72"/>
      <point x="456" y="72"/>
      <point x="281" y="72" type="curve"/>
      <point x="281" y="0"/>
      <point x="281" y="72"/>
      <point x="281" y="0" type="curve"/>
      <point x="339" y="0"/>
      <point x="397" y="0"/>
      <point x="456" y="0" type="curve"/>
      <point x="456" y="72"/>
      <point x="456" y="0"/>
    </contour>
    <contour>
      <point x="456" y="0" type="curve"/>
      <point x="514" y="0"/>
      <point x="572" y="0"/>
      <point x="630" y="0" type="curve"/>
      <point x="630" y="72"/>
      <point x="630" y="0"/>
      <point x="630" y="72" type="curve"/>
      <point x="455" y="72"/>
      <point x="631" y="72"/>
      <point x="456" y="72" type="curve"/>
      <point x="456" y="0"/>
      <point x="456" y="72"/>
    </contour>
    <contour>
      <point x="723" y="722" type="curve"/>
      <point x="664" y="722"/>
      <point x="607" y="722"/>
      <point x="548" y="722" type="curve"/>
      <point x="548" y="650"/>
      <point x="548" y="722"/>
      <point x="548" y="650" type="curve"/>
      <point x="723" y="650"/>
      <point x="548" y="650"/>
      <point x="723" y="650" type="curve"/>
      <point x="723" y="722"/>
      <point x="723" y="650"/>
    </contour>
    <contour>
      <point x="202" y="722" type="curve"/>
      <point x="148" y="722"/>
      <point x="94" y="722"/>
      <point x="39" y="722" type="curve"/>
      <point x="39" y="650"/>
      <point x="39" y="722"/>
      <point x="39" y="650" type="curve"/>
      <point x="203" y="650"/>
      <point x="39" y="650"/>
      <point x="202" y="650" type="curve"/>
      <point x="202" y="722"/>
      <point x="202" y="650"/>
    </contour>
    <contour>
      <point x="203" y="650" type="curve"/>
      <point x="378" y="650"/>
      <point x="203" y="650"/>
      <point x="378" y="650" type="curve"/>
      <point x="378" y="722"/>
      <point x="378" y="650"/>
      <point x="378" y="722" type="curve"/>
      <point x="320" y="722"/>
      <point x="262" y="722"/>
      <point x="203" y="722" type="curve"/>
      <point x="203" y="650"/>
      <point x="203" y="722"/>
    </contour>
    <contour>
      <point x="724" y="650" type="curve"/>
      <point x="888" y="650"/>
      <point x="723" y="650"/>
      <point x="888" y="650" type="curve"/>
      <point x="888" y="722"/>
      <point x="888" y="650"/>
      <point x="888" y="722" type="curve"/>
      <point x="833" y="722"/>
      <point x="778" y="722"/>
      <point x="724" y="722" type="curve"/>
      <point x="724" y="650"/>
      <point x="724" y="722"/>
    </contour>
    <contour>
      <point x="126" y="702" type="curve"/>
      <point x="220" y="580"/>
      <point x="313" y="458"/>
      <point x="407" y="336" type="curve"/>
      <point x="503" y="336"/>
      <point x="406" y="336"/>
      <point x="502" y="336" type="curve"/>
      <point x="404" y="465"/>
      <point x="306" y="593"/>
      <point x="207" y="722" type="curve"/>
      <point x="126" y="722"/>
      <point x="207" y="702"/>
    </contour>
    <contour>
      <point x="720" y="722" type="curve"/>
      <point x="616" y="593"/>
      <point x="512" y="465"/>
      <point x="408" y="336" type="curve"/>
      <point x="504" y="336"/>
      <point x="408" y="336"/>
      <point x="504" y="336" type="curve"/>
      <point x="603" y="459"/>
      <point x="702" y="581"/>
      <point x="802" y="703" type="curve"/>
      <point x="720" y="703"/>
      <point x="802" y="722"/>
    </contour>
    <contour>
      <point x="507" y="0" type="curve"/>
      <point x="507" y="114"/>
      <point x="507" y="227"/>
      <point x="507" y="341" type="curve"/>
      <point x="404" y="341"/>
      <point x="507" y="341"/>
      <point x="404" y="341" type="curve"/>
      <point x="404" y="227"/>
      <point x="404" y="114"/>
      <point x="404" y="0" type="curve"/>
      <point x="507" y="0"/>
      <point x="404" y="0"/>
    </contour>
  </outline>
</glyph>
<glyph name="brokenbar" format="1">
  <advance width="287"/>
  <unicode hex="00A6"/>
  <outline>
    <contour>
      <point x="191" y="428" type="line"/>
      <point x="191" y="800" type="line"/>
      <point x="96" y="800" type="line"/>
      <point x="96" y="428" type="line"/>
    </contour>
    <contour>
      <point x="191" y="-300" type="line"/>
      <point x="191" y="72" type="line"/>
      <point x="96" y="72" type="line"/>
      <point x="96" y="-300" type="line"/>
    </contour>
  </outline>
</glyph>
<glyph name="section" format="1">
  <advance width="633"/>
  <unicode hex="00A7"/>
  <outline>
    <contour>
      <point x="517" y="706" type="curve"/>
      <point x="447" y="735"/>
      <point x="395" y="750"/>
      <point x="320" y="750" type="curve"/>
      <point x="199" y="750"/>
      <point x="107" y="710"/>
      <point x="107" y="608" type="curve"/>
      <point x="107" y="514"/>
      <point x="183" y="477"/>
      <point x="280" y="451" type="curve"/>
      <point x="371" y="427"/>
      <point x="477" y="430"/>
      <point x="477" y="357" type="curve"/>
      <point x="477" y="291"/>
      <point x="413" y="269"/>
      <point x="335" y="258" type="curve"/>
      <point x="391" y="201"/>
      <point x="335" y="258"/>
      <point x="391" y="201" type="curve"/>
      <point x="495" y="220"/>
      <point x="573" y="263"/>
      <point x="573" y="361" type="curve"/>
      <point x="572" y="480"/>
      <point x="452" y="491"/>
      <point x="327" y="519" type="curve"/>
      <point x="263" y="536"/>
      <point x="202" y="550"/>
      <point x="202" y="608" type="curve"/>
      <point x="202" y="661"/>
      <point x="250" y="678"/>
      <point x="312" y="678" type="curve"/>
      <point x="374" y="678"/>
      <point x="416" y="669"/>
      <point x="479" y="644" type="curve"/>
      <point x="517" y="706"/>
      <point x="479" y="644"/>
    </contour>
    <contour>
      <point x="239" y="521" type="curve"/>
      <point x="141" y="499"/>
      <point x="64" y="461"/>
      <point x="64" y="366" type="curve"/>
      <point x="64" y="255"/>
      <point x="169" y="233"/>
      <point x="286" y="205" type="curve"/>
      <point x="361" y="185"/>
      <point x="441" y="176"/>
      <point x="441" y="116" type="curve"/>
      <point x="441" y="63"/>
      <point x="387" y="44"/>
      <point x="321" y="44" type="curve"/>
      <point x="251" y="44"/>
      <point x="204" y="57"/>
      <point x="135" y="89" type="curve"/>
      <point x="91" y="31"/>
      <point x="135" y="89"/>
      <point x="91" y="31" type="curve"/>
      <point x="167" y="-11"/>
      <point x="229" y="-27"/>
      <point x="317" y="-27" type="curve"/>
      <point x="438" y="-27"/>
      <point x="536" y="9"/>
      <point x="536" y="119" type="curve"/>
      <point x="534" y="217"/>
      <point x="449" y="250"/>
      <point x="347" y="273" type="curve"/>
      <point x="257" y="296"/>
      <point x="159" y="298"/>
      <point x="159" y="373" type="curve"/>
      <point x="159" y="434"/>
      <point x="217" y="451"/>
      <point x="286" y="468" type="curve"/>
      <point x="239" y="521"/>
      <point x="286" y="468"/>
    </contour>
    <contour>
      <point x="166" y="31" type="curve"/>
      <point x="166" y="151"/>
      <point x="166" y="36"/>
      <point x="166" y="156" type="curve"/>
      <point x="91" y="156"/>
      <point x="166" y="156"/>
      <point x="91" y="156" type="curve"/>
      <point x="91" y="36"/>
      <point x="91" y="151"/>
      <point x="91" y="31" type="curve"/>
      <point x="166" y="31"/>
      <point x="91" y="31"/>
    </contour>
    <contour>
      <point x="517" y="581" type="curve"/>
      <point x="517" y="701"/>
      <point x="517" y="586"/>
      <point x="517" y="706" type="curve"/>
      <point x="442" y="706"/>
      <point x="517" y="706"/>
      <point x="442" y="706" type="curve"/>
      <point x="442" y="586"/>
      <point x="442" y="701"/>
      <point x="442" y="581" type="curve"/>
      <point x="517" y="581"/>
      <point x="442" y="581"/>
    </contour>
  </outline>
</glyph>
<glyph name="dieresis" format="1">
  <advance width="435"/>
  <unicode hex="00A8"/>
  <outline>
    <contour>
      <point x="157" y="621" type="curve"/>
      <point x="157" y="653"/>
      <point x="132" y="669"/>
      <point x="97" y="669" type="curve"/>
      <point x="64" y="669"/>
      <point x="41" y="652"/>
      <point x="41" y="621" type="curve"/>
      <point x="41" y="589"/>
      <point x="63" y="573"/>
      <point x="97" y="573" type="curve"/>
      <point x="132" y="573"/>
      <point x="157" y="588"/>
    </contour>
    <contour>
      <point x="355" y="621" type="curve"/>
      <point x="355" y="653"/>
      <point x="330" y="669"/>
      <point x="296" y="669" type="curve"/>
      <point x="262" y="669"/>
      <point x="239" y="652"/>
      <point x="239" y="621" type="curve"/>
      <point x="239" y="589"/>
      <point x="261" y="573"/>
      <point x="295" y="573" type="curve"/>
      <point x="330" y="573"/>
      <point x="355" y="588"/>
    </contour>
    <contour>
      <point x="198" y="575" type="move" name="_top"/>
    </contour>
  </outline>
</glyph>
<glyph name="copyright" format="1">
  <advance width="970"/>
  <unicode hex="00A9"/>
  <outline>
    <contour>
      <point x="143" y="322" type="curve"/>
      <point x="143" y="499"/>
      <point x="298" y="586"/>
      <point x="490" y="586" type="curve"/>
      <point x="677" y="586"/>
      <point x="828" y="495"/>
      <point x="828" y="320" type="curve"/>
      <point x="828" y="150"/>
      <point x="681" y="61"/>
      <point x="499" y="61" type="curve"/>
      <point x="305" y="61"/>
      <point x="143" y="144"/>
      <point x="143" y="322" type="curve"/>
      <point x="64" y="322"/>
      <point x="143" y="322"/>
      <point x="64" y="322" type="curve"/>
      <point x="64" y="106"/>
      <point x="258" y="2"/>
      <point x="495" y="2" type="curve"/>
      <point x="723" y="2"/>
      <point x="906" y="112"/>
      <point x="906" y="323" type="curve"/>
      <point x="906" y="536"/>
      <point x="720" y="645"/>
      <point x="490" y="645" type="curve"/>
      <point x="256" y="645"/>
      <point x="64" y="538"/>
      <point x="64" y="322" type="curve"/>
      <point x="143" y="322"/>
      <point x="64" y="322"/>
    </contour>
    <contour>
      <point x="587" y="431" type="curve"/>
      <point x="587" y="413"/>
      <point x="587" y="398"/>
      <point x="587" y="379" type="curve"/>
      <point x="659" y="379"/>
      <point x="588" y="379"/>
      <point x="659" y="379" type="curve"/>
      <point x="659" y="408"/>
      <point x="659" y="438"/>
      <point x="659" y="467" type="curve"/>
      <point x="588" y="434"/>
      <point x="659" y="463"/>
    </contour>
    <contour>
      <point x="660" y="467" type="curve"/>
      <point x="609" y="494"/>
      <point x="559" y="506"/>
      <point x="496" y="506" type="curve"/>
      <point x="363" y="506"/>
      <point x="264" y="445"/>
      <point x="264" y="321" type="curve"/>
      <point x="264" y="202"/>
      <point x="353" y="142"/>
      <point x="479" y="142" type="curve"/>
      <point x="553" y="142"/>
      <point x="605" y="151"/>
      <point x="669" y="190" type="curve"/>
      <point x="630" y="236"/>
      <point x="669" y="190"/>
      <point x="630" y="236" type="curve"/>
      <point x="574" y="208"/>
      <point x="536" y="200"/>
      <point x="482" y="200" type="curve"/>
      <point x="399" y="200"/>
      <point x="342" y="244"/>
      <point x="342" y="324" type="curve"/>
      <point x="342" y="406"/>
      <point x="404" y="446"/>
      <point x="493" y="446" type="curve"/>
      <point x="532" y="446"/>
      <point x="560" y="441"/>
      <point x="588" y="431" type="curve"/>
      <point x="659" y="463"/>
      <point x="588" y="435"/>
    </contour>
  </outline>
</glyph>
<glyph name="ordfeminine" format="1">
  <advance width="551"/>
  <unicode hex="00AA"/>
  <outline>
    <contour>
      <point x="133" y="527" type="curve"/>
      <point x="133" y="568"/>
      <point x="171" y="581"/>
      <point x="215" y="585" type="curve"/>
      <point x="269" y="591"/>
      <point x="307" y="594"/>
      <point x="356" y="598" type="curve"/>
      <point x="356" y="534" type="line"/>
      <point x="319" y="498"/>
      <point x="279" y="472"/>
      <point x="224" y="472" type="curve"/>
      <point x="173" y="472"/>
      <point x="133" y="485"/>
    </contour>
    <contour>
      <point x="356" y="426" type="line"/>
      <point x="483" y="426" type="line"/>
      <point x="483" y="478" type="line"/>
      <point x="424" y="478" type="line"/>
      <point x="424" y="674" type="line"/>
      <point x="424" y="758"/>
      <point x="347" y="776"/>
      <point x="255" y="776" type="curve"/>
      <point x="185" y="776"/>
      <point x="128" y="755"/>
      <point x="86" y="725" type="curve"/>
      <point x="86" y="647" type="line"/>
      <point x="140" y="647" type="line"/>
      <point x="140" y="696" type="line"/>
      <point x="168" y="712"/>
      <point x="204" y="724"/>
      <point x="245" y="724" type="curve"/>
      <point x="304" y="724"/>
      <point x="356" y="714"/>
      <point x="356" y="661" type="curve"/>
      <point x="356" y="643" type="line"/>
      <point x="308" y="639"/>
      <point x="271" y="637"/>
      <point x="217" y="632" type="curve"/>
      <point x="132" y="624"/>
      <point x="66" y="603"/>
      <point x="66" y="526" type="curve"/>
      <point x="66" y="450"/>
      <point x="128" y="421"/>
      <point x="213" y="421" type="curve"/>
      <point x="274" y="421"/>
      <point x="316" y="442"/>
      <point x="356" y="476" type="curve"/>
    </contour>
  </outline>
</glyph>
<glyph name="guillemotleft" format="1">
  <advance width="719"/>
  <unicode hex="00AB"/>
  <outline>
    <contour>
      <point x="337" y="203" type="line"/>
      <point x="313" y="214"/>
      <point x="225" y="252"/>
      <point x="154" y="283" type="curve"/>
      <point x="225" y="314"/>
      <point x="313" y="352"/>
      <point x="337" y="364" type="curve"/>
      <point x="337" y="443" type="line"/>
      <point x="299" y="425"/>
      <point x="102" y="341"/>
      <point x="64" y="322" type="curve"/>
      <point x="64" y="242" type="line"/>
      <point x="102" y="224"/>
      <point x="299" y="142"/>
      <point x="337" y="123" type="curve"/>
    </contour>
    <contour>
      <point x="630" y="203" type="line"/>
      <point x="607" y="214"/>
      <point x="518" y="252"/>
      <point x="447" y="283" type="curve"/>
      <point x="518" y="314"/>
      <point x="606" y="352"/>
      <point x="630" y="364" type="curve"/>
      <point x="630" y="443" type="line"/>
      <point x="592" y="425"/>
      <point x="395" y="341"/>
      <point x="357" y="322" type="curve"/>
      <point x="357" y="242" type="line"/>
      <point x="395" y="224"/>
      <point x="593" y="142"/>
      <point x="630" y="123" type="curve"/>
    </contour>
  </outline>
</glyph>
<glyph name="logicalnot" format="1">
  <advance width="795"/>
  <unicode hex="00AC"/>
  <outline>
    <contour>
      <point x="98" y="272" type="curve"/>
      <point x="711" y="272" type="line"/>
      <point x="711" y="351"/>
      <point x="711" y="272"/>
      <point x="711" y="351" type="curve"/>
      <point x="98" y="351" type="line"/>
      <point x="98" y="272"/>
      <point x="98" y="351"/>
    </contour>
    <contour>
      <point x="711" y="145" type="curve"/>
      <point x="711" y="351" type="line"/>
      <point x="615" y="351"/>
      <point x="715" y="351"/>
      <point x="620" y="351" type="curve"/>
      <point x="620" y="145" type="line"/>
      <point x="715" y="145"/>
      <point x="615" y="145"/>
    </contour>
  </outline>
</glyph>
<glyph name="registered" format="1">
  <advance width="973"/>
  <unicode hex="00AE"/>
  <outline>
    <contour>
      <point x="138" y="322" type="curve"/>
      <point x="138" y="506"/>
      <point x="291" y="591"/>
      <point x="491" y="591" type="curve"/>
      <point x="686" y="591"/>
      <point x="836" y="502"/>
      <point x="836" y="320" type="curve"/>
      <point x="836" y="143"/>
      <point x="690" y="55"/>
      <point x="500" y="55" type="curve"/>
      <point x="297" y="55"/>
      <point x="138" y="137"/>
      <point x="138" y="322" type="curve"/>
      <point x="104" y="322"/>
      <point x="98" y="322"/>
      <point x="65" y="322" type="curve"/>
      <point x="65" y="101"/>
      <point x="254" y="2"/>
      <point x="496" y="2" type="curve"/>
      <point x="730" y="2"/>
      <point x="908" y="107"/>
      <point x="908" y="323" type="curve"/>
      <point x="908" y="541"/>
      <point x="727" y="645"/>
      <point x="491" y="645" type="curve"/>
      <point x="251" y="645"/>
      <point x="65" y="543"/>
      <point x="65" y="322" type="curve"/>
      <point x="98" y="322"/>
      <point x="104" y="322"/>
    </contour>
    <contour>
      <point x="597" y="144" type="curve"/>
      <point x="635" y="144"/>
      <point x="663" y="144"/>
      <point x="701" y="144" type="curve"/>
      <point x="701" y="203"/>
      <point x="701" y="144"/>
      <point x="701" y="203" type="curve"/>
      <point x="682" y="203"/>
      <point x="672" y="203"/>
      <point x="653" y="203" type="curve"/>
      <point x="596" y="144"/>
      <point x="655" y="203"/>
    </contour>
    <contour>
      <point x="434" y="501" type="curve"/>
      <point x="386" y="501"/>
      <point x="345" y="501"/>
      <point x="297" y="501" type="curve"/>
      <point x="297" y="442"/>
      <point x="297" y="501"/>
      <point x="297" y="442" type="curve"/>
      <point x="319" y="442"/>
      <point x="334" y="442"/>
      <point x="356" y="442" type="curve"/>
      <point x="434" y="501"/>
      <point x="356" y="442"/>
    </contour>
    <contour>
      <point x="434" y="204" type="curve"/>
      <point x="386" y="204"/>
      <point x="345" y="204"/>
      <point x="297" y="204" type="curve"/>
      <point x="297" y="144"/>
      <point x="297" y="204"/>
      <point x="297" y="144" type="curve"/>
      <point x="319" y="144"/>
      <point x="334" y="144"/>
      <point x="356" y="144" type="curve"/>
      <point x="434" y="204"/>
      <point x="356" y="144"/>
    </contour>
    <contour>
      <point x="355" y="144" type="curve"/>
      <point x="399" y="144"/>
      <point x="436" y="144"/>
      <point x="480" y="144" type="curve"/>
      <point x="480" y="203"/>
      <point x="480" y="144"/>
      <point x="480" y="203" type="curve"/>
      <point x="462" y="203"/>
      <point x="451" y="203"/>
      <point x="434" y="203" type="curve"/>
      <point x="355" y="144"/>
      <point x="434" y="203"/>
    </contour>
    <contour>
      <point x="473" y="313" type="curve"/>
      <point x="514" y="261"/>
      <point x="557" y="197"/>
      <point x="597" y="144" type="curve"/>
      <point x="655" y="203"/>
      <point x="596" y="144"/>
      <point x="653" y="203" type="curve"/>
      <point x="626" y="239"/>
      <point x="595" y="277"/>
      <point x="568" y="313" type="curve"/>
      <point x="471" y="313"/>
      <point x="570" y="313"/>
    </contour>
    <contour>
      <point x="434" y="204" type="curve"/>
      <point x="434" y="303"/>
      <point x="434" y="402"/>
      <point x="434" y="501" type="curve"/>
      <point x="355" y="442"/>
      <point x="434" y="501"/>
      <point x="356" y="442" type="curve"/>
      <point x="356" y="343"/>
      <point x="356" y="243"/>
      <point x="356" y="144" type="curve"/>
      <point x="434" y="204"/>
      <point x="355" y="144"/>
    </contour>
    <contour>
      <point x="397" y="280" type="curve"/>
      <point x="422" y="280"/>
      <point x="448" y="280"/>
      <point x="473" y="280" type="curve"/>
      <point x="571" y="280"/>
      <point x="646" y="301"/>
      <point x="646" y="392" type="curve"/>
      <point x="646" y="471"/>
      <point x="578" y="501"/>
      <point x="492" y="501" type="curve"/>
      <point x="473" y="501"/>
      <point x="453" y="501"/>
      <point x="434" y="501" type="curve"/>
      <point x="356" y="442"/>
      <point x="434" y="501"/>
      <point x="356" y="442" type="curve"/>
      <point x="396" y="442"/>
      <point x="437" y="442"/>
      <point x="477" y="442" type="curve"/>
      <point x="527" y="442"/>
      <point x="569" y="432"/>
      <point x="569" y="388" type="curve"/>
      <point x="569" y="345"/>
      <point x="531" y="339"/>
      <point x="484" y="339" type="curve"/>
      <point x="455" y="339"/>
      <point x="426" y="339"/>
      <point x="397" y="339" type="curve"/>
      <point x="397" y="280"/>
      <point x="397" y="339"/>
    </contour>
  </outline>
</glyph>
<glyph name="macron" format="1">
  <advance width="393"/>
  <unicode hex="00AF"/>
  <outline>
    <contour>
      <point x="316" y="669" type="curve"/>
      <point x="221" y="669"/>
      <point x="126" y="669"/>
      <point x="31" y="669" type="curve"/>
      <point x="31" y="597"/>
      <point x="31" y="669"/>
      <point x="31" y="597" type="curve"/>
      <point x="126" y="597"/>
      <point x="221" y="597"/>
      <point x="316" y="597" type="curve"/>
      <point x="316" y="669"/>
      <point x="316" y="597"/>
    </contour>
    <contour>
      <point x="177" y="597" type="move" name="_top"/>
    </contour>
  </outline>
</glyph>
<glyph name="degree" format="1">
  <advance width="594"/>
  <unicode hex="00B0"/>
  <outline>
    <contour>
      <point x="527" y="467" type="curve"/>
      <point x="527" y="600"/>
      <point x="435" y="676"/>
      <point x="298" y="676" type="curve"/>
      <point x="160" y="676"/>
      <point x="67" y="601"/>
      <point x="67" y="469" type="curve"/>
      <point x="148" y="469"/>
      <point x="71" y="469"/>
      <point x="152" y="469" type="curve"/>
      <point x="152" y="553"/>
      <point x="207" y="607"/>
      <point x="295" y="607" type="curve"/>
      <point x="383" y="607"/>
      <point x="442" y="555"/>
      <point x="442" y="467" type="curve"/>
      <point x="442" y="377"/>
      <point x="387" y="321"/>
      <point x="298" y="321" type="curve"/>
      <point x="207" y="321"/>
      <point x="152" y="379"/>
      <point x="152" y="469" type="curve"/>
      <point x="71" y="469"/>
      <point x="148" y="469"/>
      <point x="67" y="469" type="curve"/>
      <point x="67" y="333"/>
      <point x="157" y="251"/>
      <point x="295" y="251" type="curve"/>
      <point x="434" y="251"/>
      <point x="527" y="331"/>
    </contour>
  </outline>
</glyph>
<glyph name="plusminus" format="1">
  <advance width="764"/>
  <unicode hex="00B1"/>
  <outline>
    <contour>
      <point x="694" y="20" type="line"/>
      <point x="694" y="99" type="line"/>
      <point x="427" y="99" type="line"/>
      <point x="427" y="272" type="line"/>
      <point x="694" y="272" type="line"/>
      <point x="694" y="351" type="line"/>
      <point x="427" y="351" type="line"/>
      <point x="427" y="587" type="line"/>
      <point x="337" y="587" type="line"/>
      <point x="337" y="351" type="line"/>
      <point x="71" y="351" type="line"/>
      <point x="71" y="272" type="line"/>
      <point x="337" y="272" type="line"/>
      <point x="337" y="99" type="line"/>
      <point x="71" y="99" type="line"/>
      <point x="71" y="20" type="line"/>
    </contour>
  </outline>
</glyph>
<glyph name="twosuperior" format="1">
  <advance width="591"/>
  <unicode hex="00B2"/>
  <outline>
    <contour>
      <point x="519" y="278" type="line"/>
      <point x="519" y="405" type="line"/>
      <point x="450" y="405" type="line"/>
      <point x="450" y="349" type="line"/>
      <point x="213" y="349" type="line"/>
      <point x="268" y="377"/>
      <point x="319" y="404"/>
      <point x="367" y="432" type="curve"/>
      <point x="432" y="475"/>
      <point x="490" y="505"/>
      <point x="490" y="579" type="curve"/>
      <point x="490" y="676"/>
      <point x="406" y="713"/>
      <point x="300" y="713" type="curve"/>
      <point x="211" y="713"/>
      <point x="143" y="688"/>
      <point x="96" y="624" type="curve"/>
      <point x="160" y="582" type="line"/>
      <point x="197" y="624"/>
      <point x="236" y="643"/>
      <point x="290" y="643" type="curve"/>
      <point x="349" y="643"/>
      <point x="396" y="625"/>
      <point x="396" y="577" type="curve"/>
      <point x="396" y="530"/>
      <point x="357" y="512"/>
      <point x="318" y="486" type="curve"/>
      <point x="237" y="440"/>
      <point x="157" y="394"/>
      <point x="76" y="349" type="curve"/>
      <point x="76" y="278" type="line"/>
    </contour>
    <contour>
      <point x="460" y="341" type="curve"/>
      <point x="456" y="344" type="line"/>
      <point x="455" y="345" type="line" smooth="yes"/>
      <point x="455" y="345"/>
      <point x="458" y="343"/>
    </contour>
    <contour>
      <point x="481" y="320" type="line"/>
      <point x="482" y="320"/>
      <point x="482" y="320"/>
      <point x="482" y="319" type="curve"/>
    </contour>
    <contour>
      <point x="483" y="318" type="line"/>
      <point x="484" y="318"/>
      <point x="484" y="318"/>
      <point x="484" y="317" type="curve"/>
    </contour>
    <contour>
      <point x="298" y="712" type="move" name="_top"/>
    </contour>
    <contour>
      <point x="297" y="278" type="move" name="_bottom"/>
    </contour>
  </outline>
</glyph>
<glyph name="threesuperior" format="1">
  <advance width="527"/>
  <unicode hex="00B3"/>
  <outline>
    <contour>
      <point x="245" y="272" type="line" smooth="yes"/>
      <point x="363" y="272"/>
      <point x="457" y="298"/>
      <point x="457" y="398" type="curve" smooth="yes"/>
      <point x="457" y="403" type="line"/>
      <point x="457" y="458"/>
      <point x="430" y="486"/>
      <point x="388" y="501" type="curve"/>
      <point x="419" y="519"/>
      <point x="437" y="547"/>
      <point x="437" y="591" type="curve"/>
      <point x="437" y="686"/>
      <point x="352" y="712"/>
      <point x="246" y="712" type="curve"/>
      <point x="182" y="712"/>
      <point x="122" y="691"/>
      <point x="76" y="653" type="curve"/>
      <point x="97" y="628" type="line" smooth="yes"/>
      <point x="117" y="603" type="line"/>
      <point x="155" y="632"/>
      <point x="198" y="644"/>
      <point x="236" y="644" type="curve"/>
      <point x="295" y="644"/>
      <point x="343" y="634"/>
      <point x="343" y="586" type="curve"/>
      <point x="343" y="529"/>
      <point x="259" y="529"/>
      <point x="182" y="526" type="curve"/>
      <point x="182" y="465" type="line"/>
      <point x="274" y="462"/>
      <point x="363" y="465"/>
      <point x="363" y="403" type="curve"/>
      <point x="363" y="351"/>
      <point x="312" y="338"/>
      <point x="249" y="338" type="curve" smooth="yes"/>
      <point x="235" y="338" type="line"/>
      <point x="194" y="338"/>
      <point x="155" y="345"/>
      <point x="108" y="363" type="curve"/>
      <point x="90" y="336" type="line" smooth="yes"/>
      <point x="71" y="309" type="line"/>
      <point x="121" y="286"/>
      <point x="170" y="272"/>
      <point x="225" y="272" type="curve"/>
    </contour>
    <contour>
      <point x="259" y="712" type="move" name="_top"/>
    </contour>
    <contour>
      <point x="246" y="271" type="move" name="_bottom"/>
    </contour>
  </outline>
</glyph>
<glyph name="acute" format="1">
  <advance width="453"/>
  <unicode hex="00B4"/>
  <outline>
    <contour>
      <point x="133" y="589" type="line"/>
      <point x="320" y="755" type="line"/>
      <point x="192" y="755" type="line"/>
      <point x="36" y="589" type="line"/>
    </contour>
    <contour>
      <point x="92" y="589" type="move" name="_top"/>
    </contour>
  </outline>
</glyph>
<glyph name="paragraph" format="1">
  <advance width="915"/>
  <unicode hex="00B6"/>
  <outline>
    <contour>
      <point x="550" y="650" type="curve"/>
      <point x="740" y="650"/>
      <point x="550" y="650"/>
      <point x="740" y="650" type="curve"/>
      <point x="740" y="722"/>
      <point x="740" y="650"/>
      <point x="740" y="722" type="curve"/>
      <point x="677" y="722"/>
      <point x="613" y="722"/>
      <point x="550" y="722" type="curve"/>
      <point x="550" y="650"/>
      <point x="550" y="722"/>
    </contour>
    <contour>
      <point x="550" y="0" type="curve"/>
      <point x="613" y="0"/>
      <point x="677" y="0"/>
      <point x="740" y="0" type="curve"/>
      <point x="740" y="72"/>
      <point x="740" y="0"/>
      <point x="740" y="72" type="curve"/>
      <point x="550" y="72"/>
      <point x="740" y="72"/>
      <point x="550" y="72" type="curve"/>
      <point x="550" y="0"/>
      <point x="550" y="72"/>
    </contour>
    <contour>
      <point x="550" y="72" type="curve"/>
      <point x="361" y="72"/>
      <point x="550" y="72"/>
      <point x="361" y="72" type="curve"/>
      <point x="361" y="0"/>
      <point x="361" y="72"/>
      <point x="361" y="0" type="curve"/>
      <point x="550" y="0"/>
      <point x="487" y="0"/>
      <point x="550" y="0" type="curve"/>
      <point x="550" y="72"/>
      <point x="550" y="0"/>
    </contour>
    <contour>
      <point x="532" y="370" type="curve"/>
      <point x="468" y="346"/>
      <point x="418" y="332"/>
      <point x="348" y="332" type="curve"/>
      <point x="233" y="332"/>
      <point x="140" y="377"/>
      <point x="140" y="482" type="curve"/>
      <point x="140" y="606"/>
      <point x="254" y="650"/>
      <point x="393" y="650" type="curve"/>
      <point x="443" y="650"/>
      <point x="495" y="650"/>
      <point x="546" y="650" type="curve"/>
      <point x="546" y="722"/>
      <point x="546" y="650"/>
      <point x="546" y="722" type="curve"/>
      <point x="491" y="722"/>
      <point x="435" y="722"/>
      <point x="380" y="722" type="curve"/>
      <point x="194" y="722"/>
      <point x="44" y="652"/>
      <point x="44" y="486" type="curve"/>
      <point x="44" y="328"/>
      <point x="183" y="263"/>
      <point x="357" y="260" type="curve"/>
      <point x="432" y="260"/>
      <point x="494" y="279"/>
      <point x="563" y="306" type="curve"/>
      <point x="532" y="370"/>
      <point x="563" y="306"/>
    </contour>
    <contour>
      <point x="599" y="0" type="curve"/>
      <point x="599" y="241"/>
      <point x="599" y="481"/>
      <point x="599" y="722" type="curve"/>
      <point x="503" y="722"/>
      <point x="599" y="722"/>
      <point x="503" y="722" type="curve"/>
      <point x="503" y="481"/>
      <point x="503" y="241"/>
      <point x="503" y="0" type="curve"/>
      <point x="599" y="0"/>
      <point x="503" y="0"/>
    </contour>
    <contour>
      <point x="826" y="0" type="curve"/>
      <point x="826" y="241"/>
      <point x="826" y="481"/>
      <point x="826" y="722" type="curve"/>
      <point x="730" y="722"/>
      <point x="826" y="722"/>
      <point x="730" y="722" type="curve"/>
      <point x="730" y="481"/>
      <point x="730" y="241"/>
      <point x="730" y="0" type="curve"/>
      <point x="826" y="0"/>
      <point x="730" y="0"/>
    </contour>
  </outline>
</glyph>
<glyph name="periodcentered" format="1">
  <advance width="266"/>
  <unicode hex="00B7"/>
  <outline>
    <contour>
      <point x="191" y="440" type="curve"/>
      <point x="191" y="473"/>
      <point x="166" y="489"/>
      <point x="132" y="489" type="curve"/>
      <point x="98" y="489"/>
      <point x="75" y="471"/>
      <point x="75" y="440" type="curve"/>
      <point x="75" y="408"/>
      <point x="97" y="392"/>
      <point x="131" y="392" type="curve"/>
      <point x="166" y="392"/>
      <point x="191" y="407"/>
    </contour>
  </outline>
</glyph>
<glyph name="cedilla" format="1">
  <advance width="426"/>
  <unicode hex="00B8"/>
  <outline>
    <contour>
      <point x="321" y="-90" type="curve"/>
      <point x="321" y="-30"/>
      <point x="277" y="3"/>
      <point x="215" y="8" type="curve"/>
      <point x="230" y="27"/>
      <point x="243" y="44"/>
      <point x="251" y="55" type="curve"/>
      <point x="215" y="80" type="line" smooth="yes"/>
      <point x="178" y="104" type="line"/>
      <point x="160" y="81"/>
      <point x="109" y="12"/>
      <point x="91" y="-12" type="curve"/>
      <point x="124" y="-41" type="line" smooth="yes"/>
      <point x="156" y="-70" type="line"/>
      <point x="168" y="-63"/>
      <point x="178" y="-61"/>
      <point x="192" y="-61" type="curve"/>
      <point x="215" y="-61"/>
      <point x="233" y="-70"/>
      <point x="233" y="-93" type="curve"/>
      <point x="233" y="-119"/>
      <point x="208" y="-126"/>
      <point x="177" y="-126" type="curve"/>
      <point x="147" y="-126"/>
      <point x="124" y="-121"/>
      <point x="89" y="-107" type="curve"/>
      <point x="76" y="-135" type="line" smooth="yes"/>
      <point x="62" y="-162" type="line"/>
      <point x="100" y="-178"/>
      <point x="131" y="-187"/>
      <point x="173" y="-187" type="curve"/>
      <point x="256" y="-187"/>
      <point x="321" y="-164"/>
    </contour>
    <contour>
      <point x="236" y="55" type="move" name="_bottom"/>
    </contour>
  </outline>
</glyph>
<glyph name="onesuperior" format="1">
  <advance width="449"/>
  <unicode hex="00B9"/>
  <outline>
    <contour>
      <point x="212" y="279" type="curve"/>
      <point x="269" y="279"/>
      <point x="326" y="279"/>
      <point x="383" y="279" type="curve"/>
      <point x="383" y="349"/>
      <point x="383" y="274"/>
      <point x="383" y="344" type="curve"/>
      <point x="357" y="344"/>
      <point x="332" y="344"/>
      <point x="306" y="344" type="curve"/>
      <point x="212" y="274"/>
      <point x="306" y="349"/>
    </contour>
    <contour>
      <point x="307" y="344" type="curve"/>
      <point x="248" y="344"/>
      <point x="190" y="344"/>
      <point x="131" y="344" type="curve"/>
      <point x="131" y="274"/>
      <point x="131" y="349"/>
      <point x="131" y="279" type="curve"/>
      <point x="159" y="279"/>
      <point x="186" y="279"/>
      <point x="213" y="279" type="curve"/>
      <point x="307" y="349"/>
      <point x="213" y="274"/>
    </contour>
    <contour>
      <point x="103" y="544" type="line"/>
      <point x="307" y="700" type="line"/>
      <point x="213" y="705" type="line"/>
      <point x="62" y="596" type="line"/>
    </contour>
    <contour>
      <point x="307" y="344" type="curve"/>
      <point x="307" y="705" type="line"/>
      <point x="213" y="705" type="line"/>
      <point x="213" y="279" type="line"/>
      <point x="307" y="349"/>
      <point x="213" y="274"/>
    </contour>
    <contour>
      <point x="254" y="703" type="move" name="_top"/>
    </contour>
    <contour>
      <point x="261" y="279" type="move" name="_bottom"/>
    </contour>
  </outline>
</glyph>
<glyph name="ordmasculine" format="1">
  <advance width="547"/>
  <unicode hex="00BA"/>
  <outline>
    <contour>
      <point x="131" y="603" type="curve"/>
      <point x="131" y="683"/>
      <point x="187" y="728"/>
      <point x="271" y="728" type="curve"/>
      <point x="358" y="728"/>
      <point x="415" y="682"/>
      <point x="415" y="601" type="curve"/>
      <point x="415" y="518"/>
      <point x="360" y="472"/>
      <point x="278" y="472" type="curve"/>
      <point x="190" y="472"/>
      <point x="131" y="517"/>
      <point x="131" y="603" type="curve"/>
      <point x="74" y="603"/>
      <point x="120" y="603"/>
      <point x="63" y="603" type="curve"/>
      <point x="63" y="482"/>
      <point x="149" y="419"/>
      <point x="275" y="419" type="curve"/>
      <point x="399" y="419"/>
      <point x="485" y="481"/>
      <point x="485" y="601" type="curve"/>
      <point x="485" y="717"/>
      <point x="400" y="780"/>
      <point x="274" y="780" type="curve"/>
      <point x="149" y="780"/>
      <point x="63" y="718"/>
      <point x="63" y="603" type="curve"/>
      <point x="120" y="603"/>
      <point x="74" y="603"/>
    </contour>
  </outline>
</glyph>
<glyph name="guillemotright" format="1">
  <advance width="719"/>
  <unicode hex="00BB"/>
  <outline>
    <contour>
      <point x="382" y="123" type="line"/>
      <point x="419" y="142"/>
      <point x="617" y="224"/>
      <point x="655" y="242" type="curve"/>
      <point x="655" y="322" type="line"/>
      <point x="617" y="341"/>
      <point x="420" y="425"/>
      <point x="382" y="443" type="curve"/>
      <point x="382" y="364" type="line"/>
      <point x="406" y="352"/>
      <point x="494" y="314"/>
      <point x="565" y="283" type="curve"/>
      <point x="494" y="252"/>
      <point x="405" y="214"/>
      <point x="382" y="203" type="curve"/>
    </contour>
    <contour>
      <point x="89" y="123" type="line"/>
      <point x="126" y="142"/>
      <point x="324" y="224"/>
      <point x="362" y="242" type="curve"/>
      <point x="362" y="322" type="line"/>
      <point x="324" y="341"/>
      <point x="127" y="425"/>
      <point x="89" y="443" type="curve"/>
      <point x="89" y="364" type="line"/>
      <point x="113" y="352"/>
      <point x="201" y="314"/>
      <point x="272" y="283" type="curve"/>
      <point x="201" y="252"/>
      <point x="112" y="214"/>
      <point x="89" y="203" type="curve"/>
    </contour>
  </outline>
</glyph>
<glyph name="onequarter" format="1">
  <advance width="1198"/>
  <unicode hex="00BC"/>
  <outline>
    <contour>
      <point x="111" y="305" type="line"/>
      <point x="362" y="305" type="line"/>
      <point x="362" y="370" type="line"/>
      <point x="286" y="370" type="line"/>
      <point x="286" y="731" type="line"/>
      <point x="193" y="731" type="line"/>
      <point x="41" y="622" type="line"/>
      <point x="82" y="570" type="line"/>
      <point x="193" y="655" type="line"/>
      <point x="193" y="370" type="line"/>
      <point x="111" y="370" type="line"/>
    </contour>
    <contour>
      <point x="392" y="-60" type="line"/>
      <point x="930" y="728" type="line"/>
      <point x="840" y="728" type="line"/>
      <point x="302" y="-60" type="line"/>
    </contour>
    <contour>
      <point x="880" y="-68" type="line"/>
      <point x="1130" y="-68" type="line"/>
      <point x="1130" y="-3" type="line"/>
      <point x="1054" y="-3" type="line"/>
      <point x="1054" y="61" type="line"/>
      <point x="1160" y="61" type="line"/>
      <point x="1160" y="128" type="line"/>
      <point x="1054" y="128" type="line"/>
      <point x="1054" y="381" type="line"/>
      <point x="960" y="381" type="line"/>
      <point x="701" y="128" type="line"/>
      <point x="701" y="61" type="line"/>
      <point x="960" y="61" type="line"/>
      <point x="960" y="-3" type="line"/>
      <point x="880" y="-3" type="line"/>
    </contour>
    <contour>
      <point x="274" y="361" type="line"/>
      <point x="278" y="364" type="line"/>
      <point x="279" y="365"/>
      <point x="280" y="365"/>
      <point x="280" y="365" type="curve" smooth="yes"/>
    </contour>
    <contour>
      <point x="268" y="357" type="line"/>
      <point x="268" y="356"/>
      <point x="268" y="356"/>
      <point x="267" y="356" type="curve"/>
    </contour>
    <contour>
      <point x="239" y="338" type="line" smooth="yes"/>
      <point x="240" y="338" type="line" smooth="yes"/>
      <point x="240" y="337" type="line"/>
      <point x="239" y="337" type="line"/>
    </contour>
    <contour>
      <point x="960" y="128" type="line"/>
      <point x="786" y="128" type="line"/>
      <point x="960" y="296" type="line"/>
    </contour>
  </outline>
</glyph>
<glyph name="onehalf" format="1">
  <advance width="1258"/>
  <unicode hex="00BD"/>
  <outline>
    <contour>
      <point x="393" y="-60" type="line"/>
      <point x="931" y="728" type="line"/>
      <point x="842" y="728" type="line"/>
      <point x="303" y="-60" type="line"/>
    </contour>
    <contour>
      <point x="191" y="305" type="curve"/>
      <point x="248" y="305"/>
      <point x="304" y="305"/>
      <point x="361" y="305" type="curve"/>
      <point x="361" y="375"/>
      <point x="361" y="300"/>
      <point x="361" y="370" type="curve"/>
      <point x="335" y="370"/>
      <point x="310" y="370"/>
      <point x="285" y="370" type="curve"/>
      <point x="191" y="300"/>
      <point x="285" y="375"/>
    </contour>
    <contour>
      <point x="285" y="370" type="curve"/>
      <point x="226" y="370"/>
      <point x="169" y="370"/>
      <point x="110" y="370" type="curve"/>
      <point x="110" y="300"/>
      <point x="110" y="375"/>
      <point x="110" y="305" type="curve"/>
      <point x="137" y="305"/>
      <point x="164" y="305"/>
      <point x="191" y="305" type="curve"/>
      <point x="285" y="375"/>
      <point x="191" y="300"/>
    </contour>
    <contour>
      <point x="81" y="570" type="line"/>
      <point x="285" y="726" type="line"/>
      <point x="191" y="731" type="line"/>
      <point x="40" y="622" type="line"/>
    </contour>
    <contour>
      <point x="285" y="370" type="curve"/>
      <point x="285" y="731" type="line"/>
      <point x="191" y="731" type="line"/>
      <point x="191" y="305" type="line"/>
      <point x="285" y="375"/>
      <point x="191" y="300"/>
    </contour>
    <contour>
      <point x="1216" y="-65" type="curve"/>
      <point x="1216" y="-23"/>
      <point x="1216" y="19"/>
      <point x="1216" y="62" type="curve"/>
      <point x="1146" y="62"/>
      <point x="1217" y="62"/>
      <point x="1147" y="62" type="curve"/>
      <point x="1147" y="42"/>
      <point x="1147" y="24"/>
      <point x="1147" y="5" type="curve"/>
      <point x="1223" y="-58"/>
      <point x="1140" y="-2"/>
    </contour>
    <contour>
      <point x="773" y="-65" type="curve"/>
      <point x="947" y="-65"/>
      <point x="1082" y="-65"/>
      <point x="1216" y="-65" type="curve"/>
      <point x="1140" y="-2"/>
      <point x="1223" y="-58"/>
      <point x="1147" y="5" type="curve"/>
      <point x="1023" y="5"/>
      <point x="898" y="5"/>
      <point x="773" y="5" type="curve"/>
      <point x="773" y="-65"/>
      <point x="773" y="5"/>
    </contour>
    <contour>
      <point x="857" y="239" type="curve"/>
      <point x="894" y="280"/>
      <point x="933" y="299"/>
      <point x="987" y="299" type="curve"/>
      <point x="1046" y="299"/>
      <point x="1093" y="281"/>
      <point x="1093" y="233" type="curve"/>
      <point x="1093" y="187"/>
      <point x="1054" y="169"/>
      <point x="1015" y="142" type="curve"/>
      <point x="934" y="96"/>
      <point x="854" y="51"/>
      <point x="773" y="5" type="curve"/>
      <point x="778" y="-63"/>
      <point x="776" y="5"/>
      <point x="780" y="-63" type="curve"/>
      <point x="889" y="-5"/>
      <point x="980" y="40"/>
      <point x="1064" y="88" type="curve"/>
      <point x="1130" y="132"/>
      <point x="1187" y="162"/>
      <point x="1187" y="236" type="curve"/>
      <point x="1187" y="332"/>
      <point x="1103" y="370"/>
      <point x="998" y="370" type="curve"/>
      <point x="909" y="370"/>
      <point x="840" y="345"/>
      <point x="793" y="280" type="curve"/>
      <point x="857" y="239"/>
      <point x="793" y="280"/>
    </contour>
  </outline>
</glyph>
<glyph name="threequarters" format="1">
  <advance width="1190"/>
  <unicode hex="00BE"/>
  <outline>
    <contour>
      <point x="395" y="-60" type="line"/>
      <point x="934" y="728" type="line"/>
      <point x="844" y="728" type="line"/>
      <point x="306" y="-60" type="line"/>
    </contour>
    <contour>
      <point x="874" y="-68" type="line"/>
      <point x="1125" y="-68" type="line"/>
      <point x="1125" y="-3" type="line"/>
      <point x="1049" y="-3" type="line"/>
      <point x="1049" y="61" type="line"/>
      <point x="1155" y="61" type="line"/>
      <point x="1155" y="128" type="line"/>
      <point x="1049" y="128" type="line"/>
      <point x="1049" y="381" type="line"/>
      <point x="955" y="381" type="line"/>
      <point x="696" y="128" type="line"/>
      <point x="696" y="61" type="line"/>
      <point x="955" y="61" type="line"/>
      <point x="955" y="-3" type="line"/>
      <point x="874" y="-3" type="line"/>
    </contour>
    <contour>
      <point x="222" y="289" type="line" smooth="yes"/>
      <point x="340" y="289"/>
      <point x="433" y="315"/>
      <point x="433" y="414" type="curve" smooth="yes"/>
      <point x="433" y="420" type="line"/>
      <point x="433" y="474"/>
      <point x="406" y="502"/>
      <point x="365" y="517" type="curve"/>
      <point x="395" y="535"/>
      <point x="414" y="564"/>
      <point x="414" y="608" type="curve"/>
      <point x="414" y="702"/>
      <point x="328" y="728"/>
      <point x="222" y="728" type="curve"/>
      <point x="158" y="728"/>
      <point x="99" y="708"/>
      <point x="52" y="670" type="curve"/>
      <point x="94" y="620" type="line"/>
      <point x="132" y="648"/>
      <point x="174" y="661"/>
      <point x="212" y="661" type="curve"/>
      <point x="272" y="661"/>
      <point x="320" y="651"/>
      <point x="320" y="603" type="curve"/>
      <point x="320" y="545"/>
      <point x="236" y="545"/>
      <point x="158" y="543" type="curve"/>
      <point x="158" y="482" type="line"/>
      <point x="251" y="479"/>
      <point x="339" y="482"/>
      <point x="339" y="420" type="curve"/>
      <point x="339" y="367"/>
      <point x="289" y="355"/>
      <point x="227" y="355" type="curve" smooth="yes"/>
      <point x="211" y="355" type="line"/>
      <point x="171" y="355"/>
      <point x="132" y="362"/>
      <point x="85" y="380" type="curve"/>
      <point x="47" y="326" type="line"/>
      <point x="98" y="303"/>
      <point x="147" y="289"/>
      <point x="202" y="289" type="curve"/>
    </contour>
    <contour>
      <point x="955" y="128" type="line"/>
      <point x="781" y="128" type="line"/>
      <point x="955" y="296" type="line"/>
    </contour>
  </outline>
</glyph>
<glyph name="questiondown" format="1">
  <advance width="613"/>
  <unicode hex="00BF"/>
  <outline>
    <contour>
      <point x="396" y="345" type="curve"/>
      <point x="396" y="382"/>
      <point x="396" y="447"/>
      <point x="396" y="484" type="curve"/>
      <point x="300" y="484"/>
      <point x="396" y="484"/>
      <point x="300" y="484" type="curve"/>
      <point x="300" y="447"/>
      <point x="300" y="382"/>
      <point x="300" y="345" type="curve"/>
      <point x="396" y="345"/>
      <point x="300" y="345"/>
    </contour>
    <contour>
      <point x="513" y="113" type="line"/>
      <point x="472" y="77"/>
      <point x="408" y="45"/>
      <point x="337" y="45" type="curve"/>
      <point x="232" y="45"/>
      <point x="150" y="88"/>
      <point x="150" y="187" type="curve"/>
      <point x="150" y="296"/>
      <point x="253" y="345"/>
      <point x="386" y="345" type="curve"/>
      <point x="386" y="372"/>
      <point x="386" y="391"/>
      <point x="386" y="418" type="curve"/>
      <point x="201" y="418"/>
      <point x="58" y="343"/>
      <point x="58" y="187" type="curve"/>
      <point x="58" y="42"/>
      <point x="177" y="-29"/>
      <point x="332" y="-29" type="curve"/>
      <point x="425" y="-29"/>
      <point x="500" y="2"/>
      <point x="562" y="57" type="curve"/>
    </contour>
    <contour>
      <point x="291" y="689" type="curve"/>
      <point x="291" y="657"/>
      <point x="314" y="642"/>
      <point x="347" y="642" type="curve"/>
      <point x="380" y="642"/>
      <point x="402" y="659"/>
      <point x="402" y="689" type="curve"/>
      <point x="291" y="689"/>
      <point x="402" y="689"/>
      <point x="291" y="689" type="curve"/>
      <point x="291" y="721"/>
      <point x="314" y="735"/>
      <point x="348" y="735" type="curve"/>
      <point x="381" y="735"/>
      <point x="402" y="719"/>
      <point x="402" y="689" type="curve"/>
      <point x="291" y="689"/>
      <point x="402" y="689"/>
    </contour>
  </outline>
</glyph>
<glyph name="Agrave" format="1">
  <advance width="979"/>
  <unicode hex="00C0"/>
  <outline>
    <contour>
      <point x="551" y="801" type="line"/>
      <point x="393" y="967" type="line"/>
      <point x="266" y="967" type="line"/>
      <point x="452" y="801" type="line"/>
    </contour>
    <contour>
      <point x="320" y="297" type="line"/>
      <point x="377" y="410"/>
      <point x="435" y="523"/>
      <point x="493" y="636" type="curve"/>
      <point x="545" y="523"/>
      <point x="597" y="410"/>
      <point x="648" y="297" type="curve"/>
    </contour>
    <contour>
      <point x="-13" y="0" type="line"/>
      <point x="310" y="0" type="line"/>
      <point x="310" y="72" type="line"/>
      <point x="204" y="72" type="line"/>
      <point x="230" y="122"/>
      <point x="255" y="171"/>
      <point x="281" y="221" type="curve"/>
      <point x="683" y="221" type="line"/>
      <point x="706" y="171"/>
      <point x="729" y="122"/>
      <point x="752" y="72" type="curve"/>
      <point x="642" y="72" type="line"/>
      <point x="642" y="0" type="line"/>
      <point x="964" y="0" type="line"/>
      <point x="964" y="72" type="line"/>
      <point x="852" y="72" type="line"/>
      <point x="749" y="289"/>
      <point x="643" y="505"/>
      <point x="540" y="722" type="curve"/>
      <point x="451" y="722" type="line"/>
      <point x="336" y="504"/>
      <point x="216" y="289"/>
      <point x="101" y="72" type="curve"/>
      <point x="-13" y="72" type="line"/>
    </contour>
  </outline>
</glyph>
<glyph name="Acircumflex" format="1">
  <advance width="979"/>
  <unicode hex="00C2"/>
  <outline>
    <contour>
      <point x="632" y="802" type="line"/>
      <point x="731" y="802" type="line"/>
      <point x="573" y="968" type="line"/>
      <point x="414" y="968" type="line"/>
      <point x="259" y="802" type="line"/>
      <point x="356" y="802" type="line"/>
      <point x="494" y="925" type="line"/>
    </contour>
    <contour>
      <point x="320" y="297" type="line"/>
      <point x="377" y="410"/>
      <point x="435" y="523"/>
      <point x="493" y="636" type="curve"/>
      <point x="545" y="523"/>
      <point x="597" y="410"/>
      <point x="648" y="297" type="curve"/>
    </contour>
    <contour>
      <point x="-13" y="0" type="line"/>
      <point x="310" y="0" type="line"/>
      <point x="310" y="72" type="line"/>
      <point x="204" y="72" type="line"/>
      <point x="230" y="122"/>
      <point x="255" y="171"/>
      <point x="281" y="221" type="curve"/>
      <point x="683" y="221" type="line"/>
      <point x="706" y="171"/>
      <point x="729" y="122"/>
      <point x="752" y="72" type="curve"/>
      <point x="642" y="72" type="line"/>
      <point x="642" y="0" type="line"/>
      <point x="964" y="0" type="line"/>
      <point x="964" y="72" type="line"/>
      <point x="852" y="72" type="line"/>
      <point x="749" y="289"/>
      <point x="643" y="505"/>
      <point x="540" y="722" type="curve"/>
      <point x="451" y="722" type="line"/>
      <point x="336" y="504"/>
      <point x="216" y="289"/>
      <point x="101" y="72" type="curve"/>
      <point x="-13" y="72" type="line"/>
    </contour>
  </outline>
</glyph>
<glyph name="Atilde" format="1">
  <advance width="979"/>
  <unicode hex="00C3"/>
  <outline>
    <contour>
      <point x="130" y="72" type="curve"/>
      <point x="-15" y="72"/>
      <point x="131" y="72"/>
      <point x="-13" y="72" type="curve"/>
      <point x="-13" y="0"/>
      <point x="-13" y="72"/>
      <point x="-13" y="0" type="curve"/>
      <point x="35" y="0"/>
      <point x="82" y="0"/>
      <point x="130" y="0" type="curve"/>
      <point x="130" y="72"/>
      <point x="130" y="0"/>
    </contour>
    <contour>
      <point x="130" y="0" type="curve"/>
      <point x="190" y="0"/>
      <point x="129" y="0"/>
      <point x="310" y="0" type="curve"/>
      <point x="310" y="72"/>
      <point x="310" y="0"/>
      <point x="310" y="72" type="curve"/>
      <point x="129" y="72"/>
      <point x="311" y="72"/>
      <point x="130" y="72" type="curve"/>
      <point x="130" y="0"/>
      <point x="130" y="72"/>
    </contour>
    <contour>
      <point x="821" y="0" type="curve"/>
      <point x="870" y="0"/>
      <point x="916" y="0"/>
      <point x="964" y="0" type="curve"/>
      <point x="964" y="72"/>
      <point x="964" y="0"/>
      <point x="964" y="72" type="curve"/>
      <point x="819" y="72"/>
      <point x="965" y="72"/>
      <point x="821" y="72" type="curve"/>
      <point x="821" y="0"/>
      <point x="821" y="72"/>
    </contour>
    <contour>
      <point x="821" y="72" type="curve"/>
      <point x="641" y="72"/>
      <point x="822" y="72"/>
      <point x="641" y="72" type="curve"/>
      <point x="641" y="0"/>
      <point x="641" y="72"/>
      <point x="641" y="0" type="curve"/>
      <point x="702" y="0"/>
      <point x="761" y="0"/>
      <point x="821" y="0" type="curve"/>
      <point x="821" y="72"/>
      <point x="821" y="0"/>
    </contour>
    <contour>
      <point x="697" y="297" type="curve"/>
      <point x="557" y="297"/>
      <point x="417" y="297"/>
      <point x="278" y="297" type="curve"/>
      <point x="238" y="221"/>
      <point x="278" y="297"/>
      <point x="238" y="221" type="curve"/>
      <point x="401" y="221"/>
      <point x="564" y="221"/>
      <point x="727" y="221" type="curve"/>
      <point x="697" y="297"/>
      <point x="727" y="221"/>
    </contour>
    <contour>
      <point x="886" y="0" type="curve"/>
      <point x="772" y="241"/>
      <point x="654" y="481"/>
      <point x="540" y="722" type="curve"/>
      <point x="453" y="722"/>
      <point x="540" y="722"/>
      <point x="453" y="722" type="curve"/>
      <point x="565" y="482"/>
      <point x="673" y="240"/>
      <point x="785" y="0" type="curve"/>
      <point x="886" y="0"/>
      <point x="785" y="0"/>
    </contour>
    <contour>
      <point x="167" y="0" type="curve"/>
      <point x="292" y="240"/>
      <point x="412" y="482"/>
      <point x="538" y="722" type="curve"/>
      <point x="451" y="722"/>
      <point x="538" y="722"/>
      <point x="451" y="722" type="curve"/>
      <point x="323" y="480"/>
      <point x="190" y="242"/>
      <point x="63" y="0" type="curve"/>
      <point x="167" y="0"/>
      <point x="63" y="0"/>
    </contour>
    <contour>
      <point x="684" y="955" type="curve"/>
      <point x="670" y="909"/>
      <point x="648" y="870"/>
      <point x="607" y="870" type="curve"/>
      <point x="566" y="870"/>
      <point x="540" y="883"/>
      <point x="508" y="909" type="curve" smooth="yes"/>
      <point x="467" y="943"/>
      <point x="435" y="960"/>
      <point x="382" y="960" type="curve"/>
      <point x="302" y="960"/>
      <point x="255" y="912"/>
      <point x="227" y="830" type="curve"/>
      <point x="298" y="797"/>
      <point x="228" y="830"/>
      <point x="299" y="797" type="curve"/>
      <point x="316" y="850"/>
      <point x="342" y="883"/>
      <point x="386" y="883" type="curve"/>
      <point x="424" y="883"/>
      <point x="445" y="867"/>
      <point x="474" y="844" type="curve" smooth="yes"/>
      <point x="519" y="808"/>
      <point x="553" y="793"/>
      <point x="609" y="793" type="curve"/>
      <point x="690" y="793"/>
      <point x="732" y="845"/>
      <point x="760" y="924" type="curve"/>
      <point x="685" y="954"/>
      <point x="759" y="923"/>
    </contour>
  </outline>
</glyph>
